<?xml version="1.0"?>
<svg xmlns="http://www.w3.org/2000/svg" xmlns:xlink="http://www.w3.org/1999/xlink" xmlns:svgjs="http://svgjs.dev/svgjs" version="1.1" width="1000" height="1000" viewBox="0 0 1000 1000">
  <g transform="matrix(0.7,0,0,0.7,150.5409108145637,137.34388663967604)">
    <svg xmlns="http://www.w3.org/2000/svg" xmlns:xlink="http://www.w3.org/1999/xlink" xmlns:svgjs="http://svgjs.com/svgjs" version="1.1" viewBox="0 0 238 247" data-background-color="#6a9fb5" preserveAspectRatio="xMidYMid meet" height="1037" width="1000">
      <defs/>
      <g id="tight-bounds" transform="matrix(1,0,0,1,-0.18390967695165727,-0.09999999999999432)">
        <svg viewBox="0 0 238.36781935390334 247.2" height="247.2" width="238.36781935390334">
          <g>
            <svg viewBox="0 0 395.5199999999999 410.1750994115428" height="247.2" width="238.36781935390334">
              <g transform="matrix(1,0,0,1,0,270.01139162495497)">
                <svg viewBox="0 0 395.5199999999999 140.16370778658785" height="140.16370778658785" width="395.5199999999999">
                  <g>
                    <svg viewBox="0 0 395.5199999999999 140.16370778658785" height="140.16370778658785" width="395.5199999999999">
                      <g>
                        <svg viewBox="0 0 395.5199999999999 102.60459875532263" height="102.60459875532263" width="395.5199999999999">
                          <g transform="matrix(1,0,0,1,0,0)">
                            <svg width="395.5199999999999" viewBox="0.05 -37.95 152.64 39.6" height="102.60459875532263" data-palette-color="#030303">
                              <path d="M32.3 0L26.9 0Q26.65-0.55 26.2-1.6 25.75-2.65 25.18-4.03 24.6-5.4 23.93-7.03 23.25-8.65 22.55-10.4L22.55-10.4 9.75-10.4 5.45 0 0.05 0 16.2-37.95Q16.5-37.25 17.28-35.4 18.05-33.55 19.13-30.98 20.2-28.4 21.53-25.28 22.85-22.15 24.23-18.95 25.6-15.75 26.93-12.65 28.25-9.55 29.35-6.95 30.45-4.35 31.23-2.53 32-0.7 32.3 0L32.3 0ZM15.65-24.7L11.65-15 20.7-15Q20-16.65 19.38-18.18 18.75-19.7 18.23-20.98 17.7-22.25 17.3-23.2 16.9-24.15 16.7-24.7L16.7-24.7Q16.65-24.8 16.48-25.4 16.3-26 16.2-26.5L16.2-26.5Q16.1-26 15.9-25.4 15.7-24.8 15.65-24.7L15.65-24.7ZM63.15-36.25L68.6-36.25 68.6 1.65Q67.9 0.75 65.9-1.25 63.9-3.25 61.3-5.85 58.7-8.45 55.77-11.3 52.85-14.15 50.25-16.73 47.65-19.3 45.7-21.33 43.75-23.35 43.1-24.2L43.1-24.2 42.15-25.5 42.3-23.9 42.3 0 36.8 0 36.8-37.95Q37.35-37.25 38.62-35.95 39.9-34.65 41.62-32.93 43.35-31.2 45.42-29.2 47.5-27.2 49.62-25.15 51.75-23.1 53.82-21.13 55.9-19.15 57.62-17.45 59.35-15.75 60.6-14.45 61.85-13.15 62.35-12.5L62.35-12.5 63.3-11.1 63.15-12.8 63.15-36.25ZM103.85-36.25L109.3-36.25 109.3 1.65Q108.6 0.75 106.6-1.25 104.6-3.25 102-5.85 99.4-8.45 96.47-11.3 93.55-14.15 90.95-16.73 88.35-19.3 86.4-21.33 84.45-23.35 83.8-24.2L83.8-24.2 82.85-25.5 83-23.9 83 0 77.5 0 77.5-37.95Q78.05-37.25 79.32-35.95 80.6-34.65 82.32-32.93 84.05-31.2 86.12-29.2 88.2-27.2 90.32-25.15 92.45-23.1 94.52-21.13 96.6-19.15 98.32-17.45 100.05-15.75 101.3-14.45 102.55-13.15 103.05-12.5L103.05-12.5 104-11.1 103.85-12.8 103.85-36.25ZM115.64-18.1L115.64-18.1Q115.64-21.85 117.09-25.23 118.54-28.6 121.07-31.15 123.59-33.7 126.94-35.18 130.29-36.65 134.14-36.65L134.14-36.65Q137.94-36.65 141.32-35.18 144.69-33.7 147.22-31.15 149.74-28.6 151.22-25.23 152.69-21.85 152.69-18.1L152.69-18.1Q152.69-14.25 151.22-10.9 149.74-7.55 147.22-5.03 144.69-2.5 141.32-1.05 137.94 0.4 134.14 0.4L134.14 0.4Q130.29 0.4 126.94-1.05 123.59-2.5 121.07-5.03 118.54-7.55 117.09-10.9 115.64-14.25 115.64-18.1ZM121.09-18.05L121.09-18.05Q121.09-15.3 122.12-12.88 123.14-10.45 124.94-8.65 126.74-6.85 129.14-5.8 131.54-4.75 134.24-4.75L134.24-4.75Q136.94-4.75 139.32-5.8 141.69-6.85 143.47-8.65 145.24-10.45 146.27-12.88 147.29-15.3 147.29-18.1L147.29-18.1Q147.29-20.85 146.27-23.28 145.24-25.7 143.44-27.5 141.64-29.3 139.27-30.35 136.89-31.4 134.19-31.4L134.19-31.4Q131.49-31.4 129.09-30.35 126.69-29.3 124.92-27.5 123.14-25.7 122.12-23.25 121.09-20.8 121.09-18.05Z" opacity="1" transform="matrix(1,0,0,1,0,0)" fill="#6a9fb5" class="undefined-text-0" data-fill-palette-color="primary" id="text-0"/>
                            </svg>
                          </g>
                        </svg>
                      </g>
                      <g transform="matrix(1,0,0,1,39.55199999999999,126.82708201108417)">
                        <svg viewBox="0 0 316.41599999999994 13.336625775503677" height="13.336625775503677" width="316.41599999999994">
                          <g transform="matrix(1,0,0,1,0,0)">
                            <svg width="316.41599999999994" viewBox="0.55 -32.5 781.6700000000001 32.95" height="13.336625775503677" data-palette-color="#030303">
                              <path d="M18.05-32.1L28.4 0 23.1 0 22.35-3.6 20.95-8.05 14.15-8.2 8-8.05 6.5-3.85 5.7 0 0.55 0 12-32.1 18.05-32.1ZM14.5-12.15L19.65-12.25 15.05-27.05 14.7-27.05 9.45-12.25 14.5-12.15ZM55.2-25.15L54.95-7.65 55.1 0 49.9 0 38.05-17.6 37.75-17.6 37.7-8.5 37.85 0 33.5 0 33.7-7.35 33.55-25.05 38.65-25.05 50.5-7.45 50.9-7.45 50.75-24.9 55.2-25.15ZM79.2-25.05L79.45-24.65 79.15-20.8 74.3-21.15 72.2-21.15 72.09-7.95 72.25 0 67.45 0 67.64-7.5 67.55-21.15 65.5-21.15 60.55-20.8 60.2-21.2 60.55-25.05 79.2-25.05ZM106.69-25.05L106.44-7.95 106.64 0 101.84 0 101.99-7.5 101.94-10.5 95.49-10.55 89.59-10.45 89.54-7.95 89.74 0 84.94 0 85.14-7.5 84.94-25.05 89.79-25.05 89.64-14.65 95.84-14.55 101.94-14.6 101.84-25.05 106.69-25.05ZM127.89-10Q130.79-5.65 134.44-1.15L134.44-1.15 134.39-0.55Q131.79 0.2 129.84 0.35L129.84 0.35 129.09-0.1Q125.44-6 123.94-8.7L123.94-8.7 119.54-8.65 119.54-7.95 119.74 0 114.94 0 115.14-7.5 114.94-25.05 124.44-25.1Q128.49-25.1 130.72-23.18 132.94-21.25 132.94-17.75L132.94-17.75Q132.94-15.3 131.62-13.3 130.29-11.3 127.89-10L127.89-10ZM119.74-21.3L119.59-12.5 123.94-12.35Q127.89-13.5 127.89-17.3L127.89-17.3Q127.89-19.35 126.69-20.33 125.49-21.3 123.04-21.4L123.04-21.4 119.74-21.3ZM150.09-25.4Q155.59-25.4 158.61-22.18 161.64-18.95 161.64-13.1L161.64-13.1Q161.64-6.6 158.41-3.1 155.19 0.4 149.24 0.4L149.24 0.4Q143.69 0.4 140.69-2.9 137.69-6.2 137.69-12.25L137.69-12.25Q137.69-18.55 140.91-21.98 144.14-25.4 150.09-25.4L150.09-25.4ZM149.64-21.45Q146.04-21.45 144.36-19.43 142.69-17.4 142.69-12.85L142.69-12.85Q142.69-7.8 144.34-5.65 145.99-3.5 149.59-3.5L149.59-3.5Q153.24-3.5 154.94-5.53 156.64-7.55 156.64-12.15L156.64-12.15Q156.64-17.15 154.99-19.3 153.34-21.45 149.64-21.45L149.64-21.45ZM177.14-25.1Q181.19-25.1 183.41-23.13 185.64-21.15 185.64-17.5L185.64-17.5Q185.64-13.2 182.79-10.73 179.94-8.25 175.09-8.25L175.09-8.25 172.24-8.25 172.24-7.95 172.44 0 167.64 0 167.84-7.5 167.64-25.05 177.14-25.1ZM176.29-11.85Q180.59-12.75 180.59-17.1L180.59-17.1Q180.59-19.25 179.39-20.3 178.19-21.35 175.69-21.45L175.69-21.45 172.44-21.35 172.29-11.95 176.29-11.85ZM201.78-25.4Q207.28-25.4 210.31-22.18 213.33-18.95 213.33-13.1L213.33-13.1Q213.33-6.6 210.11-3.1 206.88 0.4 200.93 0.4L200.93 0.4Q195.38 0.4 192.38-2.9 189.38-6.2 189.38-12.25L189.38-12.25Q189.38-18.55 192.61-21.98 195.83-25.4 201.78-25.4L201.78-25.4ZM201.33-21.45Q197.73-21.45 196.06-19.43 194.38-17.4 194.38-12.85L194.38-12.85Q194.38-7.8 196.03-5.65 197.68-3.5 201.28-3.5L201.28-3.5Q204.93-3.5 206.63-5.53 208.33-7.55 208.33-12.15L208.33-12.15Q208.33-17.15 206.68-19.3 205.03-21.45 201.33-21.45L201.33-21.45ZM233.13-4L233.43-3.6 233.08 0 219.18 0 219.38-7.5 219.18-25.05 224.08-25.05 223.83-7.95 223.88-4 233.13-4ZM247.03-25.4Q252.53-25.4 255.55-22.18 258.58-18.95 258.58-13.1L258.58-13.1Q258.58-6.6 255.35-3.1 252.13 0.4 246.18 0.4L246.18 0.4Q240.63 0.4 237.63-2.9 234.63-6.2 234.63-12.25L234.63-12.25Q234.63-18.55 237.85-21.98 241.08-25.4 247.03-25.4L247.03-25.4ZM246.58-21.45Q242.98-21.45 241.3-19.43 239.63-17.4 239.63-12.85L239.63-12.85Q239.63-7.8 241.28-5.65 242.93-3.5 246.53-3.5L246.53-3.5Q250.18-3.5 251.88-5.53 253.58-7.55 253.58-12.15L253.58-12.15Q253.58-17.15 251.93-19.3 250.28-21.45 246.58-21.45L246.58-21.45ZM276.03-25.35Q279.93-25.35 283.93-23.8L283.93-23.8 282.48-19.25 281.98-19.25Q280.08-20.4 278.55-20.9 277.03-21.4 275.18-21.4L275.18-21.4Q271.28-21.4 269.43-19.23 267.58-17.05 267.58-12.2L267.58-12.2Q267.58-7.5 269.33-5.53 271.08-3.55 275.08-3.55L275.08-3.55Q276.13-3.55 277.08-3.75 278.03-3.95 279.43-4.45L279.43-4.45 279.43-6.55 279.38-10.3 283.78-10.6 283.73-7.3 283.73-1.2Q278.63 0.35 274.83 0.35L274.83 0.35Q268.73 0.35 265.63-2.85 262.53-6.05 262.53-12L262.53-12Q262.53-18.45 266.05-21.9 269.58-25.35 276.03-25.35L276.03-25.35ZM295.67-25.05L295.42-7.95 295.62 0 290.82 0 291.02-7.5 290.82-25.05 295.67-25.05ZM313.72-25.35Q317.82-25.35 320.87-23.75L320.87-23.75 319.97-19.5 319.52-19.35Q318.27-20.3 316.65-20.85 315.02-21.4 313.27-21.4L313.27-21.4Q306.37-21.4 306.37-12.8L306.37-12.8Q306.37-8.3 308.17-5.98 309.97-3.65 313.42-3.65L313.42-3.65Q315.12-3.65 316.87-4.2 318.62-4.75 319.97-5.7L319.97-5.7 320.47-5.45 320.07-1.2Q316.72 0.35 313.17 0.35L313.17 0.35Q307.42 0.35 304.37-2.95 301.32-6.25 301.32-12.35L301.32-12.35Q301.32-18.6 304.55-21.98 307.77-25.35 313.72-25.35L313.72-25.35ZM338.12-25.05L346.57 0 341.72 0 341.07-3.1 340.17-5.85 334.57-5.9 329.57-5.85 328.62-3.35 327.92 0 323.17 0 332.52-25.05 338.12-25.05ZM334.92-9.55L338.92-9.6 335.37-20.55 335.02-20.55 330.97-9.6 334.92-9.55ZM366.01-4L366.31-3.6 365.96 0 352.06 0 352.26-7.5 352.06-25.05 356.96-25.05 356.71-7.95 356.76-4 366.01-4ZM405.26-32.2L404.96-9.6 405.11 0 399.56 0 384.46-24.05 384.11-24.05 384.06-10.75 384.21 0 379.51 0 379.76-9.5 379.56-32.1 385.01-32.1 400.16-8.05 400.56-8.05 400.46-31.85 405.26-32.2ZM423.26-25.4Q428.76-25.4 431.78-22.18 434.81-18.95 434.81-13.1L434.81-13.1Q434.81-6.6 431.58-3.1 428.36 0.4 422.41 0.4L422.41 0.4Q416.86 0.4 413.86-2.9 410.86-6.2 410.86-12.25L410.86-12.25Q410.86-18.55 414.08-21.98 417.31-25.4 423.26-25.4L423.26-25.4ZM422.81-21.45Q419.21-21.45 417.53-19.43 415.86-17.4 415.86-12.85L415.86-12.85Q415.86-7.8 417.51-5.65 419.16-3.5 422.76-3.5L422.76-3.5Q426.41-3.5 428.11-5.53 429.81-7.55 429.81-12.15L429.81-12.15Q429.81-17.15 428.16-19.3 426.51-21.45 422.81-21.45L422.81-21.45ZM455.35-25.05L455.6-24.65 455.31-20.8 450.45-21.15 448.35-21.15 448.25-7.95 448.4 0 443.6 0 443.81-7.5 443.7-21.15 441.65-21.15 436.7-20.8 436.35-21.2 436.7-25.05 455.35-25.05ZM470.35-25.05L478.8 0 473.95 0 473.3-3.1 472.4-5.85 466.8-5.9 461.8-5.85 460.85-3.35 460.15 0 455.4 0 464.75-25.05 470.35-25.05ZM467.15-9.55L471.15-9.6 467.6-20.55 467.25-20.55 463.2-9.6 467.15-9.55ZM498.05-25.05L498.3-24.65 498-20.8 493.15-21.15 491.05-21.15 490.95-7.95 491.1 0 486.3 0 486.5-7.5 486.4-21.15 484.35-21.15 479.4-20.8 479.05-21.2 479.4-25.05 498.05-25.05ZM508.65-25.05L508.4-7.95 508.6 0 503.8 0 504-7.5 503.8-25.05 508.65-25.05ZM526.69-25.4Q532.19-25.4 535.22-22.18 538.25-18.95 538.25-13.1L538.25-13.1Q538.25-6.6 535.02-3.1 531.79 0.4 525.84 0.4L525.84 0.4Q520.29 0.4 517.29-2.9 514.29-6.2 514.29-12.25L514.29-12.25Q514.29-18.55 517.52-21.98 520.75-25.4 526.69-25.4L526.69-25.4ZM526.25-21.45Q522.64-21.45 520.97-19.43 519.29-17.4 519.29-12.85L519.29-12.85Q519.29-7.8 520.94-5.65 522.59-3.5 526.19-3.5L526.19-3.5Q529.84-3.5 531.54-5.53 533.25-7.55 533.25-12.15L533.25-12.15Q533.25-17.15 531.59-19.3 529.94-21.45 526.25-21.45L526.25-21.45ZM565.94-25.15L565.69-7.65 565.84 0 560.64 0 548.79-17.6 548.49-17.6 548.44-8.5 548.59 0 544.24 0 544.44-7.35 544.29-25.05 549.39-25.05 561.24-7.45 561.64-7.45 561.49-24.9 565.94-25.15ZM594.49-32.5Q601.14-32.5 604.74-28.4 608.34-24.3 608.34-16.7L608.34-16.7Q608.34-8.5 604.49-4.03 600.64 0.45 593.54 0.45L593.54 0.45Q586.94 0.45 583.36-3.78 579.79-8 579.79-15.75L579.79-15.75Q579.79-23.8 583.61-28.15 587.44-32.5 594.49-32.5L594.49-32.5ZM594.09-28.3Q589.54-28.3 587.31-25.38 585.09-22.45 585.09-16.35L585.09-16.35Q585.09-9.7 587.26-6.63 589.44-3.55 593.99-3.55L593.99-3.55Q598.59-3.55 600.79-6.5 602.99-9.45 602.99-15.7L602.99-15.7Q602.99-22.25 600.81-25.28 598.64-28.3 594.09-28.3L594.09-28.3ZM635.78-25.15L635.53-7.65 635.68 0 630.48 0 618.63-17.6 618.33-17.6 618.28-8.5 618.43 0 614.08 0 614.28-7.35 614.13-25.05 619.23-25.05 631.08-7.45 631.48-7.45 631.33-24.9 635.78-25.15ZM659.78-25.05L660.03-24.65 659.73-20.8 654.88-21.15 652.78-21.15 652.68-7.95 652.83 0 648.03 0 648.23-7.5 648.13-21.15 646.08-21.15 641.13-20.8 640.78-21.2 641.13-25.05 659.78-25.05ZM674.03-25.4Q679.53-25.4 682.55-22.18 685.58-18.95 685.58-13.1L685.58-13.1Q685.58-6.6 682.35-3.1 679.13 0.4 673.18 0.4L673.18 0.4Q667.63 0.4 664.63-2.9 661.63-6.2 661.63-12.25L661.63-12.25Q661.63-18.55 664.85-21.98 668.08-25.4 674.03-25.4L674.03-25.4ZM673.58-21.45Q669.98-21.45 668.3-19.43 666.63-17.4 666.63-12.85L666.63-12.85Q666.63-7.8 668.28-5.65 669.93-3.5 673.53-3.5L673.53-3.5Q677.18-3.5 678.88-5.53 680.58-7.55 680.58-12.15L680.58-12.15Q680.58-17.15 678.93-19.3 677.28-21.45 673.58-21.45L673.58-21.45ZM705.38-4L705.68-3.6 705.33 0 691.43 0 691.63-7.5 691.43-25.05 696.33-25.05 696.08-7.95 696.13-4 705.38-4ZM719.27-25.4Q724.77-25.4 727.8-22.18 730.82-18.95 730.82-13.1L730.82-13.1Q730.82-6.6 727.6-3.1 724.37 0.4 718.42 0.4L718.42 0.4Q712.87 0.4 709.87-2.9 706.87-6.2 706.87-12.25L706.87-12.25Q706.87-18.55 710.1-21.98 713.32-25.4 719.27-25.4L719.27-25.4ZM718.82-21.45Q715.22-21.45 713.55-19.43 711.87-17.4 711.87-12.85L711.87-12.85Q711.87-7.8 713.52-5.65 715.17-3.5 718.77-3.5L718.77-3.5Q722.42-3.5 724.12-5.53 725.82-7.55 725.82-12.15L725.82-12.15Q725.82-17.15 724.17-19.3 722.52-21.45 718.82-21.45L718.82-21.45ZM748.27-25.35Q752.17-25.35 756.17-23.8L756.17-23.8 754.72-19.25 754.22-19.25Q752.32-20.4 750.8-20.9 749.27-21.4 747.42-21.4L747.42-21.4Q743.52-21.4 741.67-19.23 739.82-17.05 739.82-12.2L739.82-12.2Q739.82-7.5 741.57-5.53 743.32-3.55 747.32-3.55L747.32-3.55Q748.37-3.55 749.32-3.75 750.27-3.95 751.67-4.45L751.67-4.45 751.67-6.55 751.62-10.3 756.02-10.6 755.97-7.3 755.97-1.2Q750.87 0.35 747.07 0.35L747.07 0.35Q740.97 0.35 737.87-2.85 734.77-6.05 734.77-12L734.77-12Q734.77-18.45 738.3-21.9 741.82-25.35 748.27-25.35L748.27-25.35ZM772.87-8.5L772.82-7 773.02 0 768.22 0 768.47-7 768.42-8.4 759.92-25.05 765.07-25.05 765.62-23.45 770.62-13.5 770.97-13.5 776.47-23.25 777.17-25.05 782.22-25.05 772.87-8.5Z" opacity="1" transform="matrix(1,0,0,1,0,0)" fill="#6a9fb5" class="undefined-text-1" data-fill-palette-color="secondary" id="text-1"/>
                            </svg>
                          </g>
                        </svg>
                      </g>
                    </svg>
                  </g>
                </svg>
              </g>
              <g transform="matrix(1,0,0,1,86.97678744328404,0)">
                <svg viewBox="0 0 221.566 221.566" height="221.566" width="221.566">
                  <g>
                    <svg xmlns="http://www.w3.org/2000/svg" xmlns:xlink="http://www.w3.org/1999/xlink" xmlns:svgjs="http://svgjs.com/svgjs" version="1.1"/>
                  </g>
                  <g id="icon-0">
                    <svg viewBox="0 0 221.566 221.566" height="221.566" width="221.566">
                      <g>
                        <path d="M0 110.783c0-61.184 49.599-110.783 110.783-110.783 61.184 0 110.783 49.599 110.783 110.783 0 61.184-49.599 110.783-110.783 110.783-61.184 0-110.783-49.599-110.783-110.783zM110.783 212.313c56.074 0 101.53-45.457 101.53-101.53 0-56.074-45.457-101.53-101.53-101.53-56.074 0-101.53 45.457-101.53 101.53 0 56.074 45.457 101.53 101.53 101.53z" data-fill-palette-color="accent" fill="#6a9fb5" stroke="transparent"/>
                      </g>
                      <g transform="matrix(1,0,0,1,51.96409441435608,48.98800618409907)">
                        <svg viewBox="0 0 117.63823628471968 123.5904127452337" height="123.5904127452337" width="117.63823628471968">
                          <g>
                            <svg xmlns="http://www.w3.org/2000/svg" xmlns:xlink="http://www.w3.org/1999/xlink" version="1.1" x="0" y="0" viewBox="3.6820000000000004 1.5913672826063758 82.63735267999915 86.81857913251591" enable-background="new 0 0 90 90" xml:space="preserve" height="123.5904127452337" width="117.63823628471968" class="icon-symbol-0" fill="#6a9fb5" data-fill-palette-color="quaternary" id="symbol-0">
                              <path d="M78.706 6.657c-3.289-0.95-6.656-0.215-9.208 1.68-1.148-2.963-3.605-5.382-6.895-6.33-5.588-1.612-11.429 1.607-13.041 7.198-1.614 5.588 1.606 11.432 7.197 13.044 0.248 0.072 0.502 0.115 0.747 0.168l-1.792 5.881c1.853 2.923 3.126 6.213 3.725 9.728 1.188 6.977-0.408 14-4.505 19.776-4.961 6.997-13.049 11.179-21.635 11.179-0.511 0-1.018-0.03-1.521-0.061-0.201 0.446-0.381 0.903-0.519 1.384-1.612 5.591 1.607 11.428 7.195 13.042 3.292 0.952 6.661 0.216 9.21-1.68 1.146 2.963 3.605 5.385 6.893 6.327 5.59 1.615 11.429-1.604 13.044-7.195 1.614-5.59-1.61-11.432-7.2-13.041-0.248-0.075-0.497-0.12-0.75-0.17l12.49-40.946c0.235 0.087 0.471 0.183 0.722 0.258 5.588 1.609 11.43-1.612 13.039-7.2C87.519 14.11 84.294 8.271 78.706 6.657z" fill="#6a9fb5" data-fill-palette-color="quaternary"/>
                              <path d="M23.457 63.677c2.855 1.231 5.917 1.929 9.078 1.929h0.002c7.494 0 14.554-3.65 18.883-9.755 3.572-5.039 4.969-11.173 3.931-17.26-1.037-6.089-4.385-11.412-9.426-14.981-3.931-2.788-8.549-4.262-13.355-4.262-7.496 0-14.556 3.648-18.885 9.757-3.572 5.039-4.969 11.166-3.931 17.26 0.84 4.923 3.211 9.325 6.744 12.725L5.327 71.907c-0.028 0.025-0.048 0.058-0.076 0.086l-0.496 0.571 0.018 0.01c-0.677 0.923-1.091 2.054-1.091 3.284 0 3.079 2.495 5.576 5.573 5.576 1.908 0 3.587-0.963 4.593-2.427l0.008 0.005L23.457 63.677zM14.893 45.485c-0.805-4.716 0.276-9.464 3.043-13.368 3.354-4.733 8.825-7.556 14.633-7.556 3.721 0 7.295 1.139 10.341 3.299 3.903 2.768 6.498 6.889 7.301 11.605 0.805 4.716-0.276 9.465-3.044 13.371-3.354 4.729-8.824 7.556-14.633 7.556-3.72 0-7.295-1.143-10.341-3.299C18.29 54.326 15.695 50.204 14.893 45.485z" fill="#6a9fb5" data-fill-palette-color="quaternary"/>
                              <path d="M32.931 58.151c5.082 0 9.867-2.472 12.803-6.613 2.419-3.414 3.367-7.57 2.662-11.694-0.704-4.129-2.971-7.731-6.388-10.153-2.665-1.888-5.793-2.888-9.048-2.888-0.762 0-1.512 0.075-2.254 0.181l-8.551 26.836c0.542 0.517 1.111 1.003 1.728 1.444C26.551 57.154 29.677 58.151 32.931 58.151zM41.091 41.87c0.867 0 1.574 0.707 1.574 1.574 0 0.87-0.707 1.574-1.574 1.574-0.87 0-1.575-0.704-1.575-1.574C39.517 42.577 40.221 41.87 41.091 41.87zM38.81 46.042c0 1.149-0.933 2.077-2.079 2.077-1.148 0-2.078-0.928-2.078-2.077 0-1.148 0.93-2.076 2.078-2.076C37.877 43.966 38.81 44.894 38.81 46.042zM34.653 32.434c0.945 0 1.71 0.765 1.71 1.71 0 0.942-0.765 1.707-1.71 1.707-0.943 0-1.708-0.765-1.708-1.707C32.946 33.198 33.71 32.434 34.653 32.434zM28.842 49.598c0.715 0 1.294 0.582 1.294 1.294 0 0.717-0.579 1.294-1.294 1.294-0.717 0-1.293-0.577-1.293-1.294C27.548 50.18 28.125 49.598 28.842 49.598z" fill="#6a9fb5" data-fill-palette-color="quaternary"/>
                            </svg>
                            <g/>
                          </g>
                        </svg>
                      </g>
                    </svg>
                  </g>
                </svg>
              </g>
              <g/>
            </svg>
          </g>
        </svg>
        <rect width="238.36781935390334" height="247.2" fill="transparent" stroke="transparent"/>
      </g>
    </svg>
  </g>
</svg>
