<?xml version="1.0" encoding="UTF-8"?><svg xmlns="http://www.w3.org/2000/svg" xmlns:xlink="http://www.w3.org/1999/xlink" fill-opacity="1" color-rendering="auto" color-interpolation="auto" text-rendering="auto" stroke="black" stroke-linecap="square" width="362" stroke-miterlimit="10" shape-rendering="auto" stroke-opacity="1" fill="black" stroke-dasharray="none" font-weight="normal" stroke-width="1" height="345" font-family="'Dialog'" font-style="normal" stroke-linejoin="miter" font-size="12px" stroke-dashoffset="0" image-rendering="auto">
  <!--Generated by ySVG 2.6-->
  <defs id="genericDefs"/>
  <g>
    <defs id="defs1">
      <clipPath clipPathUnits="userSpaceOnUse" id="clipPath1">
        <path d="M0 0 L362 0 L362 345 L0 345 L0 0 Z"/>
      </clipPath>
      <clipPath clipPathUnits="userSpaceOnUse" id="clipPath2">
        <path d="M634 101 L996 101 L996 446 L634 446 L634 101 Z"/>
      </clipPath>
    </defs>
    <g fill="white" text-rendering="geometricPrecision" shape-rendering="geometricPrecision" transform="translate(-634,-101)" stroke="white">
      <rect x="634" width="362" height="345" y="101" clip-path="url(#clipPath2)" stroke="none"/>
    </g>
    <g fill="rgb(204,204,204)" text-rendering="geometricPrecision" shape-rendering="geometricPrecision" transform="matrix(1,0,0,1,-634,-101)" stroke="rgb(204,204,204)">
      <rect x="635" y="140" clip-path="url(#clipPath2)" width="110" rx="4" ry="4" height="25" stroke="none"/>
    </g>
    <g text-rendering="geometricPrecision" stroke-miterlimit="1.45" shape-rendering="geometricPrecision" font-weight="bold" transform="matrix(1,0,0,1,-634,-101)" stroke-linecap="butt">
      <text x="647.9877" xml:space="preserve" y="155.248" clip-path="url(#clipPath2)" stroke="none">Material object</text>
      <rect x="635" y="140" clip-path="url(#clipPath2)" fill="none" width="110" rx="4" ry="4" height="25"/>
    </g>
    <g fill="white" text-rendering="geometricPrecision" shape-rendering="geometricPrecision" transform="matrix(1,0,0,1,-634,-101)" stroke="white">
      <rect x="800" y="140" clip-path="url(#clipPath2)" width="194.56" rx="4" ry="4" height="25" stroke="none"/>
    </g>
    <g text-rendering="geometricPrecision" stroke-miterlimit="1.45" shape-rendering="geometricPrecision" font-weight="bold" transform="matrix(1,0,0,1,-634,-101)" stroke-linecap="butt">
      <text x="837.2676" xml:space="preserve" y="155.248" clip-path="url(#clipPath2)" stroke="none">Anatomical structure</text>
      <rect x="800" y="140" clip-path="url(#clipPath2)" fill="none" width="194.56" rx="4" ry="4" height="25"/>
    </g>
    <g fill="white" text-rendering="geometricPrecision" shape-rendering="geometricPrecision" transform="matrix(1,0,0,1,-634,-101)" stroke="white">
      <rect x="800" y="180" clip-path="url(#clipPath2)" width="194.56" rx="4" ry="4" height="25" stroke="none"/>
    </g>
    <g text-rendering="geometricPrecision" stroke-miterlimit="1.45" shape-rendering="geometricPrecision" font-weight="bold" transform="matrix(1,0,0,1,-634,-101)" stroke-linecap="butt">
      <text x="866.6078" xml:space="preserve" y="195.248" clip-path="url(#clipPath2)" stroke="none">Phenotype</text>
      <rect x="800" y="180" clip-path="url(#clipPath2)" fill="none" width="194.56" rx="4" ry="4" height="25"/>
    </g>
    <g fill="rgb(204,204,204)" text-rendering="geometricPrecision" shape-rendering="geometricPrecision" transform="matrix(1,0,0,1,-634,-101)" stroke="rgb(204,204,204)">
      <rect x="635" y="180" clip-path="url(#clipPath2)" width="110" rx="4" ry="4" height="25" stroke="none"/>
    </g>
    <g text-rendering="geometricPrecision" stroke-miterlimit="1.45" shape-rendering="geometricPrecision" font-weight="bold" transform="matrix(1,0,0,1,-634,-101)" stroke-linecap="butt">
      <text x="659.9998" xml:space="preserve" y="195.248" clip-path="url(#clipPath2)" stroke="none">Attributive</text>
      <rect x="635" y="180" clip-path="url(#clipPath2)" fill="none" width="110" rx="4" ry="4" height="25"/>
    </g>
    <g fill="rgb(204,204,204)" text-rendering="geometricPrecision" shape-rendering="geometricPrecision" transform="matrix(1,0,0,1,-634,-101)" stroke="rgb(204,204,204)">
      <rect x="635" y="300" clip-path="url(#clipPath2)" width="110" rx="4" ry="4" height="25" stroke="none"/>
    </g>
    <g text-rendering="geometricPrecision" stroke-miterlimit="1.45" shape-rendering="geometricPrecision" font-weight="bold" transform="matrix(1,0,0,1,-634,-101)" stroke-linecap="butt">
      <text x="652.3198" xml:space="preserve" y="315.248" clip-path="url(#clipPath2)" stroke="none">Space region</text>
      <rect x="635" y="300" clip-path="url(#clipPath2)" fill="none" width="110" rx="4" ry="4" height="25"/>
    </g>
    <g fill="rgb(204,204,204)" text-rendering="geometricPrecision" shape-rendering="geometricPrecision" transform="matrix(1,0,0,1,-634,-101)" stroke="rgb(204,204,204)">
      <rect x="635" y="380" clip-path="url(#clipPath2)" width="110" rx="4" ry="4" height="25" stroke="none"/>
    </g>
    <g text-rendering="geometricPrecision" stroke-miterlimit="1.45" shape-rendering="geometricPrecision" font-weight="bold" transform="matrix(1,0,0,1,-634,-101)" stroke-linecap="butt">
      <text x="657.6598" xml:space="preserve" y="395.248" clip-path="url(#clipPath2)" stroke="none">Line region</text>
      <rect x="635" y="380" clip-path="url(#clipPath2)" fill="none" width="110" rx="4" ry="4" height="25"/>
    </g>
    <g fill="white" text-rendering="geometricPrecision" shape-rendering="geometricPrecision" transform="matrix(1,0,0,1,-634,-101)" stroke="white">
      <rect x="800" y="220" clip-path="url(#clipPath2)" width="194.56" rx="4" ry="4" height="25" stroke="none"/>
    </g>
    <g text-rendering="geometricPrecision" stroke-miterlimit="1.45" shape-rendering="geometricPrecision" font-weight="bold" transform="matrix(1,0,0,1,-634,-101)" stroke-linecap="butt">
      <text x="838.9356" xml:space="preserve" y="235.248" clip-path="url(#clipPath2)" stroke="none">Anatomical property</text>
      <rect x="800" y="220" clip-path="url(#clipPath2)" fill="none" width="194.56" rx="4" ry="4" height="25"/>
    </g>
    <g fill="white" text-rendering="geometricPrecision" shape-rendering="geometricPrecision" transform="matrix(1,0,0,1,-634,-101)" stroke="white">
      <rect x="800" y="340" clip-path="url(#clipPath2)" width="194.56" rx="4" ry="4" height="25" stroke="none"/>
    </g>
    <g text-rendering="geometricPrecision" stroke-miterlimit="1.45" shape-rendering="geometricPrecision" font-weight="bold" transform="matrix(1,0,0,1,-634,-101)" stroke-linecap="butt">
      <text x="841.9296" xml:space="preserve" y="355.248" clip-path="url(#clipPath2)" stroke="none">Anatomical surface</text>
      <rect x="800" y="340" clip-path="url(#clipPath2)" fill="none" width="194.56" rx="4" ry="4" height="25"/>
    </g>
    <g fill="white" text-rendering="geometricPrecision" shape-rendering="geometricPrecision" transform="matrix(1,0,0,1,-634,-101)" stroke="white">
      <rect x="800" y="380" clip-path="url(#clipPath2)" width="194.56" rx="4" ry="4" height="25" stroke="none"/>
    </g>
    <g text-rendering="geometricPrecision" stroke-miterlimit="1.45" shape-rendering="geometricPrecision" font-weight="bold" transform="matrix(1,0,0,1,-634,-101)" stroke-linecap="butt">
      <text x="852.9337" xml:space="preserve" y="395.248" clip-path="url(#clipPath2)" stroke="none">Anatomical line</text>
      <rect x="800" y="380" clip-path="url(#clipPath2)" fill="none" width="194.56" rx="4" ry="4" height="25"/>
    </g>
    <g fill="white" text-rendering="geometricPrecision" shape-rendering="geometricPrecision" transform="matrix(1,0,0,1,-634,-101)" stroke="white">
      <rect x="800" y="300" clip-path="url(#clipPath2)" width="194.56" rx="4" ry="4" height="25" stroke="none"/>
    </g>
    <g text-rendering="geometricPrecision" stroke-miterlimit="1.45" shape-rendering="geometricPrecision" font-weight="bold" transform="matrix(1,0,0,1,-634,-101)" stroke-linecap="butt">
      <text x="846.2617" xml:space="preserve" y="315.248" clip-path="url(#clipPath2)" stroke="none">Anatomical space</text>
      <rect x="800" y="300" clip-path="url(#clipPath2)" fill="none" width="194.56" rx="4" ry="4" height="25"/>
    </g>
    <g fill="white" text-rendering="geometricPrecision" shape-rendering="geometricPrecision" transform="matrix(1,0,0,1,-634,-101)" stroke="white">
      <rect x="800" y="260" clip-path="url(#clipPath2)" width="194.56" rx="4" ry="4" height="25" stroke="none"/>
    </g>
    <g text-rendering="geometricPrecision" stroke-miterlimit="1.45" shape-rendering="geometricPrecision" font-weight="bold" transform="matrix(1,0,0,1,-634,-101)" stroke-linecap="butt">
      <text x="816.5854" xml:space="preserve" y="275.248" clip-path="url(#clipPath2)" stroke="none">Relative anatomical location</text>
      <rect x="800" y="260" clip-path="url(#clipPath2)" fill="none" width="194.56" rx="4" ry="4" height="25"/>
    </g>
    <g fill="rgb(204,204,204)" text-rendering="geometricPrecision" shape-rendering="geometricPrecision" transform="matrix(1,0,0,1,-634,-101)" stroke="rgb(204,204,204)">
      <rect x="635" y="260" clip-path="url(#clipPath2)" width="110" rx="4" ry="4" height="25" stroke="none"/>
    </g>
    <g text-rendering="geometricPrecision" stroke-miterlimit="1.45" shape-rendering="geometricPrecision" font-weight="bold" transform="matrix(1,0,0,1,-634,-101)" stroke-linecap="butt">
      <text x="669.3298" xml:space="preserve" y="275.248" clip-path="url(#clipPath2)" stroke="none">Relator</text>
      <rect x="635" y="260" clip-path="url(#clipPath2)" fill="none" width="110" rx="4" ry="4" height="25"/>
    </g>
    <g fill="rgb(204,204,204)" text-rendering="geometricPrecision" shape-rendering="geometricPrecision" transform="matrix(1,0,0,1,-634,-101)" stroke="rgb(204,204,204)">
      <rect x="635" y="420" clip-path="url(#clipPath2)" width="110" rx="4" ry="4" height="25" stroke="none"/>
    </g>
    <g text-rendering="geometricPrecision" stroke-miterlimit="1.45" shape-rendering="geometricPrecision" font-weight="bold" transform="matrix(1,0,0,1,-634,-101)" stroke-linecap="butt">
      <text x="654.9957" xml:space="preserve" y="435.248" clip-path="url(#clipPath2)" stroke="none">Point region</text>
      <rect x="635" y="420" clip-path="url(#clipPath2)" fill="none" width="110" rx="4" ry="4" height="25"/>
    </g>
    <g fill="rgb(204,204,204)" text-rendering="geometricPrecision" shape-rendering="geometricPrecision" transform="matrix(1,0,0,1,-634,-101)" stroke="rgb(204,204,204)">
      <rect x="635" y="340" clip-path="url(#clipPath2)" width="110" rx="4" ry="4" height="25" stroke="none"/>
    </g>
    <g text-rendering="geometricPrecision" stroke-miterlimit="1.45" shape-rendering="geometricPrecision" font-weight="bold" transform="matrix(1,0,0,1,-634,-101)" stroke-linecap="butt">
      <text x="647.9877" xml:space="preserve" y="355.248" clip-path="url(#clipPath2)" stroke="none">Surface region</text>
      <rect x="635" y="340" clip-path="url(#clipPath2)" fill="none" width="110" rx="4" ry="4" height="25"/>
    </g>
    <g fill="white" text-rendering="geometricPrecision" shape-rendering="geometricPrecision" transform="matrix(1,0,0,1,-634,-101)" stroke="white">
      <rect x="800" y="420" clip-path="url(#clipPath2)" width="194.56" rx="4" ry="4" height="25" stroke="none"/>
    </g>
    <g text-rendering="geometricPrecision" stroke-miterlimit="1.45" shape-rendering="geometricPrecision" font-weight="bold" transform="matrix(1,0,0,1,-634,-101)" stroke-linecap="butt">
      <text x="848.6077" xml:space="preserve" y="435.248" clip-path="url(#clipPath2)" stroke="none">Anatomical point</text>
      <rect x="800" y="420" clip-path="url(#clipPath2)" fill="none" width="194.56" rx="4" ry="4" height="25"/>
      <rect x="635" y="102.3708" clip-path="url(#clipPath2)" fill="none" width="110" stroke-dasharray="6,2" height="30.1292"/>
    </g>
    <g fill="rgb(204,204,204)" text-rendering="geometricPrecision" shape-rendering="geometricPrecision" transform="matrix(1,0,0,1,-634,-101)" stroke="rgb(204,204,204)">
      <rect x="641.3426" y="107.4354" clip-path="url(#clipPath2)" width="45" rx="4" ry="4" height="20" stroke="none"/>
    </g>
    <g text-rendering="geometricPrecision" stroke-miterlimit="1.45" shape-rendering="geometricPrecision" font-family="sans-serif" transform="matrix(1,0,0,1,-634,-101)" stroke-linecap="butt">
      <text x="650.8405" xml:space="preserve" y="120.1834" clip-path="url(#clipPath2)" stroke="none">GFO</text>
      <rect x="641.3426" y="107.4354" clip-path="url(#clipPath2)" fill="none" width="45" rx="4" ry="4" height="20"/>
    </g>
    <g fill="white" text-rendering="geometricPrecision" shape-rendering="geometricPrecision" transform="matrix(1,0,0,1,-634,-101)" stroke="white">
      <rect x="693.5033" y="107.4354" clip-path="url(#clipPath2)" width="45" rx="4" ry="4" height="20" stroke="none"/>
    </g>
    <g text-rendering="geometricPrecision" stroke-miterlimit="1.45" shape-rendering="geometricPrecision" font-family="sans-serif" transform="matrix(1,0,0,1,-634,-101)" stroke-linecap="butt">
      <text x="698.6692" xml:space="preserve" y="120.1834" clip-path="url(#clipPath2)" stroke="none">ANNO</text>
      <rect x="693.5033" y="107.4354" clip-path="url(#clipPath2)" fill="none" width="45" rx="4" ry="4" height="20"/>
      <path fill="none" d="M799.991 152.5 L760.0223 152.5" clip-path="url(#clipPath2)"/>
      <path fill="white" d="M745.0223 152.5 L761.0223 158.5 L761.0223 146.5 Z" clip-path="url(#clipPath2)" stroke="none"/>
      <path fill="none" d="M745.0223 152.5 L761.0223 158.5 L761.0223 146.5 Z" clip-path="url(#clipPath2)"/>
      <path fill="none" d="M799.991 192.5 L760.0223 192.5" clip-path="url(#clipPath2)"/>
      <path fill="white" d="M745.0223 192.5 L761.0223 198.5 L761.0223 186.5 Z" clip-path="url(#clipPath2)" stroke="none"/>
      <path fill="none" d="M745.0223 192.5 L761.0223 198.5 L761.0223 186.5 Z" clip-path="url(#clipPath2)"/>
      <path fill="none" d="M800.0225 232.5 L778.4 232.5 L778.4 192.5 L760.0342 192.5" clip-path="url(#clipPath2)"/>
      <path fill="white" d="M745.0342 192.5 L761.0342 198.5 L761.0342 186.5 Z" clip-path="url(#clipPath2)" stroke="none"/>
      <path fill="none" d="M745.0342 192.5 L761.0342 198.5 L761.0342 186.5 Z" clip-path="url(#clipPath2)"/>
      <path fill="none" d="M799.991 392.5 L760.0223 392.5" clip-path="url(#clipPath2)"/>
      <path fill="white" d="M745.0223 392.5 L761.0223 398.5 L761.0223 386.5 Z" clip-path="url(#clipPath2)" stroke="none"/>
      <path fill="none" d="M745.0223 392.5 L761.0223 398.5 L761.0223 386.5 Z" clip-path="url(#clipPath2)"/>
      <path fill="none" d="M799.991 312.5 L760.0223 312.5" clip-path="url(#clipPath2)"/>
      <path fill="white" d="M745.0223 312.5 L761.0223 318.5 L761.0223 306.5 Z" clip-path="url(#clipPath2)" stroke="none"/>
      <path fill="none" d="M745.0223 312.5 L761.0223 318.5 L761.0223 306.5 Z" clip-path="url(#clipPath2)"/>
      <path fill="none" d="M799.991 272.5 L760.0223 272.5" clip-path="url(#clipPath2)"/>
      <path fill="white" d="M745.0223 272.5 L761.0223 278.5 L761.0223 266.5 Z" clip-path="url(#clipPath2)" stroke="none"/>
      <path fill="none" d="M745.0223 272.5 L761.0223 278.5 L761.0223 266.5 Z" clip-path="url(#clipPath2)"/>
      <path fill="none" d="M799.9901 352.5 L759.9748 352.5" clip-path="url(#clipPath2)"/>
      <path fill="white" d="M744.9748 352.5 L760.9748 358.5 L760.9748 346.5 Z" clip-path="url(#clipPath2)" stroke="none"/>
      <path fill="none" d="M744.9748 352.5 L760.9748 358.5 L760.9748 346.5 Z" clip-path="url(#clipPath2)"/>
      <path fill="none" d="M799.991 432.5 L760.0223 432.5" clip-path="url(#clipPath2)"/>
      <path fill="white" d="M745.0223 432.5 L761.0223 438.5 L761.0223 426.5 Z" clip-path="url(#clipPath2)" stroke="none"/>
      <path fill="none" d="M745.0223 432.5 L761.0223 438.5 L761.0223 426.5 Z" clip-path="url(#clipPath2)"/>
    </g>
  </g>
</svg>
