<?xml version="1.0" encoding="UTF-8"?><svg xmlns="http://www.w3.org/2000/svg" xmlns:xlink="http://www.w3.org/1999/xlink" fill-opacity="1" color-rendering="auto" color-interpolation="auto" text-rendering="auto" stroke="black" stroke-linecap="square" width="752" stroke-miterlimit="10" shape-rendering="auto" stroke-opacity="1" fill="black" stroke-dasharray="none" font-weight="normal" stroke-width="1" height="516" font-family="'Dialog'" font-style="normal" stroke-linejoin="miter" font-size="12px" stroke-dashoffset="0" image-rendering="auto">
  <!--Generated by ySVG 2.6-->
  <defs id="genericDefs"/>
  <g>
    <defs id="defs1">
      <clipPath clipPathUnits="userSpaceOnUse" id="clipPath1">
        <path d="M0 0 L752 0 L752 516 L0 516 L0 0 Z"/>
      </clipPath>
      <clipPath clipPathUnits="userSpaceOnUse" id="clipPath2">
        <path d="M1139 636 L1891 636 L1891 1152 L1139 1152 L1139 636 Z"/>
      </clipPath>
    </defs>
    <g fill="white" text-rendering="geometricPrecision" shape-rendering="geometricPrecision" transform="translate(-1139,-636)" stroke="white">
      <rect x="1139" width="752" height="516" y="636" clip-path="url(#clipPath2)" stroke="none"/>
    </g>
    <g fill="white" text-rendering="geometricPrecision" shape-rendering="geometricPrecision" transform="matrix(1,0,0,1,-1139,-636)" stroke="white">
      <rect x="1140.58" y="962" clip-path="url(#clipPath2)" width="194.88" rx="4" ry="4" height="25" stroke="none"/>
    </g>
    <g text-rendering="geometricPrecision" stroke-miterlimit="1.45" shape-rendering="geometricPrecision" font-weight="bold" transform="matrix(1,0,0,1,-1139,-636)" stroke-linecap="butt">
      <text x="1188.0096" xml:space="preserve" y="977.248" clip-path="url(#clipPath2)" stroke="none">Anatomical entity</text>
      <rect x="1140.58" y="962" clip-path="url(#clipPath2)" fill="none" width="194.88" rx="4" ry="4" height="25"/>
    </g>
    <g fill="white" text-rendering="geometricPrecision" shape-rendering="geometricPrecision" transform="matrix(1,0,0,1,-1139,-636)" stroke="white">
      <rect x="1375.46" y="962" clip-path="url(#clipPath2)" width="182.04" rx="4" ry="4" height="25" stroke="none"/>
    </g>
    <g text-rendering="geometricPrecision" stroke-miterlimit="1.45" shape-rendering="geometricPrecision" font-weight="bold" transform="matrix(1,0,0,1,-1139,-636)" stroke-linecap="butt">
      <text x="1396.1235" xml:space="preserve" y="977.248" clip-path="url(#clipPath2)" stroke="none">Spatial anatomical entity</text>
      <rect x="1375.46" y="962" clip-path="url(#clipPath2)" fill="none" width="182.04" rx="4" ry="4" height="25"/>
    </g>
    <g fill="white" text-rendering="geometricPrecision" shape-rendering="geometricPrecision" transform="matrix(1,0,0,1,-1139,-636)" stroke="white">
      <rect x="1597.5" y="1092" clip-path="url(#clipPath2)" width="130" rx="4" ry="4" height="25" stroke="none"/>
    </g>
    <g text-rendering="geometricPrecision" stroke-miterlimit="1.45" shape-rendering="geometricPrecision" font-weight="bold" transform="matrix(1,0,0,1,-1139,-636)" stroke-linecap="butt">
      <text x="1613.8276" xml:space="preserve" y="1107.248" clip-path="url(#clipPath2)" stroke="none">Anatomical point</text>
      <rect x="1597.5" y="1092" clip-path="url(#clipPath2)" fill="none" width="130" rx="4" ry="4" height="25"/>
    </g>
    <g fill="white" text-rendering="geometricPrecision" shape-rendering="geometricPrecision" transform="matrix(1,0,0,1,-1139,-636)" stroke="white">
      <rect x="1597.5" y="1027" clip-path="url(#clipPath2)" width="130" rx="4" ry="4" height="25" stroke="none"/>
    </g>
    <g text-rendering="geometricPrecision" stroke-miterlimit="1.45" shape-rendering="geometricPrecision" font-weight="bold" transform="matrix(1,0,0,1,-1139,-636)" stroke-linecap="butt">
      <text x="1618.1537" xml:space="preserve" y="1042.248" clip-path="url(#clipPath2)" stroke="none">Anatomical line</text>
      <rect x="1597.5" y="1027" clip-path="url(#clipPath2)" fill="none" width="130" rx="4" ry="4" height="25"/>
    </g>
    <g fill="white" text-rendering="geometricPrecision" shape-rendering="geometricPrecision" transform="matrix(1,0,0,1,-1139,-636)" stroke="white">
      <rect x="1597.5" y="962" clip-path="url(#clipPath2)" width="130" rx="4" ry="4" height="25" stroke="none"/>
    </g>
    <g text-rendering="geometricPrecision" stroke-miterlimit="1.45" shape-rendering="geometricPrecision" font-weight="bold" transform="matrix(1,0,0,1,-1139,-636)" stroke-linecap="butt">
      <text x="1607.1497" xml:space="preserve" y="977.248" clip-path="url(#clipPath2)" stroke="none">Anatomical surface</text>
      <rect x="1597.5" y="962" clip-path="url(#clipPath2)" fill="none" width="130" rx="4" ry="4" height="25"/>
    </g>
    <g fill="white" text-rendering="geometricPrecision" shape-rendering="geometricPrecision" transform="matrix(1,0,0,1,-1139,-636)" stroke="white">
      <rect x="1597.5" y="897" clip-path="url(#clipPath2)" width="130" rx="4" ry="4" height="25" stroke="none"/>
    </g>
    <g text-rendering="geometricPrecision" stroke-miterlimit="1.45" shape-rendering="geometricPrecision" font-weight="bold" transform="matrix(1,0,0,1,-1139,-636)" stroke-linecap="butt">
      <text x="1611.4817" xml:space="preserve" y="912.248" clip-path="url(#clipPath2)" stroke="none">Anatomical space</text>
      <rect x="1597.5" y="897" clip-path="url(#clipPath2)" fill="none" width="130" rx="4" ry="4" height="25"/>
    </g>
    <g fill="white" text-rendering="geometricPrecision" shape-rendering="geometricPrecision" transform="matrix(1,0,0,1,-1139,-636)" stroke="white">
      <rect x="1762.5" y="702" clip-path="url(#clipPath2)" width="110" rx="4" ry="4" height="25" stroke="none"/>
    </g>
    <g text-rendering="geometricPrecision" stroke-miterlimit="1.45" shape-rendering="geometricPrecision" font-weight="bold" transform="matrix(1,0,0,1,-1139,-636)" stroke-linecap="butt">
      <text x="1802.4999" xml:space="preserve" y="717.248" clip-path="url(#clipPath2)" stroke="none">Bone</text>
      <rect x="1762.5" y="702" clip-path="url(#clipPath2)" fill="none" width="110" rx="4" ry="4" height="25"/>
    </g>
    <g fill="white" text-rendering="geometricPrecision" shape-rendering="geometricPrecision" transform="matrix(1,0,0,1,-1139,-636)" stroke="white">
      <rect x="1762.5" y="767" clip-path="url(#clipPath2)" width="110" rx="4" ry="4" height="25" stroke="none"/>
    </g>
    <g text-rendering="geometricPrecision" stroke-miterlimit="1.45" shape-rendering="geometricPrecision" font-weight="bold" transform="matrix(1,0,0,1,-1139,-636)" stroke-linecap="butt">
      <text x="1770.1656" xml:space="preserve" y="782.248" clip-path="url(#clipPath2)" stroke="none">Bone compound</text>
      <rect x="1762.5" y="767" clip-path="url(#clipPath2)" fill="none" width="110" rx="4" ry="4" height="25"/>
    </g>
    <g fill="white" text-rendering="geometricPrecision" shape-rendering="geometricPrecision" transform="matrix(1,0,0,1,-1139,-636)" stroke="white">
      <rect x="1597.5" y="832" clip-path="url(#clipPath2)" width="130" rx="4" ry="4" height="25" stroke="none"/>
    </g>
    <g text-rendering="geometricPrecision" stroke-miterlimit="1.45" shape-rendering="geometricPrecision" font-weight="bold" transform="matrix(1,0,0,1,-1139,-636)" stroke-linecap="butt">
      <text x="1618.1656" xml:space="preserve" y="847.248" clip-path="url(#clipPath2)" stroke="none">Tooth structure</text>
      <rect x="1597.5" y="832" clip-path="url(#clipPath2)" fill="none" width="130" rx="4" ry="4" height="25"/>
    </g>
    <g fill="white" text-rendering="geometricPrecision" shape-rendering="geometricPrecision" transform="matrix(1,0,0,1,-1139,-636)" stroke="white">
      <rect x="1375.46" y="767" clip-path="url(#clipPath2)" width="182.04" rx="4" ry="4" height="25" stroke="none"/>
    </g>
    <g text-rendering="geometricPrecision" stroke-miterlimit="1.45" shape-rendering="geometricPrecision" font-weight="bold" transform="matrix(1,0,0,1,-1139,-636)" stroke-linecap="butt">
      <text x="1406.4675" xml:space="preserve" y="782.248" clip-path="url(#clipPath2)" stroke="none">Anatomical structure</text>
      <rect x="1375.46" y="767" clip-path="url(#clipPath2)" fill="none" width="182.04" rx="4" ry="4" height="25"/>
    </g>
    <g fill="white" text-rendering="geometricPrecision" shape-rendering="geometricPrecision" transform="matrix(1,0,0,1,-1139,-636)" stroke="white">
      <rect x="1597.5" y="702" clip-path="url(#clipPath2)" width="130" rx="4" ry="4" height="25" stroke="none"/>
    </g>
    <g text-rendering="geometricPrecision" stroke-miterlimit="1.45" shape-rendering="geometricPrecision" font-weight="bold" transform="matrix(1,0,0,1,-1139,-636)" stroke-linecap="butt">
      <text x="1619.8278" xml:space="preserve" y="717.248" clip-path="url(#clipPath2)" stroke="none">Bone structure</text>
      <rect x="1597.5" y="702" clip-path="url(#clipPath2)" fill="none" width="130" rx="4" ry="4" height="25"/>
    </g>
    <g fill="white" text-rendering="geometricPrecision" shape-rendering="geometricPrecision" transform="matrix(1,0,0,1,-1139,-636)" stroke="white">
      <rect x="1767.5" y="832" clip-path="url(#clipPath2)" width="122.4" rx="4" ry="4" height="25" stroke="none"/>
    </g>
    <g text-rendering="geometricPrecision" stroke-miterlimit="1.45" shape-rendering="geometricPrecision" font-weight="bold" transform="matrix(1,0,0,1,-1139,-636)" stroke-linecap="butt">
      <text x="1812.0378" xml:space="preserve" y="847.248" clip-path="url(#clipPath2)" stroke="none">Tooth</text>
      <rect x="1767.5" y="832" clip-path="url(#clipPath2)" fill="none" width="122.4" rx="4" ry="4" height="25"/>
    </g>
    <g fill="white" text-rendering="geometricPrecision" shape-rendering="geometricPrecision" transform="matrix(1,0,0,1,-1139,-636)" stroke="white">
      <rect x="1767.5" y="962" clip-path="url(#clipPath2)" width="122.4" rx="4" ry="4" height="25" stroke="none"/>
    </g>
    <g text-rendering="geometricPrecision" stroke-miterlimit="1.45" shape-rendering="geometricPrecision" font-weight="bold" transform="matrix(1,0,0,1,-1139,-636)" stroke-linecap="butt">
      <text x="1779.0197" xml:space="preserve" y="977.248" clip-path="url(#clipPath2)" stroke="none">Anatomical plane</text>
      <rect x="1767.5" y="962" clip-path="url(#clipPath2)" fill="none" width="122.4" rx="4" ry="4" height="25"/>
    </g>
    <g fill="white" text-rendering="geometricPrecision" shape-rendering="geometricPrecision" transform="matrix(1,0,0,1,-1139,-636)" stroke="white">
      <rect x="1767.5" y="1027" clip-path="url(#clipPath2)" width="122.4" rx="4" ry="4" height="25" stroke="none"/>
    </g>
    <g text-rendering="geometricPrecision" stroke-miterlimit="1.45" shape-rendering="geometricPrecision" font-weight="bold" transform="matrix(1,0,0,1,-1139,-636)" stroke-linecap="butt">
      <text x="1783.0156" xml:space="preserve" y="1042.248" clip-path="url(#clipPath2)" stroke="none">Anatomical axis</text>
      <rect x="1767.5" y="1027" clip-path="url(#clipPath2)" fill="none" width="122.4" rx="4" ry="4" height="25"/>
    </g>
    <g fill="white" text-rendering="geometricPrecision" shape-rendering="geometricPrecision" transform="matrix(1,0,0,1,-1139,-636)" stroke="white">
      <rect x="1375.46" y="702" clip-path="url(#clipPath2)" width="182.04" rx="4" ry="4" height="25" stroke="none"/>
    </g>
    <g text-rendering="geometricPrecision" stroke-miterlimit="1.45" shape-rendering="geometricPrecision" font-weight="bold" transform="matrix(1,0,0,1,-1139,-636)" stroke-linecap="butt">
      <text x="1408.1356" xml:space="preserve" y="717.248" clip-path="url(#clipPath2)" stroke="none">Anatomical property</text>
      <rect x="1375.46" y="702" clip-path="url(#clipPath2)" fill="none" width="182.04" rx="4" ry="4" height="25"/>
    </g>
    <g fill="white" text-rendering="geometricPrecision" shape-rendering="geometricPrecision" transform="matrix(1,0,0,1,-1139,-636)" stroke="white">
      <rect x="1140.58" y="767" clip-path="url(#clipPath2)" width="194.88" rx="4" ry="4" height="25" stroke="none"/>
    </g>
    <g text-rendering="geometricPrecision" stroke-miterlimit="1.45" shape-rendering="geometricPrecision" font-weight="bold" transform="matrix(1,0,0,1,-1139,-636)" stroke-linecap="butt">
      <text x="1207.3478" xml:space="preserve" y="782.248" clip-path="url(#clipPath2)" stroke="none">Phenotype</text>
      <rect x="1140.58" y="767" clip-path="url(#clipPath2)" fill="none" width="194.88" rx="4" ry="4" height="25"/>
    </g>
    <g fill="white" text-rendering="geometricPrecision" shape-rendering="geometricPrecision" transform="matrix(1,0,0,1,-1139,-636)" stroke="white">
      <rect x="1140.58" y="1092" clip-path="url(#clipPath2)" width="194.88" rx="4" ry="4" height="25" stroke="none"/>
    </g>
    <g text-rendering="geometricPrecision" stroke-miterlimit="1.45" shape-rendering="geometricPrecision" font-weight="bold" transform="matrix(1,0,0,1,-1139,-636)" stroke-linecap="butt">
      <text x="1157.3254" xml:space="preserve" y="1107.248" clip-path="url(#clipPath2)" stroke="none">Relative anatomical location</text>
      <rect x="1140.58" y="1092" clip-path="url(#clipPath2)" fill="none" width="194.88" rx="4" ry="4" height="25"/>
      <rect x="1140.58" y="637" clip-path="url(#clipPath2)" fill="none" width="175" stroke-dasharray="6,2" height="30.1292"/>
    </g>
    <g fill="white" text-rendering="geometricPrecision" shape-rendering="geometricPrecision" transform="matrix(1,0,0,1,-1139,-636)" stroke="white">
      <rect x="1762.5" y="637" clip-path="url(#clipPath2)" width="110" rx="4" ry="4" height="25" stroke="none"/>
    </g>
    <g text-rendering="geometricPrecision" stroke-miterlimit="1.45" shape-rendering="geometricPrecision" font-weight="bold" transform="matrix(1,0,0,1,-1139,-636)" stroke-linecap="butt">
      <text x="1789.4978" xml:space="preserve" y="652.248" clip-path="url(#clipPath2)" stroke="none">Bone part</text>
      <rect x="1762.5" y="637" clip-path="url(#clipPath2)" fill="none" width="110" rx="4" ry="4" height="25"/>
    </g>
    <g fill="white" text-rendering="geometricPrecision" shape-rendering="geometricPrecision" transform="matrix(1,0,0,1,-1139,-636)" stroke="white">
      <rect x="1767.5" y="897" clip-path="url(#clipPath2)" width="122.4" rx="4" ry="4" height="25" stroke="none"/>
    </g>
    <g text-rendering="geometricPrecision" stroke-miterlimit="1.45" shape-rendering="geometricPrecision" font-weight="bold" transform="matrix(1,0,0,1,-1139,-636)" stroke-linecap="butt">
      <text x="1799.0358" xml:space="preserve" y="912.248" clip-path="url(#clipPath2)" stroke="none">Tooth part</text>
      <rect x="1767.5" y="897" clip-path="url(#clipPath2)" fill="none" width="122.4" rx="4" ry="4" height="25"/>
    </g>
    <g fill="white" text-rendering="geometricPrecision" shape-rendering="geometricPrecision" transform="matrix(1,0,0,1,-1139,-636)" stroke="white">
      <rect x="1767.5" y="1092" clip-path="url(#clipPath2)" width="122.4" rx="4" ry="4" height="25" stroke="none"/>
    </g>
    <g text-rendering="geometricPrecision" stroke-miterlimit="1.45" shape-rendering="geometricPrecision" font-weight="bold" transform="matrix(1,0,0,1,-1139,-636)" stroke-linecap="butt">
      <text x="1773.6917" xml:space="preserve" y="1107.248" clip-path="url(#clipPath2)" stroke="none">Measurement point</text>
      <rect x="1767.5" y="1092" clip-path="url(#clipPath2)" fill="none" width="122.4" rx="4" ry="4" height="25"/>
    </g>
    <g fill="white" text-rendering="geometricPrecision" shape-rendering="geometricPrecision" transform="matrix(1,0,0,1,-1139,-636)" stroke="white">
      <rect x="1767.5" y="1125.8" clip-path="url(#clipPath2)" width="122.4" rx="4" ry="4" height="25" stroke="none"/>
    </g>
    <g text-rendering="geometricPrecision" stroke-miterlimit="1.45" shape-rendering="geometricPrecision" font-weight="bold" transform="matrix(1,0,0,1,-1139,-636)" stroke-linecap="butt">
      <text x="1780.3636" xml:space="preserve" y="1141.048" clip-path="url(#clipPath2)" stroke="none">Orientation point</text>
      <rect x="1767.5" y="1125.8" clip-path="url(#clipPath2)" fill="none" width="122.4" rx="4" ry="4" height="25"/>
    </g>
    <g fill="white" text-rendering="geometricPrecision" shape-rendering="geometricPrecision" transform="matrix(1,0,0,1,-1139,-636)" stroke="white">
      <rect x="1597.5" y="767" clip-path="url(#clipPath2)" width="130" rx="4" ry="4" height="25" stroke="none"/>
    </g>
    <g text-rendering="geometricPrecision" stroke-miterlimit="1.45" shape-rendering="geometricPrecision" font-weight="bold" transform="matrix(1,0,0,1,-1139,-636)" stroke-linecap="butt">
      <text x="1637.4918" xml:space="preserve" y="782.248" clip-path="url(#clipPath2)" stroke="none">Skeleton</text>
      <rect x="1597.5" y="767" clip-path="url(#clipPath2)" fill="none" width="130" rx="4" ry="4" height="25"/>
      <path fill="none" d="M1375.4132 974.5 L1350.46 974.5" clip-path="url(#clipPath2)"/>
      <path fill="white" d="M1335.46 974.5 L1351.46 980.5 L1351.46 968.5 Z" clip-path="url(#clipPath2)" stroke="none"/>
      <path fill="none" d="M1335.46 974.5 L1351.46 980.5 L1351.46 968.5 Z" clip-path="url(#clipPath2)"/>
      <path fill="none" d="M1597.4697 1104.5 L1582 1104.5 L1582 974.5 L1572.5479 974.5" clip-path="url(#clipPath2)"/>
      <path fill="white" d="M1557.5479 974.5 L1573.5479 980.5 L1573.5479 968.5 Z" clip-path="url(#clipPath2)" stroke="none"/>
      <path fill="none" d="M1557.5479 974.5 L1573.5479 980.5 L1573.5479 968.5 Z" clip-path="url(#clipPath2)"/>
      <path fill="none" d="M1662.5 1092.0269 L1662.5 1059.9905" clip-path="url(#clipPath2)"/>
      <path d="M1662.5 1051.9905 L1657.5 1063.9905 L1662.5 1060.9905 L1667.5 1063.9905 Z" clip-path="url(#clipPath2)" stroke="none"/>
      <text x="1595.7996" y="1076.6229" clip-path="url(#clipPath2)" font-family="sans-serif" stroke="none" font-weight="normal" xml:space="preserve">boundaryOf</text>
      <path fill="none" d="M1597.4697 1039.5 L1582 1039.5 L1582 974.5 L1572.5479 974.5" clip-path="url(#clipPath2)"/>
      <path fill="white" d="M1557.5479 974.5 L1573.5479 980.5 L1573.5479 968.5 Z" clip-path="url(#clipPath2)" stroke="none"/>
      <path fill="none" d="M1557.5479 974.5 L1573.5479 980.5 L1573.5479 968.5 Z" clip-path="url(#clipPath2)"/>
      <path fill="none" d="M1682.5 1051.9731 L1682.5 1084.0095" clip-path="url(#clipPath2)"/>
      <path d="M1682.5 1092.0095 L1687.5 1080.0095 L1682.5 1083.0095 L1677.5 1080.0095 Z" clip-path="url(#clipPath2)" stroke="none"/>
      <text x="1686.5" y="1072.873" clip-path="url(#clipPath2)" font-family="sans-serif" stroke="none" font-weight="normal" xml:space="preserve">startsOn / passesThrough / endsOn</text>
      <path fill="none" d="M1662.5 1027.0269 L1662.5 994.9905" clip-path="url(#clipPath2)"/>
      <path d="M1662.5 986.9905 L1657.5 998.9905 L1662.5 995.9905 L1667.5 998.9905 Z" clip-path="url(#clipPath2)" stroke="none"/>
      <text x="1595.7996" y="1011.623" clip-path="url(#clipPath2)" font-family="sans-serif" stroke="none" font-weight="normal" xml:space="preserve">boundaryOf</text>
      <path fill="none" d="M1597.4609 974.5 L1572.5391 974.5" clip-path="url(#clipPath2)"/>
      <path fill="white" d="M1557.5391 974.5 L1573.5391 980.5 L1573.5391 968.5 Z" clip-path="url(#clipPath2)" stroke="none"/>
      <path fill="none" d="M1557.5391 974.5 L1573.5391 980.5 L1573.5391 968.5 Z" clip-path="url(#clipPath2)"/>
      <path fill="none" d="M1662.5 962.0269 L1662.5 929.9905" clip-path="url(#clipPath2)"/>
      <path d="M1662.5 921.9905 L1657.5 933.9905 L1662.5 930.9905 L1667.5 933.9905 Z" clip-path="url(#clipPath2)" stroke="none"/>
      <text x="1595.7996" y="946.623" clip-path="url(#clipPath2)" font-family="sans-serif" stroke="none" font-weight="normal" xml:space="preserve">boundaryOf</text>
      <path fill="none" d="M1597.4697 909.5 L1582 909.5 L1582 974.5 L1572.5479 974.5" clip-path="url(#clipPath2)"/>
      <path fill="white" d="M1557.5479 974.5 L1573.5479 980.5 L1573.5479 968.5 Z" clip-path="url(#clipPath2)" stroke="none"/>
      <path fill="none" d="M1557.5479 974.5 L1573.5479 980.5 L1573.5479 968.5 Z" clip-path="url(#clipPath2)"/>
      <path fill="none" d="M1817.5 767.0269 L1817.5 734.9905" clip-path="url(#clipPath2)"/>
      <path d="M1817.5 726.9905 L1812.5 738.9905 L1817.5 735.9905 L1822.5 738.9905 Z" clip-path="url(#clipPath2)" stroke="none"/>
      <text x="1772.1477" y="751.623" clip-path="url(#clipPath2)" font-family="sans-serif" stroke="none" font-weight="normal" xml:space="preserve">hasPart</text>
      <path fill="none" d="M1597.4697 844.5 L1582 844.5 L1582 779.5 L1572.5479 779.5" clip-path="url(#clipPath2)"/>
      <path fill="white" d="M1557.5479 779.5 L1573.5479 785.5 L1573.5479 773.5 Z" clip-path="url(#clipPath2)" stroke="none"/>
      <path fill="none" d="M1557.5479 779.5 L1573.5479 785.5 L1573.5479 773.5 Z" clip-path="url(#clipPath2)"/>
      <path fill="none" d="M1466.48 961.9792 L1466.48 800.0187" clip-path="url(#clipPath2)"/>
      <path d="M1466.48 792.0187 L1461.48 804.0187 L1466.48 801.0187 L1471.48 804.0187 Z" clip-path="url(#clipPath2)" stroke="none"/>
      <rect x="1425.7977" y="869" clip-path="url(#clipPath2)" fill="white" width="81.3645" height="16.0001" stroke="none"/>
      <text x="1427.7977" y="879.748" clip-path="url(#clipPath2)" font-family="sans-serif" stroke="none" font-weight="normal" xml:space="preserve">spatialEntityOf</text>
      <path fill="none" d="M1375.4763 779.5 L1359.96 779.5 L1359.96 974.5 L1350.46 974.5" clip-path="url(#clipPath2)"/>
      <path fill="white" d="M1335.46 974.5 L1351.46 980.5 L1351.46 968.5 Z" clip-path="url(#clipPath2)" stroke="none"/>
      <path fill="none" d="M1335.46 974.5 L1351.46 980.5 L1351.46 968.5 Z" clip-path="url(#clipPath2)"/>
      <path fill="none" d="M1530 792.008 L1530 877 L1662.5 877 L1662.5 889.0269" clip-path="url(#clipPath2)"/>
      <path d="M1662.5 897.0269 L1667.5 885.0269 L1662.5 888.0269 L1657.5 885.0269 Z" clip-path="url(#clipPath2)" stroke="none"/>
      <rect x="1570.5738" y="869" clip-path="url(#clipPath2)" fill="white" width="51.3523" height="16.0001" stroke="none"/>
      <text x="1572.5739" y="879.748" clip-path="url(#clipPath2)" font-family="sans-serif" stroke="none" font-weight="normal" xml:space="preserve">occupies</text>
      <path fill="none" d="M1762.5317 779.5 L1747.5 779.5 L1747.5 714.5 L1742.5 714.5" clip-path="url(#clipPath2)"/>
      <path fill="white" d="M1727.5 714.5 L1743.5 720.5 L1743.5 708.5 Z" clip-path="url(#clipPath2)" stroke="none"/>
      <path fill="none" d="M1727.5 714.5 L1743.5 720.5 L1743.5 708.5 Z" clip-path="url(#clipPath2)"/>
      <path fill="none" d="M1756.3 714.5 L1747.5 714.5 L1747.5 714.5 L1747.5 714.5 L1742.5 714.5" clip-path="url(#clipPath2)"/>
      <path fill="white" d="M1727.5 714.5 L1743.5 720.5 L1743.5 708.5 Z" clip-path="url(#clipPath2)" stroke="none"/>
      <path fill="none" d="M1727.5 714.5 L1743.5 720.5 L1743.5 708.5 Z" clip-path="url(#clipPath2)"/>
      <path fill="none" d="M1680.9897 832.0074 L1734.0824 796.1357 L1734.0824 762.7064 L1687.6953 731.4675" clip-path="url(#clipPath2)"/>
      <path d="M1681.0597 726.9988 L1688.2202 737.8491 L1688.5248 732.0261 L1693.806 729.5545 Z" clip-path="url(#clipPath2)" stroke="none"/>
      <text x="1730.135" y="812.2534" clip-path="url(#clipPath2)" font-family="sans-serif" stroke="none" font-weight="normal" xml:space="preserve">locatedOn</text>
      <path fill="none" d="M1597.4697 714.5 L1582 714.5 L1582 779.5 L1572.5479 779.5" clip-path="url(#clipPath2)"/>
      <path fill="white" d="M1557.5479 779.5 L1573.5479 785.5 L1573.5479 773.5 Z" clip-path="url(#clipPath2)" stroke="none"/>
      <path fill="none" d="M1557.5479 779.5 L1573.5479 785.5 L1573.5479 773.5 Z" clip-path="url(#clipPath2)"/>
      <path fill="none" d="M1767.4697 844.5 L1752 844.5 L1742.4836 844.5" clip-path="url(#clipPath2)"/>
      <path fill="white" d="M1727.4836 844.5 L1743.4836 850.5 L1743.4836 838.5 Z" clip-path="url(#clipPath2)" stroke="none"/>
      <path fill="none" d="M1727.4836 844.5 L1743.4836 850.5 L1743.4836 838.5 Z" clip-path="url(#clipPath2)"/>
      <path fill="none" d="M1767.4609 974.5 L1742.5 974.5" clip-path="url(#clipPath2)"/>
      <path fill="white" d="M1727.5 974.5 L1743.5 980.5 L1743.5 968.5 Z" clip-path="url(#clipPath2)" stroke="none"/>
      <path fill="none" d="M1727.5 974.5 L1743.5 980.5 L1743.5 968.5 Z" clip-path="url(#clipPath2)"/>
      <path fill="none" d="M1828.7 986.9731 L1828.7 1019.0095" clip-path="url(#clipPath2)"/>
      <path d="M1828.7 1027.0095 L1833.7 1015.0095 L1828.7 1018.0095 L1823.7 1015.0095 Z" clip-path="url(#clipPath2)" stroke="none"/>
      <text x="1753.9955" y="1009.748" clip-path="url(#clipPath2)" font-family="sans-serif" stroke="none" font-weight="normal" xml:space="preserve">hasBoundary</text>
      <path fill="none" d="M1767.4609 1039.5 L1742.5 1039.5" clip-path="url(#clipPath2)"/>
      <path fill="white" d="M1727.5 1039.5 L1743.5 1045.5 L1743.5 1033.5 Z" clip-path="url(#clipPath2)" stroke="none"/>
      <path fill="none" d="M1727.5 1039.5 L1743.5 1045.5 L1743.5 1033.5 Z" clip-path="url(#clipPath2)"/>
      <path fill="none" d="M1466.48 726.9731 L1466.48 759.0095" clip-path="url(#clipPath2)"/>
      <path d="M1466.48 767.0095 L1471.48 755.0095 L1466.48 758.0095 L1461.48 755.0095 Z" clip-path="url(#clipPath2)" stroke="none"/>
      <text x="1405.7916" y="747.873" clip-path="url(#clipPath2)" font-family="sans-serif" stroke="none" font-weight="normal" xml:space="preserve">propertyOf</text>
      <path fill="none" d="M1238.02 792.0208 L1238.02 953.9813" clip-path="url(#clipPath2)"/>
      <path d="M1238.02 961.9813 L1243.02 949.9813 L1238.02 952.9813 L1233.02 949.9813 Z" clip-path="url(#clipPath2)" stroke="none"/>
      <rect x="1202.3478" y="869" clip-path="url(#clipPath2)" fill="white" width="71.3445" height="16.0001" stroke="none"/>
      <text x="1204.3478" y="879.748" clip-path="url(#clipPath2)" font-family="sans-serif" stroke="none" font-weight="normal" xml:space="preserve">derivedFrom</text>
      <path fill="none" d="M1238.02 767.0269 L1238.02 714.5 L1367.4808 714.5" clip-path="url(#clipPath2)"/>
      <path d="M1375.4808 714.5 L1363.4808 709.5 L1366.4808 714.5 L1363.4808 719.5 Z" clip-path="url(#clipPath2)" stroke="none"/>
      <rect x="1266.5053" y="706.5" clip-path="url(#clipPath2)" fill="white" width="71.3445" height="16.0001" stroke="none"/>
      <text x="1268.5052" y="717.248" clip-path="url(#clipPath2)" font-family="sans-serif" stroke="none" font-weight="normal" xml:space="preserve">derivedFrom</text>
      <path fill="none" d="M1238.02 1092.0269 L1238.02 994.9815" clip-path="url(#clipPath2)"/>
      <path d="M1238.02 986.9815 L1233.02 998.9815 L1238.02 995.9815 L1243.02 998.9815 Z" clip-path="url(#clipPath2)" stroke="none"/>
      <rect x="1177.6636" y="1031.5" clip-path="url(#clipPath2)" fill="white" width="120.7128" height="16.0001" stroke="none"/>
      <text x="1179.6636" y="1042.248" clip-path="url(#clipPath2)" font-family="sans-serif" stroke="none" font-weight="normal" xml:space="preserve">locationOf / relativeTo</text>
      <path fill="none" d="M1148.4635 657 L1200.9629 657" clip-path="url(#clipPath2)"/>
      <path fill="white" d="M1215.9629 657 L1199.9629 651 L1199.9629 663 Z" clip-path="url(#clipPath2)" stroke="none"/>
      <path fill="none" d="M1215.9629 657 L1199.9629 651 L1199.9629 663 Z" clip-path="url(#clipPath2)"/>
      <text x="1151.198" y="649.748" clip-path="url(#clipPath2)" font-family="sans-serif" stroke="none" font-weight="normal" xml:space="preserve">subClassOf</text>
      <path fill="none" d="M1232.3627 657 L1300.4633 657" clip-path="url(#clipPath2)"/>
      <path d="M1308.4633 657 L1296.4633 652 L1299.4633 657 L1296.4633 662 Z" clip-path="url(#clipPath2)" stroke="none"/>
      <text x="1234.724" y="649.748" clip-path="url(#clipPath2)" font-family="sans-serif" stroke="none" font-weight="normal" xml:space="preserve">otherRelation</text>
      <path fill="none" d="M1872.4899 780.5061 L1886.5493 780.7633 L1886.5493 714.9613 L1886.5493 649.5 L1880.4899 649.5" clip-path="url(#clipPath2)"/>
      <path d="M1872.4899 649.5 L1884.4899 654.5 L1881.4899 649.5 L1884.4899 644.5 Z" clip-path="url(#clipPath2)" stroke="none"/>
      <text x="1834.444" y="751.7697" clip-path="url(#clipPath2)" font-family="sans-serif" stroke="none" font-weight="normal" xml:space="preserve">hasPart</text>
      <path fill="none" d="M1817.5 661.9731 L1817.5 694.0095" clip-path="url(#clipPath2)"/>
      <path d="M1817.5 702.0095 L1822.5 690.0095 L1817.5 693.0095 L1812.5 690.0095 Z" clip-path="url(#clipPath2)" stroke="none"/>
      <text x="1780.1517" y="682.873" clip-path="url(#clipPath2)" font-family="sans-serif" stroke="none" font-weight="normal" xml:space="preserve">partOf</text>
      <path fill="none" d="M1762.5049 649.5 L1747.5 649.5 L1747.5 714.5 L1767.6825 714.5 L1742.4944 714.5" clip-path="url(#clipPath2)"/>
      <path fill="white" d="M1727.4944 714.5 L1743.4944 720.5 L1743.4944 708.5 Z" clip-path="url(#clipPath2)" stroke="none"/>
      <path fill="none" d="M1727.4944 714.5 L1743.4944 720.5 L1743.4944 708.5 Z" clip-path="url(#clipPath2)"/>
      <path fill="none" d="M1828.7 897.0269 L1828.7 864.9905" clip-path="url(#clipPath2)"/>
      <path d="M1828.7 856.9905 L1823.7 868.9905 L1828.7 865.9905 L1833.7 868.9905 Z" clip-path="url(#clipPath2)" stroke="none"/>
      <text x="1791.3518" y="881.623" clip-path="url(#clipPath2)" font-family="sans-serif" stroke="none" font-weight="normal" xml:space="preserve">partOf</text>
      <path fill="none" d="M1767.4673 909.5 L1752 909.5 L1752 844.5 L1742.4836 844.5" clip-path="url(#clipPath2)"/>
      <path fill="white" d="M1727.4836 844.5 L1743.4836 850.5 L1743.4836 838.5 Z" clip-path="url(#clipPath2)" stroke="none"/>
      <path fill="none" d="M1727.4836 844.5 L1743.4836 850.5 L1743.4836 838.5 Z" clip-path="url(#clipPath2)"/>
      <path fill="none" d="M1767.4706 1104.5 L1742.5172 1104.5" clip-path="url(#clipPath2)"/>
      <path fill="white" d="M1727.5172 1104.5 L1743.5172 1110.5 L1743.5172 1098.5 Z" clip-path="url(#clipPath2)" stroke="none"/>
      <path fill="none" d="M1727.5172 1104.5 L1743.5172 1110.5 L1743.5172 1098.5 Z" clip-path="url(#clipPath2)"/>
      <path fill="none" d="M1767.4673 1138.3 L1752 1138.3 L1752 1104.5 L1742.4836 1104.5" clip-path="url(#clipPath2)"/>
      <path fill="white" d="M1727.4836 1104.5 L1743.4836 1110.5 L1743.4836 1098.5 Z" clip-path="url(#clipPath2)" stroke="none"/>
      <path fill="none" d="M1727.4836 1104.5 L1743.4836 1110.5 L1743.4836 1098.5 Z" clip-path="url(#clipPath2)"/>
      <path fill="none" d="M1662.5 767.0269 L1662.5 734.9905" clip-path="url(#clipPath2)"/>
      <path d="M1662.5 726.9905 L1657.5 738.9905 L1662.5 735.9905 L1667.5 738.9905 Z" clip-path="url(#clipPath2)" stroke="none"/>
      <text x="1617.1477" y="751.623" clip-path="url(#clipPath2)" font-family="sans-serif" stroke="none" font-weight="normal" xml:space="preserve">hasPart</text>
      <path fill="none" d="M1662.5 791.9731 L1662.5 824.0095" clip-path="url(#clipPath2)"/>
      <path d="M1662.5 832.0095 L1667.5 820.0095 L1662.5 823.0095 L1657.5 820.0095 Z" clip-path="url(#clipPath2)" stroke="none"/>
      <text x="1617.1477" y="812.873" clip-path="url(#clipPath2)" font-family="sans-serif" stroke="none" font-weight="normal" xml:space="preserve">hasPart</text>
      <path fill="none" d="M1597.4987 779.5 L1572.4871 779.5" clip-path="url(#clipPath2)"/>
      <path fill="white" d="M1557.4871 779.5 L1573.4871 785.5 L1573.4871 773.5 Z" clip-path="url(#clipPath2)" stroke="none"/>
      <path fill="none" d="M1557.4871 779.5 L1573.4871 785.5 L1573.4871 773.5 Z" clip-path="url(#clipPath2)"/>
    </g>
  </g>
</svg>
