<?xml version="1.0" encoding="UTF-8"?>
<!-- Created with Inkscape (http://www.inkscape.org/) -->
<svg width="805.3" height="409" version="1.1" viewBox="0 0 805.3 409" xmlns="http://www.w3.org/2000/svg">
 <g transform="translate(-104 -60)">
  <path d="m755 408v-61h9v122h-9zm-368.7 41.61c-8.904-2.911-17.05-11.32-19.41-20.02-1.846-6.825-0.6498-17.42 2.651-23.49 7.37-13.54 24.81-19.02 38.96-12.23 11.42 5.477 16.9 14.27 16.9 27.12 0 12.31-5.51 21.46-16.01 26.6-6.589 3.224-16.7 4.106-23.1 2.015zm18.2-10.61c13.6-6.585 13.93-29.02 0.5215-36.15-4.256-2.264-13.9-2.482-17.92-0.4045-4.203 2.173-8.915 8.053-9.667 12.06-0.3669 1.956-0.4734 6.233-0.2366 9.506 0.3414 4.72 1.043 6.707 3.393 9.61 5.952 7.354 15.42 9.482 23.91 5.373zm44.73 9.468c-5.282-2.68-8.352-5.909-11.85-12.47-1.698-3.182-1.896-6.568-2.179-37.25l-0.3105-33.75h11.02l0.3007 32.75c0.2814 30.65 0.4288 32.97 2.301 36.14 3.009 5.095 7.797 7.314 14.8 6.857 5.037-0.3286 6.257-0.8351 9.267-3.845 4.812-4.812 5.419-9.693 5.426-43.65l0.00579-28.25h10v28.86c0 33.54 0.5904 38.19 5.469 43.07 2.971 2.973 4.205 3.483 9.23 3.811 7.004 0.457 11.79-1.761 14.8-6.857 1.872-3.17 2.019-5.485 2.301-36.14l0.3007-32.75h10.9l-0.011 30.75c-6e-3 16.91-0.2912 32.45-0.6338 34.52-1.017 6.154-6.244 13.78-11.78 17.2-4.544 2.8-5.63 3.035-14 3.022-10.1-0.0154-13.72-1.334-18.73-6.813l-2.849-3.119-2.849 3.119c-4.501 4.928-8.756 6.634-17.65 7.077-7.139 0.3555-8.568 0.1103-13.28-2.279zm112.1 1.141c-8.904-2.911-17.05-11.32-19.41-20.02-1.846-6.825-0.6498-17.42 2.651-23.49 7.37-13.54 24.81-19.02 38.96-12.23 11.42 5.477 16.9 14.27 16.9 27.12 0 12.31-5.51 21.46-16.01 26.6-6.589 3.224-16.7 4.106-23.1 2.015zm18.2-10.61c13.6-6.585 13.93-29.02 0.5215-36.15-4.256-2.264-13.9-2.482-17.92-0.4045-4.203 2.173-8.915 8.053-9.667 12.06-0.3669 1.956-0.4734 6.233-0.2366 9.506 0.3414 4.72 1.043 6.707 3.393 9.61 5.952 7.354 15.42 9.482 23.91 5.373zm-475.5-18.9c0-27.45 0.17-30.45 2.079-36.63 7.518-24.34 40.81-26.59 52.18-3.533 2.166 4.396 2.255 5.698 2.545 37.3l0.3007 32.75h-10.1v-39h-31v-10h31.2l-0.667-6.25c-0.9816-9.198-2.207-12.23-6.525-16.13-8.593-7.763-21.46-5.312-26.61 5.071-1.711 3.445-1.918 6.77-2.181 35.06l-0.2904 31.25h-10.92zm68.01 9.645c9e-3 -19.17 0.1353-20.52 2.371-25.32 4.161-8.936 11.79-13.44 22.74-13.42 6.828 0.0124 14.68 3.545 18.23 8.201 4.95 6.49 5.653 10.39 5.653 31.41v19.37h-10l-0.022-18.25c-0.019-15.83-0.2765-18.81-1.942-22.48-3.751-8.264-14.52-11.1-21.1-5.567-5.363 4.513-5.941 7.213-5.941 27.76v18.53h-10l0.01-20.25zm72.49 18.75c-4.858-1.721-7.99-5.413-9.425-11.11-0.6402-2.543-1.075-15.63-1.075-32.33v-28.06h10v15h21v10h-21.2l0.3508 17.09c0.3398 16.55 0.4252 17.15 2.712 19 1.878 1.521 3.973 1.911 10.25 1.911h7.889v10l-8.25-0.0439c-4.538-0.0241-10.05-0.6816-12.25-1.461zm28.5-41v-42.5h10v15.5c0 8.525 0.1791 15.5 0.3979 15.5s2.356-1.12 4.75-2.488c6.323-3.615 15.51-3.519 22.9 0.238 4.382 2.228 5.887 3.693 7.929 7.718 2.428 4.786 2.532 5.767 2.841 26.75l0.3199 21.78h-10.14l-6e-3 -18.25c-3e-3 -10.04-0.4662-19.91-1.029-21.94-0.563-2.027-2.395-4.84-4.071-6.25-2.51-2.112-4.077-2.564-8.894-2.564-4.895 0-6.37 0.4402-9.059 2.703-5.363 4.513-5.941 7.213-5.941 27.76v18.53h-10zm61 13.5v-29h4.5c4.333 0 4.5 0.1111 4.5 3 0 3.417 0.9908 3.846 2.67 1.156 1.682-2.693 7.525-5.156 12.23-5.156h4.099v4.481c0 4.807 0.5277 4.379-7.423 6.019-3.472 0.7161-8.334 5.963-9.536 10.29-0.5665 2.04-1.033 11.47-1.036 20.96l-0.00558 17.25h-10zm277 0v-29h4.5c4.333 0 4.5 0.1111 4.5 3 0 3.417 0.9908 3.846 2.67 1.156 1.682-2.693 7.525-5.156 12.23-5.156h4.099v4.481c0 4.807 0.5277 4.379-7.423 6.019-3.472 0.7161-8.334 5.963-9.536 10.29-0.5665 2.04-1.033 11.47-1.036 20.96l-0.00558 17.25h-10zm34-13.5v-42.5h10v49.12l4.75-0.6805c6.025-0.8632 8.071-2.779 13.97-13.08l4.78-8.351 5.785-3e-3c5.687-3e-3 5.765 0.0349 4.591 2.247-4.064 7.659-12.13 19.64-13.62 20.22-1.398 0.5468-0.8494 1.132 2.682 2.86 7.535 3.687 8.51 5.906 8.892 20.24l0.3316 12.43h-10.16v-8.851c0-15.25-2.386-18.15-14.95-18.15h-7.05v27h-10zm51 37.58v-5.081h16.43c17.78 0 19.57-0.5038 19.57-5.499 0-3.453-4.146-6.178-13.9-9.14-17.01-5.163-22.09-9.386-22.09-18.36 0-5.497 2.691-10.24 7.198-12.7 2.708-1.474 6.277-1.853 20.04-2.133l16.75-0.34v10.17h-15.3c-16.52 0-17.7 0.3462-17.7 5.18 0 3.449 3.868 5.618 15.71 8.807 15.08 4.061 21.11 10.04 20.01 19.85-0.5794 5.141-3.083 8.876-7.82 11.67-2.981 1.756-5.56 2.04-21.15 2.331l-17.75 0.331zm83 0.1426v-4.964l16.34-0.4473c18.24-0.4992 21.09-1.371 25.4-7.764 3.359-4.984 3.152-12.83-0.4499-17.11-3.809-4.526-7.523-5.763-19.67-6.548l-10.63-0.6871 0.0168-3.603c0.0155-3.336 0.9779-4.48 13-15.46 7.141-6.522 12.98-12.26 12.98-12.75 0-0.4909-7.875-0.8926-17.5-0.8926h-17.5v-10l19.75 2e-3c22.57 2e-3 25.95 0.8229 27.61 6.715 1.451 5.144-0.8041 8.716-11.11 17.6-8.595 7.409-9.22 8.182-7.089 8.773 1.285 0.3561 4.88 1.391 7.989 2.299 20.97 6.129 22.48 36.16 2.347 46.93-3.592 1.922-5.915 2.178-22.75 2.506l-18.75 0.3658v-4.964zm69-37.85v-42.62l14.75 0.4721c16.86 0.5397 21.8 1.928 30.67 8.626 10.37 7.829 15.9 19.53 15.9 33.65s-5.529 25.82-15.9 33.65c-6.865 5.183-13.75 7.735-22.98 8.515l-7.443 0.6292v-10.06l6.592-0.7059c3.626-0.3883 8.156-1.359 10.07-2.158 5.037-2.105 12.11-9.016 15.18-14.83 2.366-4.484 2.66-6.144 2.66-15.04 7.1e-4 -9.201-0.2346-10.42-2.946-15.32-3.288-5.935-7.642-10.17-13.58-13.2-4.149-2.116-18.92-4.602-21.49-3.616-1.273 0.4886-1.483 5.798-1.483 37.6v37.03h-10zm-268.5-50.07c-11.27-1.495-25.45-8.301-32.98-15.82-5.855-5.855-11.67-16.34-13.94-25.12-1.99-7.713-2.028-7.356 0.7775-7.356 1.923 0 2.979 1.256 5.675 6.75 12.7 25.88 48.17 36.92 74.15 23.07 18.63-9.929 27.97-28.75 26.39-53.15-1.451-22.39-10.29-37.9-26.56-46.57-8.528-4.545-11.12-5.226-22.67-5.954l-10.15-0.6394 22.96-27c12.63-14.85 24.36-28.73 26.06-30.84l3.098-3.845-32.41 0.4444c-27.92 0.3828-33.24 0.7015-38.39 2.3-6.929 2.15-12.92 7.495-15.92 14.2-2.224 4.971-5.597 5.974-5.597 1.664 0-2.357 6.595-29.34 7.357-30.1 0.1795-0.1795 25.51-0.2101 56.29-0.068l55.97 0.2584-54.43 64 6.326 2.158c23.4 7.98 36.22 21.17 42.13 43.34 2.401 9 2.433 30.08 0.0594 39-4.176 15.7-13.53 28.72-27.2 37.87-13.94 9.323-31.23 13.53-47.01 11.44zm75.95-20.23c1.989-2.709 5.18-8.311 7.092-12.45 12.47-27 9.918-59.21-6.6-83.22-3.659-5.319-2.754-5.057 6.775 1.958 18.44 13.58 26.87 37.05 21.84 60.8-2.079 9.808-6.018 17.23-13.16 24.8-5.34 5.661-16.01 13.03-18.87 13.03-0.3824 0 0.9321-2.217 2.921-4.926zm-184.1-64.75c-0.872-2.102-11.94-28.35-24.6-58.32-12.66-29.98-23.44-55.62-23.97-57l-0.9572-2.5-1.286 2.392c-0.7073 1.316-9.336 20.99-19.17 43.72-9.839 22.73-18.11 41.33-18.39 41.32-0.275-3e-3 -18.14-40.15-39.71-89.22-37.21-84.67-39.09-89.25-37-89.81 1.213-0.3251 9.406-0.8984 18.21-1.274s17.01-0.9496 18.25-1.276c1.794-0.4726 2.25-0.1775 2.25 1.457 0 1.193-0.8634 2.323-2.066 2.705-3.544 1.125-8.76 6.42-9.987 10.14-1.511 4.579-0.6147 11.27 2.904 21.68 3.34 9.881 46.17 107.7 47.15 107.7 0.8095 0 30.33-66.52 30.32-68.31-0.0225-2.346-17.18-41.6-21.12-48.33-5.66-9.656-12.2-15.82-21.42-20.2-5.292-2.512-7.731-4.222-7.75-5.434-0.0203-1.321 0.5423-1.642 2.223-1.266 1.238 0.2764 9.447 0.9794 18.24 1.562 8.796 0.5828 16.26 1.378 16.59 1.766 0.3303 0.3887 19.16 44.96 41.83 99.05l41.23 98.35-2.889 7.154c-2.224 5.507-3.398 7.228-5.099 7.476-1.746 0.2547-2.542-0.4792-3.795-3.5zm-366.3 1.017c0.0292-1.119 2.228-3.211 5.614-5.34 6.969-4.382 16.82-14.91 23.88-25.52 2.979-4.478 21.37-39.15 40.87-77.05l35.45-68.91-2.177-4.011c-3.713-6.842-16.41-18.81-23.68-22.33-7.466-3.609-16.72-6.186-22.21-6.186-3.123 0-3.79-0.3518-3.79-2 0-1.72 0.6656-2 4.75-1.997 6.328 0.0045 49.46 2.875 49.91 3.321 0.3192 0.3192 98.93 205.7 99.98 208.3 0.3101 0.7479-4.387 1.307-14.84 1.766-8.413 0.3695-18.78 0.9544-23.05 1.3-6.709 0.5434-7.75 0.4121-7.75-0.9774 0-1.001 1.412-2.002 3.75-2.66 7.979-2.244 11.24-6.897 11.23-16.02-9e-3 -8.706-3.063-17.05-16.56-45.25l-10.89-22.75h-75.57l-13.1 26.33c-12.35 24.83-13.13 26.74-13.62 33.5-0.8309 11.61 3.771 19.77 13.43 23.8 1.83 0.7646 3.323 2.118 3.323 3.012 0 1.443-0.9774 1.525-8.75 0.7366-11.05-1.121-36.06-1.146-47.5-0.0478-8.142 0.7814-8.747 0.712-8.702-1zm143-101.1c0.027-1.908-28.46-60.19-29.09-59.52-0.9294 0.9965-30.92 58.86-30.92 59.66 0 0.334 13.5 0.6072 30 0.6072s30-0.3375 30.01-0.75zm501 101.7c-4.675-0.4362-12.89-0.8378-18.25-0.8924l-9.75-0.09925v-209.8l10.25-0.5701c44.35-2.467 54.63-2.738 63.25-1.669 12.9 1.599 22.56 4.471 32.93 9.791 7.519 3.856 10.78 6.368 19.07 14.7 14.84 14.91 21.91 28.91 26.14 51.71 2.395 12.91 2.438 45.62 0.0771 58.48-6.259 34.09-22.06 57.49-47.22 69.93-15.07 7.457-21.54 8.706-46.5 8.981-11.82 0.13-25.32-0.1205-30-0.5567zm52.45-14.98c13.59-3.477 21.85-8.229 32.08-18.47 16.21-16.22 22.77-34.06 24.1-65.54 2.795-66.02-29.64-103.3-87.63-100.7-18.38 0.8298-29.24 4.183-30.35 9.378-2.752 12.83-3.334 129.7-0.7462 149.8 1.423 11.05 3.256 21.14 4.086 22.48 0.9387 1.519 10.51 3.933 19.85 5.009 11.36 1.308 29.36 0.3846 38.6-1.979zm-461.4 14.06-9.469-0.5752-39.29-82c-21.61-45.1-44.2-92.23-50.2-104.7l-10.91-22.73 20.17-0.2342c23.74-0.2756 35.72-0.1012 36.35 0.5296 0.2504 0.2504 20.17 44.94 44.25 99.31l43.8 98.85-6.233 12-9.5 0.0752c-5.225 0.0413-13.76-0.1836-18.97-0.5zm18.05-11.33c-22.82-52.58-73.01-164.3-76.1-169.4-6.506-10.73-12-17.35-18.24-21.95-5.558-4.098-12.31-7.157-13.4-6.068-1.425 1.425 37.84 85.95 67.91 146.2 12.41 24.86 24.29 41.94 35.55 51.11 2.962 2.413 5.554 4.388 5.759 4.388s-0.4572-1.912-1.472-4.25zm331.9-94.39v-105.6l6.147 0.6425c3.381 0.3534 6.981 0.6425 8 0.6425 1.793 0 1.853 3.437 1.853 105v105h-16zm177.2 80.48c9.949-11.73 15.76-24.52 20.02-44.1 1.962-9.013 2.229-13.16 2.24-34.73 9e-3 -18.89-0.3782-26.59-1.692-33.64-3.478-18.64-10.64-36.2-18.49-45.38-5.627-6.574-0.6135-3.303 8.979 5.858 13.56 12.95 22.03 27.14 26.95 45.16 2.071 7.585 2.314 10.6 2.261 28-0.0513 16.88-0.3545 20.57-2.26 27.5-5.899 21.44-19.7 40.83-38.75 54.46l-4.833 3.456zm-378.7-12.34c-1.431-3.3-18.24-43.35-37.36-89l-34.76-83 3.06-0.6396c1.683-0.3518 10.03-0.9438 18.56-1.316 8.525-0.3718 16.51-0.9203 17.75-1.219 1.721-0.4153 2.25-0.1059 2.25 1.317 0 1.185-1.636 2.728-4.506 4.251-9.381 4.976-11.21 14.47-5.984 31.11 2.571 8.186 41.94 103.7 43.37 105.2 0.6366 0.6729 7.664-15.9 29.36-69.24 9.595-23.59 13.01-35.68 13.02-46.03 9e-3 -11.33-4.645-18.81-13.76-22.1-2.298-0.831-3.5-1.907-3.5-3.132 0-1.305 0.5269-1.714 1.75-1.358 0.9625 0.2795 8.5 1.042 16.75 1.694 11.5 0.9092 18.56 0.9129 30.28 0.01578 8.405-0.6433 15.94-1.423 16.75-1.733 0.9707-0.3725 1.459 0.06593 1.441 1.293-0.0171 1.148-2.338 3.384-6.081 5.857-12.14 8.018-20.26 19.15-30.65 42-2.751 6.05-15.91 37.55-29.24 70s-24.61 59.68-25.07 60.5c-0.6152 1.108-1.512-0.0668-3.434-4.5zm60.92-92.75c0.2538-1.238 0.7328-3.938 1.064-6l0.6029-3.75h131.3l-2.405 2.75c-1.323 1.512-3.739 4.212-5.37 6l-2.966 3.25h-122.6z" fill="#226192"/>
 </g>
</svg>
