<?xml version="1.0" encoding="UTF-8"?>
<svg width="877.1" height="645.1" enable-background="new 0 0 1024 1024" version="1.1" viewBox="0 0 877.1 645.1" xml:space="preserve" xmlns="http://www.w3.org/2000/svg"><g>




<path d="m791.5 267.6c18.82 20.77 29.05 45.12 33.44 72.2 3.756 23.15 4.125 46.42 1.858 69.66-2.987 30.62-11.36 59.5-30.89 84.08-20.13 25.33-46.65 39.54-78.47 44.32-22.41 3.363-44.83 1.319-67.26 0.2144-13.63-0.6712-27.2-2.631-40.86-2.163-4.709 0.1616-5.958-1.608-5.955-6.067 0.0757-97.97 0.0387-195.9 0.0261-293.9-3.6e-4 -2.847-0.4485-5.811 4.029-5.78 30.31 0.205 60.5-3.35 90.83-2.974 36.59 0.4535 67.94 13.03 93.25 40.41m-140 247.4c18.13 3.071 36.35 4.232 54.67 2.043 43.37-5.18 76.45-33.43 88.11-76.11 10.34-37.88 10.48-76.05-0.4078-113.8-8.474-29.37-25.47-52.53-53.62-66.37-15.84-7.787-32.83-10.88-50.19-11.78-17.19-0.8932-34.24 0.3642-50.68 6.332-4.87 1.767-6.924 4.664-7.647 9.733-2.099 14.72-2.456 29.55-2.684 44.32-0.5414 35.15-0.2723 70.31-0.3284 105.5-0.0443 27.8 0.0997 55.64 5.272 83.06 3.118 16.54 0.5745 12.66 15.25 16.51 0.4833 0.127 0.9615 0.2734 2.27 0.5914z"/>
<path d="m25.56 290.9c-8.733 2.8e-4 -16.97 2.8e-4 -25.2 2.8e-4 -0.1221-0.4405-0.2441-0.881-0.3662-1.321 2.701-2.058 5.439-4.069 8.097-6.181 16.64-13.23 28.59-30.26 38.26-48.84 24.86-47.72 49.31-95.65 73.92-143.5 6.324-12.29 12.58-24.63 19.04-36.85 1.353-2.559 1.165-4.531-0.197-6.925-13.91-24.44-35.08-37.56-62.83-40.51-1.324-0.1405-2.658-0.2216-3.97-0.4343-1.933-0.3131-2.885-1.484-2.812-3.473 0.0829-2.271 1.61-2.669 3.429-2.653 10.33 0.0905 20.67-0.102 30.98 0.3687 12.46 0.5688 24.89 1.916 37.35 2.47 4.005 0.1781 6.157 1.254 7.955 5.024 31.11 65.24 62.39 130.4 93.63 195.6 12.89 26.88 25.8 53.75 38.69 80.63 0.8463 1.765 1.996 3.456 1.906 6.082h-52.63c-0.3614-0.8641 0.1966-1.349 0.7277-1.669 10.35-6.244 11.09-15.99 9.118-26.32-3.067-16.06-11.03-30.27-17.88-44.87-5.735-12.21-11.74-24.3-17.47-36.51-1.375-2.934-3.106-4.217-6.469-4.205-31.33 0.1071-62.66 0.0913-93.99 4e-3 -3.076-9e-3 -4.82 1.046-6.205 3.824-9.961 19.97-20.18 39.81-30.08 59.81-4.1 8.287-6.542 17.08-5.226 26.52 1.28 9.18 5.902 16.12 13.9 20.82 0.8398 0.4939 1.542 1.221 2.234 3.1-17.81 0-35.61 0-53.92 2.7e-4m98.52-159.4c-3.669 7.547-8.164 14.71-11.49 23.24h80.08c-13.01-27.2-25.63-53.58-38.76-81.03-10.27 19.92-19.87 38.53-29.84 57.79z"/>
<path d="m405.2 193c12.44-28.22 24.73-56.11 37.05-83.98 1.058-2.393 1.522-4.643 0.4038-7.187-9.242-21.03-16.86-42.76-27.99-62.97-8.26-15-20.23-25.39-36.37-31.04-0.9424-0.3298-1.876-0.6877-2.799-1.068-2.121-0.873-2.343-2.634-2.026-4.57 0.3377-2.062 2.028-2.011 3.496-1.929 5.146 0.2869 10.28 0.7145 15.43 1.041 10.3 0.6532 20.59 1.416 30.9 1.827 3.283 0.1312 4.139 2.114 5.128 4.476 10.16 24.27 20.34 48.53 30.54 72.79 21.95 52.19 43.93 104.4 65.89 156.5 5.297 12.58 10.48 25.22 15.94 37.73 2.521 5.775 0.6458 9.727-2.187 14.13-6.186 7.588-16.1 2.301-19.24-5.021-20.12-48.26-40.58-96.38-60.95-144.5-0.6384-1.51-1.357-2.985-2.669-5.858-17.78 40.75-35.06 80.36-52.34 120-0.5546 0.0231-1.109 0.0462-1.664 0.0692-36.59-83.03-73.19-166.1-109.7-249 1.997-1.674 3.918-1.666 5.664-1.763 15.95-0.883 31.91-1.685 47.86-2.422 1.839-0.0849 4.28-0.7468 4.794 2.194 0.4368 2.503-0.8984 3.877-3.031 5.094-13.25 7.56-16.33 14.85-12.9 29.78 4.203 18.32 12.5 35.08 19.96 52.14 14.87 34.03 29.88 68 44.85 102 0.8646 1.963 1.869 3.865 2.828 5.835 2.15-0.6961 2.088-2.689 3.167-4.272z"/>
<path d="m358.7 390.6c-1.949 3.513-3.868 6.65-5.398 9.966-1.269 2.749-3.171 3.727-5.982 3.104-2.936-0.6502-2.045-3.128-1.98-4.909 0.3144-8.575 3.367-16.58 5.413-24.79 1.285-5.162 2.653-10.31 3.64-15.54 0.7535-3.988 2.636-5.366 6.789-5.323 20.16 0.2087 40.33 0.0906 60.5 0.0898 31.33-1e-3 62.66-0.0116 94 0.0242 1.937 2e-3 3.979-0.5136 6.773 1.191-26.29 31.02-52.43 61.88-78.6 92.76 2.399 2.652 5.227 2.738 7.662 3.529 40.61 13.19 62.14 41.53 64.51 84.24 1.226 22.11-1.027 43.6-13.26 62.42-19.51 30.02-47.22 46.42-83.6 47.63-22.89 0.7587-43.11-5.865-60.55-20.41-15.75-13.13-22.67-31.09-26.41-50.65 8.161-2.032 8.877-1.871 11.75 4.906 20.51 48.42 88.77 61.35 126.5 24.28 11.17-10.96 17.15-24.55 19.12-39.78 2.433-18.81 2.18-37.57-5.031-55.54-12.24-30.49-42.94-48.49-75.58-44.52-1.629 0.1979-3.278 0.6769-5.948-0.892 25.02-29.52 49.89-58.86 74.73-88.18-1.559-2.076-3.365-1.339-4.877-1.34-23.66-0.0118-47.32-0.1598-70.97 0.2166-7.431 0.1182-14.92 0.9667-22.24 2.772-8.821 2.175-15.86 6.741-20.99 14.74z"/>
<path d="m555.2 247c-0.9084 1.974-1.216 3.866-3.767 5.705-34.8-83-69.49-165.7-104.4-249 4.361-0.4508 7.795-0.9406 11.25-1.139 14.29-0.8217 28.58-1.621 42.88-2.246 2-0.0875 4.926-1.315 5.666 2.268 0.6773 3.28-1.533 4.186-3.963 5.29-12.12 5.508-16.4 15.24-13.58 29.87 3.532 18.31 11.23 35.14 18.33 52.18 13.77 33.05 27.59 66.07 41.41 99.1 0.8268 1.977 1.776 3.902 3.159 6.921 4.458-10.69 8.595-20.41 12.58-30.2 12.25-30.08 24.58-60.12 36.57-90.29 4.74-11.93 7.554-24.44 8.643-37.29 1.091-12.87-6.228-25.01-18.18-29.97-1.077-0.4461-2.156-0.9074-3.272-1.233-2.302-0.671-3.291-2.162-2.914-4.499 0.4279-2.649 2.584-2.29 4.316-2.16 9.453 0.7053 18.91 1.374 28.34 2.343 14.68 1.507 29.27 0.0329 43.88-0.8983 4.471-0.285 8.911-1.039 13.38-1.431 1.589-0.1396 3.553-0.4011 4.066 1.854 0.4284 1.884 0.1716 3.656-1.656 4.846-2.652 1.727-5.291 3.472-7.93 5.219-16.16 10.7-26.19 26.29-34.38 43.29-18.44 38.29-33.25 78.14-49.73 117.3-10.34 24.55-20.36 49.24-30.67 74.21z"/>
<path d="m299.5 223.6c9.842 17.9 20.65 34.65 35 48.87 5.824 5.771 12.09 10.95 19.27 14.98 1.086 0.6096 2.485 1.015 2.812 2.595-1.211 1.344-2.8 0.7751-4.19 0.7797-13.99 0.0462-27.99-0.1369-41.98 0.1236-4.187 0.078-6.162-1.516-7.894-5.144-39.24-82.19-78.59-164.3-117.9-246.5-4.888-10.21-9.784-20.42-14.63-30.64-0.6882-1.451-1.946-2.774-1.235-5.348 8.376 0 16.94-0.109 25.51 0.069 2.447 0.0509 2.777 2.653 3.483 4.425 9.493 23.83 20.27 47.12 31.22 70.28 22.99 48.61 46.13 97.16 70.56 145.5z"/>
<path d="m318.3 111.9c23.82 53.79 47.47 107.2 71.14 160.7 2.421 5.467 2.42 12.41-1.581 16.79-2.967 3.248-15.72 1.464-17.52-2.597-24.02-54.38-47.87-108.8-72.13-163.1-11.48-25.68-21.55-52.03-35.16-76.72-7.201-13.07-15.83-25.08-28.48-33.64-4.038-2.734-8.289-4.996-12.96-6.329-2.589-0.7385-3.642-2.174-3.118-4.738 0.5415-2.647 2.766-2.165 4.43-1.941 14.54 1.96 29.22 1.737 43.82 2.787 2.859 0.2056 4.053 1.534 5.077 3.852 14.33 32.45 28.7 64.87 43.07 97.31 1.079 2.436 2.162 4.87 3.41 7.646z"/>
<path d="m567.4 229.9c4.595 0.172 8.756 0.3412 12.92 0.3579 2.509 0.0101 3.697 1.084 3.61 3.609-0.0461 1.331 0.0242 2.665 0.0241 3.998-3e-3 96.97-7e-3 193.9-0.0145 290.9-5.5e-4 7.711-0.0107 7.695-7.59 7.752-2.997 0.0224-5.999 0.0465-8.99 0.225-3.056 0.1825-4.241-1.24-4.09-4.158 0.0773-1.495-8e-3 -2.998-8e-3 -4.498 2e-3 -97.31-6e-3 -194.6 0.0663-291.9 2e-3 -2.564-1.669-6.611 4.076-6.286z"/>
<path d="m820.3 267.7c23.68 18.38 41.29 40.91 49.38 69.6 13.57 48.13 9.365 93.95-21.1 135.3-11.69 15.87-26.8 28.18-43.49 38.56-0.5635 0.3508-1.139 0.6971-1.749 0.9519-0.2554 0.1069-0.613-0.0303-1.387-0.0955 3.699-3.749 7.259-7.223 10.67-10.84 17.77-18.84 27-41.88 31.37-66.85 6.868-39.28 6.139-78.5-3.813-117.3-5.166-20.13-13.86-38.5-28.96-53.31-0.5627-0.5518-1.239-1.153-0.5534-2.422 3.563 1.36 6.203 4.168 9.634 6.365z"/>
<path d="m391.4 335.4c-11.07 0.0145-21.67 0.1927-32.74-0.8434 0.8971-5.876 1.824-11.41 2.557-16.96 0.4181-3.168 2.723-2.959 4.84-2.936 7.988 0.0858 15.97 0.3941 23.96 0.4079 30.64 0.0528 61.28 0.3698 91.91-0.0897 22.48-0.3372 44.95-0.0973 67.42-0.3627 1.759-0.0208 3.68-0.5289 5.906 1.564-3.033 3.526-6.477 6.838-9.085 10.71-4.669 6.938-10.52 8.483-18.94 8.402-45.11-0.4326-90.24-0.8753-135.8 0.1078z"/>
<path d="m520 472c21.4 14.49 35.64 33.45 39.33 59.13 5.409 37.59-7.682 71.13-43.26 88.85-2.949 1.468-5.969 2.772-10.34 3.265 21.09-22.17 29.29-48.71 30.38-77.52 1.1-29.14-8.955-55.06-27.4-79.33 5.266 1.095 7.873 3.784 11.29 5.606z"/>
</g></svg>
