<?xml version="1.0" encoding="UTF-8"?>
<svg xmlns="http://www.w3.org/2000/svg" xmlns:xlink="http://www.w3.org/1999/xlink" width="192" height="164" viewBox="0 0 192 164">
<rect x="-19.2" y="-16.4" width="230.4" height="196.8" fill="rgb(100%, 100%, 100%)" fill-opacity="1"/>
<path fill="none" stroke-width="1" stroke-linecap="butt" stroke-linejoin="miter" stroke="rgb(0%, 0%, 0%)" stroke-opacity="1" stroke-miterlimit="1.45" d="M 949.650391 263.800781 L 989.650391 338.800781 L 909.650391 338.800781 Z M 949.650391 263.800781 " transform="matrix(2, 0, 0, 2, -1812, -520)"/>
<path fill-rule="nonzero" fill="rgb(39.99939%, 39.99939%, 39.99939%)" fill-opacity="1" d="M 84 125.601562 L 84 139.601562 C 84 144.019531 87.578125 147.601562 92 147.601562 L 177.019531 147.601562 C 181.441406 147.601562 185.019531 144.019531 185.019531 139.601562 L 185.019531 125.601562 C 185.019531 121.179688 181.441406 117.601562 177.019531 117.601562 L 92 117.601562 C 87.578125 117.601562 84 121.179688 84 125.601562 Z M 84 125.601562 "/>
<path fill-rule="nonzero" fill="rgb(100%, 100%, 100%)" fill-opacity="1" d="M 104.898438 140.480469 L 104.039062 137.441406 L 98.699219 137.441406 L 97.820312 140.480469 L 94.980469 140.480469 L 99.519531 125.160156 L 103.539062 125.160156 L 108.078125 140.480469 Z M 101.398438 127.980469 L 99.398438 135.101562 L 103.398438 135.101562 Z M 116.800781 140.480469 L 112.679688 131.320312 L 111.839844 129.359375 L 111.839844 140.480469 L 109.21875 140.480469 L 109.21875 125.160156 L 112.78125 125.160156 L 116.941406 134.359375 L 117.679688 136.160156 L 117.679688 125.160156 L 120.300781 125.160156 L 120.300781 140.480469 Z M 130 140.480469 L 125.878906 131.320312 L 125.039062 129.359375 L 125.039062 140.480469 L 122.398438 140.480469 L 122.398438 125.160156 L 125.960938 125.160156 L 130.121094 134.359375 L 130.878906 136.160156 L 130.878906 125.160156 L 133.5 125.160156 L 133.5 140.480469 Z M 147.261719 132.761719 C 147.261719 134.160156 147.101562 135.359375 146.78125 136.359375 C 146.460938 137.359375 146 138.179688 145.441406 138.839844 C 144.878906 139.5 144.21875 139.980469 143.460938 140.300781 C 142.699219 140.601562 141.878906 140.761719 141 140.761719 C 138.980469 140.761719 137.480469 140.078125 136.460938 138.738281 C 135.460938 137.398438 134.941406 135.441406 134.941406 132.878906 C 134.941406 131.519531 135.101562 130.320312 135.441406 129.300781 C 135.761719 128.300781 136.199219 127.460938 136.761719 126.820312 C 137.320312 126.179688 137.980469 125.699219 138.761719 125.378906 C 139.519531 125.078125 140.339844 124.921875 141.199219 124.921875 C 143.21875 124.921875 144.738281 125.578125 145.738281 126.921875 C 146.761719 128.261719 147.261719 130.199219 147.261719 132.761719 Z M 144.21875 132.878906 C 144.21875 131.078125 143.980469 129.71875 143.5 128.839844 C 143 127.960938 142.199219 127.519531 141.101562 127.519531 C 140.558594 127.519531 140.101562 127.621094 139.699219 127.859375 C 139.300781 128.078125 138.980469 128.421875 138.71875 128.878906 C 138.480469 129.320312 138.300781 129.859375 138.160156 130.519531 C 138.039062 131.160156 137.980469 131.898438 137.980469 132.761719 C 137.980469 134.578125 138.21875 135.921875 138.71875 136.800781 C 139.199219 137.699219 140 138.140625 141.101562 138.140625 C 141.660156 138.140625 142.140625 138.019531 142.539062 137.800781 C 142.941406 137.558594 143.261719 137.21875 143.5 136.78125 C 143.761719 136.320312 143.941406 135.78125 144.058594 135.140625 C 144.179688 134.5 144.21875 133.738281 144.21875 132.878906 Z M 156.820312 140.480469 L 156.761719 138.738281 C 156.519531 139.019531 156.261719 139.300781 155.980469 139.539062 C 155.71875 139.800781 155.421875 140 155.121094 140.179688 C 154.820312 140.359375 154.5 140.5 154.140625 140.601562 C 153.78125 140.699219 153.398438 140.761719 152.980469 140.761719 C 152.28125 140.761719 151.660156 140.621094 151.121094 140.339844 C 150.558594 140.058594 150.121094 139.660156 149.738281 139.140625 C 149.359375 138.621094 149.078125 137.980469 148.898438 137.238281 C 148.699219 136.480469 148.621094 135.660156 148.621094 134.761719 C 148.621094 133.660156 148.761719 132.699219 149.058594 131.898438 C 149.359375 131.101562 149.800781 130.441406 150.339844 129.921875 C 150.898438 129.398438 151.539062 129 152.300781 128.738281 C 153.039062 128.480469 153.859375 128.359375 154.738281 128.359375 C 155.019531 128.359375 155.320312 128.378906 155.621094 128.421875 C 155.921875 128.460938 156.199219 128.519531 156.421875 128.578125 L 156.421875 123.921875 L 159.300781 123.921875 L 159.300781 140.480469 Z M 151.621094 134.601562 C 151.621094 135.28125 151.660156 135.839844 151.738281 136.300781 C 151.820312 136.78125 151.941406 137.160156 152.121094 137.441406 C 152.300781 137.738281 152.519531 137.960938 152.78125 138.078125 C 153.039062 138.21875 153.339844 138.300781 153.679688 138.300781 C 154.160156 138.300781 154.621094 138.101562 155.039062 137.71875 C 155.480469 137.320312 155.941406 136.800781 156.421875 136.101562 L 156.421875 130.921875 C 156.21875 130.820312 155.941406 130.738281 155.621094 130.679688 C 155.28125 130.640625 154.941406 130.601562 154.621094 130.601562 C 154.140625 130.601562 153.699219 130.699219 153.339844 130.878906 C 152.980469 131.078125 152.660156 131.339844 152.398438 131.679688 C 152.140625 132.019531 151.941406 132.441406 151.820312 132.941406 C 151.679688 133.441406 151.621094 134 151.621094 134.601562 Z M 172.339844 136.980469 C 172.339844 137.640625 172.199219 138.21875 171.898438 138.71875 C 171.601562 139.199219 171.21875 139.601562 170.71875 139.878906 C 170.21875 140.179688 169.640625 140.398438 169.019531 140.539062 C 168.398438 140.679688 167.761719 140.761719 167.078125 140.761719 C 166.21875 140.761719 165.421875 140.71875 164.71875 140.640625 C 164.019531 140.558594 163.359375 140.421875 162.738281 140.261719 L 162.738281 137.699219 C 163.480469 138 164.199219 138.199219 164.941406 138.339844 C 165.660156 138.480469 166.339844 138.539062 167 138.539062 C 167.738281 138.539062 168.300781 138.421875 168.679688 138.199219 C 169.058594 137.960938 169.238281 137.660156 169.238281 137.261719 C 169.238281 137.101562 169.199219 136.941406 169.121094 136.78125 C 169.039062 136.621094 168.878906 136.480469 168.679688 136.339844 C 168.480469 136.199219 168.179688 136.058594 167.78125 135.921875 C 167.378906 135.78125 166.859375 135.621094 166.238281 135.441406 C 165.660156 135.28125 165.140625 135.101562 164.699219 134.878906 C 164.238281 134.679688 163.878906 134.441406 163.578125 134.160156 C 163.300781 133.878906 163.078125 133.539062 162.941406 133.160156 C 162.820312 132.800781 162.738281 132.359375 162.738281 131.859375 C 162.738281 131.378906 162.859375 130.921875 163.078125 130.5 C 163.300781 130.058594 163.621094 129.699219 164.039062 129.378906 C 164.460938 129.039062 165 128.800781 165.640625 128.601562 C 166.300781 128.421875 167.058594 128.320312 167.941406 128.320312 C 168.679688 128.320312 169.339844 128.359375 169.941406 128.441406 C 170.519531 128.5 171.019531 128.601562 171.460938 128.699219 L 171.460938 131.019531 C 170.78125 130.800781 170.140625 130.660156 169.539062 130.558594 C 168.941406 130.460938 168.359375 130.421875 167.78125 130.421875 C 167.199219 130.421875 166.71875 130.519531 166.359375 130.738281 C 166.019531 130.941406 165.839844 131.238281 165.839844 131.601562 C 165.839844 131.800781 165.859375 131.960938 165.941406 132.101562 C 166 132.261719 166.121094 132.378906 166.339844 132.519531 C 166.539062 132.640625 166.839844 132.78125 167.21875 132.921875 C 167.578125 133.058594 168.078125 133.21875 168.679688 133.378906 C 169.359375 133.601562 169.941406 133.800781 170.421875 134.019531 C 170.878906 134.238281 171.261719 134.5 171.539062 134.78125 C 171.820312 135.058594 172.019531 135.378906 172.140625 135.738281 C 172.28125 136.121094 172.339844 136.519531 172.339844 136.980469 Z M 172.339844 136.980469 "/>
<path fill-rule="nonzero" fill="rgb(39.99939%, 39.99939%, 39.99939%)" fill-opacity="1" d="M 84 75.601562 L 84 89.601562 C 84 94.019531 87.578125 97.601562 92 97.601562 L 177.019531 97.601562 C 181.441406 97.601562 185.019531 94.019531 185.019531 89.601562 L 185.019531 75.601562 C 185.019531 71.179688 181.441406 67.601562 177.019531 67.601562 L 92 67.601562 C 87.578125 67.601562 84 71.179688 84 75.601562 Z M 84 75.601562 "/>
<path fill-rule="nonzero" fill="rgb(100%, 100%, 100%)" fill-opacity="1" d="M 104.898438 90.480469 L 104.039062 87.441406 L 98.699219 87.441406 L 97.820312 90.480469 L 94.980469 90.480469 L 99.519531 75.160156 L 103.539062 75.160156 L 108.078125 90.480469 Z M 101.398438 77.980469 L 99.398438 85.101562 L 103.398438 85.101562 Z M 116.800781 90.480469 L 112.679688 81.320312 L 111.839844 79.359375 L 111.839844 90.480469 L 109.21875 90.480469 L 109.21875 75.160156 L 112.78125 75.160156 L 116.941406 84.359375 L 117.679688 86.160156 L 117.679688 75.160156 L 120.300781 75.160156 L 120.300781 90.480469 Z M 130 90.480469 L 125.878906 81.320312 L 125.039062 79.359375 L 125.039062 90.480469 L 122.398438 90.480469 L 122.398438 75.160156 L 125.960938 75.160156 L 130.121094 84.359375 L 130.878906 86.160156 L 130.878906 75.160156 L 133.5 75.160156 L 133.5 90.480469 Z M 147.261719 82.761719 C 147.261719 84.160156 147.101562 85.359375 146.78125 86.359375 C 146.460938 87.359375 146 88.179688 145.441406 88.839844 C 144.878906 89.5 144.21875 89.980469 143.460938 90.300781 C 142.699219 90.601562 141.878906 90.761719 141 90.761719 C 138.980469 90.761719 137.480469 90.078125 136.460938 88.738281 C 135.460938 87.398438 134.941406 85.441406 134.941406 82.878906 C 134.941406 81.519531 135.101562 80.320312 135.441406 79.300781 C 135.761719 78.300781 136.199219 77.460938 136.761719 76.820312 C 137.320312 76.179688 137.980469 75.699219 138.761719 75.378906 C 139.519531 75.078125 140.339844 74.921875 141.199219 74.921875 C 143.21875 74.921875 144.738281 75.578125 145.738281 76.921875 C 146.761719 78.261719 147.261719 80.199219 147.261719 82.761719 Z M 144.21875 82.878906 C 144.21875 81.078125 143.980469 79.71875 143.5 78.839844 C 143 77.960938 142.199219 77.519531 141.101562 77.519531 C 140.558594 77.519531 140.101562 77.621094 139.699219 77.859375 C 139.300781 78.078125 138.980469 78.421875 138.71875 78.878906 C 138.480469 79.320312 138.300781 79.859375 138.160156 80.519531 C 138.039062 81.160156 137.980469 81.898438 137.980469 82.761719 C 137.980469 84.578125 138.21875 85.921875 138.71875 86.800781 C 139.199219 87.699219 140 88.140625 141.101562 88.140625 C 141.660156 88.140625 142.140625 88.019531 142.539062 87.800781 C 142.941406 87.558594 143.261719 87.21875 143.5 86.78125 C 143.761719 86.320312 143.941406 85.78125 144.058594 85.140625 C 144.179688 84.5 144.21875 83.738281 144.21875 82.878906 Z M 156.820312 90.480469 L 156.761719 88.738281 C 156.519531 89.019531 156.261719 89.300781 155.980469 89.539062 C 155.71875 89.800781 155.421875 90 155.121094 90.179688 C 154.820312 90.359375 154.5 90.5 154.140625 90.601562 C 153.78125 90.699219 153.398438 90.761719 152.980469 90.761719 C 152.28125 90.761719 151.660156 90.621094 151.121094 90.339844 C 150.558594 90.058594 150.121094 89.660156 149.738281 89.140625 C 149.359375 88.621094 149.078125 87.980469 148.898438 87.238281 C 148.699219 86.480469 148.621094 85.660156 148.621094 84.761719 C 148.621094 83.660156 148.761719 82.699219 149.058594 81.898438 C 149.359375 81.101562 149.800781 80.441406 150.339844 79.921875 C 150.898438 79.398438 151.539062 79 152.300781 78.738281 C 153.039062 78.480469 153.859375 78.359375 154.738281 78.359375 C 155.019531 78.359375 155.320312 78.378906 155.621094 78.421875 C 155.921875 78.460938 156.199219 78.519531 156.421875 78.578125 L 156.421875 73.921875 L 159.300781 73.921875 L 159.300781 90.480469 Z M 151.621094 84.601562 C 151.621094 85.28125 151.660156 85.839844 151.738281 86.300781 C 151.820312 86.78125 151.941406 87.160156 152.121094 87.441406 C 152.300781 87.738281 152.519531 87.960938 152.78125 88.078125 C 153.039062 88.21875 153.339844 88.300781 153.679688 88.300781 C 154.160156 88.300781 154.621094 88.101562 155.039062 87.71875 C 155.480469 87.320312 155.941406 86.800781 156.421875 86.101562 L 156.421875 80.921875 C 156.21875 80.820312 155.941406 80.738281 155.621094 80.679688 C 155.28125 80.640625 154.941406 80.601562 154.621094 80.601562 C 154.140625 80.601562 153.699219 80.699219 153.339844 80.878906 C 152.980469 81.078125 152.660156 81.339844 152.398438 81.679688 C 152.140625 82.019531 151.941406 82.441406 151.820312 82.941406 C 151.679688 83.441406 151.621094 84 151.621094 84.601562 Z M 172.140625 90.019531 C 171.578125 90.238281 171 90.421875 170.421875 90.519531 C 169.820312 90.640625 169.199219 90.699219 168.519531 90.699219 C 167.578125 90.699219 166.738281 90.558594 166 90.300781 C 165.238281 90.039062 164.601562 89.660156 164.078125 89.160156 C 163.558594 88.640625 163.160156 88.019531 162.878906 87.261719 C 162.601562 86.519531 162.460938 85.640625 162.460938 84.660156 C 162.460938 83.699219 162.621094 82.839844 162.921875 82.078125 C 163.21875 81.300781 163.640625 80.640625 164.179688 80.078125 C 164.71875 79.539062 165.378906 79.121094 166.140625 78.820312 C 166.921875 78.539062 167.78125 78.378906 168.738281 78.378906 C 169.519531 78.378906 170.160156 78.421875 170.679688 78.519531 C 171.199219 78.601562 171.679688 78.699219 172.121094 78.820312 L 172.121094 81.601562 C 171.621094 81.359375 171.078125 81.160156 170.519531 81.019531 C 169.960938 80.898438 169.441406 80.820312 168.941406 80.820312 C 168.378906 80.820312 167.898438 80.921875 167.5 81.101562 C 167.078125 81.300781 166.71875 81.539062 166.441406 81.859375 C 166.140625 82.160156 165.921875 82.558594 165.761719 83.019531 C 165.601562 83.460938 165.519531 83.960938 165.519531 84.519531 C 165.519531 85.101562 165.601562 85.621094 165.78125 86.058594 C 165.941406 86.5 166.179688 86.898438 166.480469 87.21875 C 166.78125 87.539062 167.140625 87.78125 167.558594 87.941406 C 167.980469 88.121094 168.441406 88.199219 168.960938 88.199219 C 169.21875 88.199219 169.480469 88.179688 169.761719 88.140625 C 170.039062 88.101562 170.320312 88.039062 170.578125 87.980469 C 170.859375 87.921875 171.121094 87.839844 171.398438 87.761719 C 171.679688 87.679688 171.921875 87.578125 172.140625 87.480469 Z M 172.140625 90.019531 "/>
<path fill-rule="nonzero" fill="rgb(39.99939%, 39.99939%, 39.99939%)" fill-opacity="1" d="M 84 25.601562 L 84 39.601562 C 84 44.019531 87.578125 47.601562 92 47.601562 L 177.019531 47.601562 C 181.441406 47.601562 185.019531 44.019531 185.019531 39.601562 L 185.019531 25.601562 C 185.019531 21.179688 181.441406 17.601562 177.019531 17.601562 L 92 17.601562 C 87.578125 17.601562 84 21.179688 84 25.601562 Z M 84 25.601562 "/>
<path fill-rule="nonzero" fill="rgb(100%, 100%, 100%)" fill-opacity="1" d="M 121.378906 34.019531 L 121.378906 31.601562 L 126.839844 31.601562 L 126.839844 39.800781 C 126.140625 40.121094 125.398438 40.378906 124.640625 40.519531 C 123.878906 40.679688 123.039062 40.761719 122.121094 40.761719 C 121.058594 40.761719 120.101562 40.601562 119.261719 40.261719 C 118.421875 39.921875 117.699219 39.441406 117.101562 38.800781 C 116.519531 38.140625 116.058594 37.339844 115.738281 36.378906 C 115.441406 35.421875 115.28125 34.320312 115.28125 33.039062 C 115.28125 31.78125 115.441406 30.640625 115.78125 29.621094 C 116.121094 28.621094 116.601562 27.761719 117.238281 27.058594 C 117.859375 26.359375 118.640625 25.820312 119.578125 25.460938 C 120.5 25.101562 121.558594 24.921875 122.738281 24.921875 C 123.441406 24.921875 124.121094 24.980469 124.78125 25.078125 C 125.441406 25.199219 126.121094 25.359375 126.78125 25.578125 L 126.78125 28.421875 C 126.21875 28.140625 125.578125 27.921875 124.878906 27.738281 C 124.160156 27.558594 123.460938 27.480469 122.738281 27.480469 C 122.039062 27.480469 121.398438 27.601562 120.859375 27.859375 C 120.300781 28.101562 119.839844 28.460938 119.460938 28.921875 C 119.101562 29.378906 118.800781 29.941406 118.621094 30.621094 C 118.441406 31.300781 118.339844 32.058594 118.339844 32.878906 C 118.339844 33.699219 118.421875 34.441406 118.558594 35.078125 C 118.699219 35.738281 118.941406 36.300781 119.28125 36.761719 C 119.621094 37.21875 120.039062 37.558594 120.558594 37.800781 C 121.078125 38.039062 121.71875 38.160156 122.460938 38.160156 C 122.660156 38.160156 122.820312 38.160156 122.960938 38.160156 C 123.078125 38.140625 123.21875 38.121094 123.320312 38.101562 C 123.441406 38.078125 123.539062 38.058594 123.660156 38.019531 C 123.761719 38 123.878906 37.960938 124 37.921875 L 124 34.019531 Z M 133 27.601562 L 133 31.859375 L 138.78125 31.859375 L 138.78125 34.199219 L 133 34.199219 L 133 40.480469 L 130.058594 40.480469 L 130.058594 25.160156 L 139.121094 25.160156 L 139.121094 27.601562 Z M 153.859375 32.761719 C 153.859375 34.160156 153.699219 35.359375 153.378906 36.359375 C 153.039062 37.359375 152.601562 38.179688 152.039062 38.839844 C 151.480469 39.5 150.820312 39.980469 150.058594 40.300781 C 149.300781 40.601562 148.480469 40.761719 147.601562 40.761719 C 145.578125 40.761719 144.058594 40.078125 143.058594 38.738281 C 142.039062 37.398438 141.539062 35.441406 141.539062 32.878906 C 141.539062 31.519531 141.699219 30.320312 142.019531 29.300781 C 142.359375 28.300781 142.800781 27.460938 143.359375 26.820312 C 143.921875 26.179688 144.578125 25.699219 145.359375 25.378906 C 146.121094 25.078125 146.941406 24.921875 147.800781 24.921875 C 149.820312 24.921875 151.339844 25.578125 152.339844 26.921875 C 153.359375 28.261719 153.859375 30.199219 153.859375 32.761719 Z M 150.820312 32.878906 C 150.820312 31.078125 150.578125 29.71875 150.101562 28.839844 C 149.601562 27.960938 148.800781 27.519531 147.699219 27.519531 C 147.160156 27.519531 146.679688 27.621094 146.300781 27.859375 C 145.898438 28.078125 145.578125 28.421875 145.320312 28.878906 C 145.078125 29.320312 144.878906 29.859375 144.761719 30.519531 C 144.640625 31.160156 144.578125 31.898438 144.578125 32.761719 C 144.578125 34.578125 144.820312 35.921875 145.300781 36.800781 C 145.800781 37.699219 146.601562 38.140625 147.699219 38.140625 C 148.261719 38.140625 148.738281 38.019531 149.140625 37.800781 C 149.539062 37.558594 149.859375 37.21875 150.101562 36.78125 C 150.359375 36.320312 150.539062 35.78125 150.660156 35.140625 C 150.761719 34.5 150.820312 33.738281 150.820312 32.878906 Z M 150.820312 32.878906 "/>
<path fill="none" stroke-width="1" stroke-linecap="butt" stroke-linejoin="miter" stroke="rgb(0%, 0%, 0%)" stroke-opacity="1" stroke-miterlimit="1.45" d="M 923 313.800781 L 976.570312 313.800781 " transform="matrix(2, 0, 0, 2, -1812, -520)"/>
<path fill="none" stroke-width="1" stroke-linecap="butt" stroke-linejoin="miter" stroke="rgb(0%, 0%, 0%)" stroke-opacity="1" stroke-miterlimit="1.45" d="M 936.570312 288.800781 L 963 288.800781 " transform="matrix(2, 0, 0, 2, -1812, -520)"/>
</svg>
