<?xml version="1.0" encoding="UTF-8"?>
<!-- Created with Inkscape (http://www.inkscape.org/) -->
<svg width="226.77" height="71.812" version="1.1" viewBox="0 0 226.77 71.812" xmlns="http://www.w3.org/2000/svg">
 <defs>
  <clipPath id="clipPath20">
   <path d="m0 0h170v53h-170z"/>
  </clipPath>
  <clipPath id="clipPath30">
   <path d="m0 0h171v54h-171z"/>
  </clipPath>
 </defs>
 <g transform="matrix(1.3333 0 0 1.3333 0 2.1286e-6)">
  <g clip-path="url(#clipPath20)">
   <g clip-path="url(#clipPath30)">
    <g fill="#176fc1">
     <path d="m13.738 34.789c-1.746 0.641-4.058 1.223-6.652 1.223-2.59 0-4.902-0.582-6.652-1.223-0.215-0.078-0.434 0.098-0.434 0.352v15.453c0 0.144 0.074 0.277 0.195 0.336 1.399 0.66 3.922 1.605 6.891 1.605 2.941 0 5.484-0.953 6.891-1.613 0.121-0.055 0.195-0.188 0.195-0.336v-15.445c0-0.254-0.219-0.43-0.434-0.352"/>
     <path d="m34.449 52.52c1.75-0.641 4.063-1.223 6.653-1.223 2.593 0 4.906 0.582 6.656 1.219 0.215 0.078 0.433-0.098 0.433-0.348v-15.453c0-0.149-0.074-0.277-0.195-0.336-1.402-0.66-3.926-1.609-6.894-1.609-2.942 0-5.481 0.957-6.891 1.617-0.121 0.054-0.195 0.187-0.195 0.336v15.445c0 0.25 0.218 0.426 0.433 0.352"/>
     <path d="m17.441 52.52c1.75-0.641 4.063-1.223 6.653-1.223 2.594 0 4.906 0.582 6.656 1.219 0.215 0.078 0.43-0.098 0.43-0.348v-15.453c0-0.149-0.075-0.277-0.196-0.336-1.398-0.66-3.922-1.609-6.89-1.609-2.942 0-5.485 0.957-6.891 1.617-0.121 0.054-0.195 0.187-0.195 0.336v15.445c0 0.25 0.219 0.426 0.433 0.352"/>
     <path d="m13.738 15.137c-1.746 0.64-4.058 1.222-6.652 1.222-2.59 0-4.902-0.582-6.652-1.222-0.215-0.078-0.434 0.097-0.434 0.347v15.454c0 0.148 0.074 0.281 0.195 0.339 1.399 0.657 3.922 1.606 6.891 1.606 2.941 0 5.484-0.953 6.891-1.613 0.121-0.059 0.195-0.188 0.195-0.336v-15.45c0-0.25-0.219-0.425-0.434-0.347"/>
     <path d="m34.449 32.863c1.75-0.636 4.063-1.222 6.653-1.222 2.593 0 4.906 0.586 6.656 1.222 0.215 0.078 0.433-0.097 0.433-0.347v-15.454c0-0.148-0.074-0.277-0.195-0.335-1.402-0.661-3.926-1.61-6.894-1.61-2.942 0-5.481 0.953-6.891 1.613-0.121 0.059-0.195 0.192-0.195 0.336v15.45c0 0.25 0.218 0.425 0.433 0.347"/>
     <path d="m17.441 32.863c1.75-0.636 4.063-1.222 6.653-1.222 2.594 0 4.906 0.586 6.656 1.222 0.215 0.078 0.43-0.097 0.43-0.347v-30.575c0-0.144-0.075-0.277-0.196-0.332-1.398-0.664-3.922-1.609-6.89-1.609-2.942 0-5.485 0.953-6.891 1.613-0.121 0.059-0.195 0.188-0.195 0.336v30.567c0 0.25 0.219 0.425 0.433 0.347"/>
     <path d="m74.492 17.086h-2.945v4.019h-3.406v-4.019h-2.946v10.848h2.946v-4.422h3.406v4.422h2.945zm11.438 1.246c-0.891-0.945-2.2-1.418-3.926-1.418-1.723 0-3.035 0.477-3.938 1.43-0.902 0.953-1.355 2.328-1.355 4.136 0 1.825 0.453 3.215 1.363 4.172 0.906 0.953 2.211 1.43 3.914 1.43 1.727 0 3.039-0.473 3.934-1.426 0.894-0.949 1.344-2.336 1.344-4.16 0-1.832-0.446-3.219-1.336-4.164m-3.926 0.988c0.723 0 1.266 0.258 1.629 0.774 0.363 0.519 0.547 1.316 0.547 2.402 0 1.078-0.184 1.871-0.539 2.379-0.36 0.512-0.911 0.766-1.653 0.766-1.461 0-2.187-1.047-2.187-3.145 0-2.117 0.734-3.176 2.203-3.176m13.59 0.207c0.398 0.129 0.801 0.285 1.199 0.473l0.898-2.305c-1.066-0.511-2.187-0.765-3.359-0.765-1.074 0-2.008 0.226-2.801 0.687-0.797 0.457-1.402 1.11-1.828 1.961-0.422 0.852-0.633 1.836-0.633 2.961 0 1.797 0.438 3.168 1.309 4.117 0.875 0.953 2.129 1.426 3.766 1.426 1.144 0 2.167-0.199 3.074-0.602v-2.476c-0.457 0.187-0.91 0.348-1.36 0.48-0.449 0.137-0.914 0.204-1.394 0.204-1.59 0-2.383-1.047-2.383-3.133 0-1.004 0.195-1.793 0.586-2.364 0.391-0.57 0.934-0.859 1.633-0.859 0.461 0 0.89 0.066 1.293 0.195m13.273-2.441h-2.945v4.019h-3.406v-4.019h-2.946v10.848h2.946v-4.422h3.406v4.422h2.945zm9.348 5.73c-0.367-0.48-1.016-0.933-1.949-1.351-0.977-0.445-1.575-0.754-1.793-0.922-0.219-0.168-0.332-0.359-0.332-0.57 0-0.2 0.086-0.364 0.261-0.496 0.172-0.137 0.45-0.204 0.832-0.204 0.735 0 1.614 0.235 2.625 0.7l0.899-2.266c-1.168-0.519-2.313-0.777-3.438-0.777-1.269 0-2.269 0.277-2.996 0.84-0.726 0.558-1.09 1.335-1.09 2.335 0 0.536 0.086 0.997 0.254 1.387 0.172 0.391 0.434 0.738 0.789 1.039 0.352 0.301 0.883 0.614 1.59 0.934 0.781 0.351 1.266 0.586 1.445 0.699 0.18 0.113 0.309 0.227 0.391 0.336 0.082 0.113 0.125 0.242 0.125 0.391 0 0.238-0.101 0.433-0.305 0.586-0.203 0.148-0.523 0.222-0.957 0.222-0.507 0-1.058-0.078-1.664-0.238-0.601-0.164-1.183-0.387-1.742-0.672v2.609c0.528 0.254 1.039 0.43 1.528 0.532 0.492 0.101 1.097 0.152 1.82 0.152 0.863 0 1.617-0.144 2.262-0.434 0.644-0.289 1.136-0.695 1.476-1.214 0.344-0.524 0.512-1.122 0.512-1.793 0-0.735-0.18-1.34-0.543-1.825m8.664-3.289c0.398 0.129 0.801 0.285 1.199 0.473l0.899-2.305c-1.067-0.511-2.184-0.765-3.36-0.765-1.07 0-2.004 0.226-2.797 0.687-0.8 0.457-1.41 1.11-1.832 1.961-0.422 0.852-0.633 1.836-0.633 2.961 0 1.797 0.438 3.168 1.309 4.117 0.875 0.953 2.129 1.426 3.766 1.426 1.14 0 2.168-0.199 3.078-0.602v-2.476c-0.461 0.187-0.91 0.348-1.363 0.48-0.446 0.137-0.915 0.204-1.395 0.204-1.586 0-2.383-1.047-2.383-3.133 0-1.004 0.199-1.793 0.586-2.364 0.395-0.57 0.938-0.859 1.633-0.859 0.461 0 0.891 0.066 1.293 0.195m13.273-2.441h-2.945v4.019h-3.402v-4.019h-2.946v10.848h2.946v-4.422h3.402v4.422h2.945zm8.961 0v6.352c0 0.781-0.136 1.343-0.402 1.687-0.273 0.344-0.703 0.516-1.305 0.516-0.558 0-0.98-0.172-1.265-0.52-0.289-0.344-0.434-0.902-0.434-1.668v-6.367h-2.949v6.598c0 1.418 0.402 2.507 1.195 3.265 0.793 0.754 1.934 1.133 3.406 1.133 1.52 0 2.672-0.387 3.481-1.168 0.805-0.781 1.207-1.879 1.207-3.297v-6.531zm12.637 10.848v-2.368h-4.18v-8.48h-2.925v10.848zm8.328-2.391h-3.512v-2.047h3.254v-2.351h-3.254v-1.707h3.512v-2.352h-6.445v10.848h6.445z"/>
     <path d="m72.711 41.953 2.187-7.801h0.071c-0.063 1.18-0.094 1.918-0.102 2.219-8e-3 0.305-0.012 0.578-0.012 0.824v4.758h2.696v-10.848h-3.91l-2.219 7.704h-0.063l-2.261-7.704h-3.903v10.848h2.598v-4.711c0-0.738-0.055-1.773-0.156-3.101h0.066l2.219 7.812zm10.445-10.848h-2.945v10.848h2.945zm7.375 2.395h2.645v-2.395h-8.223v2.395h2.649v8.453h2.929zm9.633 0h2.641v-2.395h-8.223v2.395h2.648v8.453h2.934zm19.297-2.395h-2.828l-1.199 5.454c-0.289 1.355-0.465 2.308-0.528 2.855-0.054-0.422-0.164-1.066-0.324-1.93-0.164-0.859-0.328-1.617-0.484-2.277l-0.93-4.102h-2.715l-0.957 4.102c-0.144 0.57-0.297 1.289-0.465 2.152-0.164 0.868-0.277 1.551-0.343 2.055-0.098-0.711-0.286-1.668-0.551-2.871l-1.176-5.438h-2.832l2.687 10.848h3.465c0.637-2.848 0.992-4.469 1.082-4.867 0.086-0.402 0.176-0.84 0.266-1.316 0.086-0.481 0.148-0.879 0.187-1.2 0.055 0.395 0.129 0.887 0.235 1.477 0.105 0.59 0.183 0.98 0.238 1.18l1.035 4.726h3.469zm8.16 8.457h-3.508v-2.046h3.246v-2.352h-3.246v-1.707h3.508v-2.352h-6.441v10.848h6.441zm5.344-8.457h-2.945v10.848h2.945zm10.449 1.336c-0.949-0.89-2.293-1.336-4.035-1.336h-3.754v10.848h3.508c1.805 0 3.207-0.488 4.207-1.469 0.992-0.98 1.492-2.375 1.492-4.187 0-1.68-0.473-2.965-1.418-3.856m-2.246 6.332c-0.414 0.516-1.07 0.778-1.961 0.778h-0.656v-6.078h0.855c0.805 0 1.399 0.238 1.793 0.718 0.395 0.481 0.594 1.219 0.594 2.211 0 1.063-0.207 1.856-0.625 2.371m14.965 3.18-3.582-10.894h-3.914l-3.539 10.894h3.218l0.559-2.031h3.516l0.543 2.031zm-6.656-4.437c0.457-1.704 0.742-2.844 0.875-3.422 0.125-0.578 0.218-0.992 0.261-1.246 0.055 0.273 0.153 0.722 0.305 1.351 0.16 0.629 0.293 1.141 0.398 1.535l0.469 1.782z"/>
     <path d="m68.5 46.836v3.316c0 0.852-0.402 1.278-1.215 1.278-0.414 0-0.726-0.106-0.926-0.309-0.203-0.207-0.304-0.527-0.304-0.961v-3.324h-0.86v3.387c0 0.601 0.18 1.078 0.539 1.422 0.364 0.343 0.871 0.519 1.524 0.519 0.437 0 0.812-0.082 1.129-0.238 0.316-0.156 0.558-0.379 0.722-0.672 0.168-0.289 0.25-0.629 0.25-1.02v-3.398zm5.582 2.664c0-0.973-0.477-1.457-1.43-1.457-0.269 0-0.515 0.051-0.734 0.152-0.223 0.106-0.391 0.25-0.512 0.442h-0.043l-0.117-0.524h-0.66v3.977h0.844v-1.981c0-0.496 0.082-0.851 0.246-1.058 0.168-0.211 0.426-0.321 0.785-0.321 0.269 0 0.465 0.079 0.586 0.231 0.125 0.148 0.187 0.379 0.187 0.684v2.445h0.848zm1.984-1.387h-0.847v3.977h0.847zm-0.773-0.711c0.086 0.078 0.203 0.121 0.355 0.121 0.149 0 0.266-0.043 0.348-0.121 0.082-0.086 0.125-0.195 0.125-0.34 0-0.152-0.043-0.269-0.125-0.351-0.082-0.078-0.199-0.121-0.348-0.121-0.152 0-0.269 0.043-0.355 0.121-0.082 0.082-0.121 0.199-0.121 0.351 0 0.145 0.039 0.254 0.121 0.34m3.867 4.688 1.52-3.977h-0.899l-0.808 2.313c-0.149 0.457-0.231 0.769-0.254 0.941h-0.028c-0.027-0.238-0.113-0.555-0.253-0.941l-0.809-2.313h-0.891l1.512 3.977zm4.524 0.012c0.211-0.043 0.421-0.11 0.628-0.211v-0.684c-0.234 0.102-0.453 0.176-0.656 0.219-0.199 0.047-0.418 0.066-0.652 0.066-0.359 0-0.637-0.101-0.832-0.308s-0.301-0.504-0.313-0.891h2.649v-0.457c0-0.559-0.153-0.996-0.457-1.316-0.301-0.317-0.719-0.477-1.242-0.477-0.567 0-1.012 0.184-1.336 0.555-0.321 0.375-0.485 0.882-0.485 1.535 0 0.629 0.176 1.129 0.524 1.488 0.347 0.359 0.832 0.543 1.453 0.543 0.269 0 0.508-0.023 0.719-0.062m-0.243-3.168c0.153 0.171 0.231 0.418 0.239 0.746h-1.805c0.027-0.325 0.125-0.575 0.289-0.742 0.16-0.172 0.375-0.254 0.645-0.254 0.269 0 0.48 0.082 0.632 0.25m3.375-0.684c-0.214 0.141-0.386 0.328-0.515 0.562h-0.043l-0.113-0.699h-0.661v3.977h0.844v-2.078c0-0.352 0.106-0.637 0.313-0.86 0.211-0.218 0.484-0.332 0.824-0.332 0.129 0 0.254 0.016 0.375 0.043l0.082-0.785c-0.113-0.023-0.25-0.035-0.422-0.035-0.242 0-0.473 0.07-0.684 0.207m4.493 2.215c-0.071-0.141-0.18-0.262-0.329-0.367-0.148-0.106-0.386-0.219-0.714-0.348-0.391-0.152-0.645-0.27-0.762-0.355-0.117-0.086-0.172-0.192-0.172-0.317 0-0.254 0.219-0.383 0.668-0.383 0.293 0 0.652 0.09 1.082 0.27l0.273-0.637c-0.417-0.191-0.859-0.285-1.328-0.285-0.472 0-0.843 0.094-1.121 0.281-0.273 0.188-0.41 0.453-0.41 0.793 0 0.281 0.082 0.512 0.242 0.692 0.16 0.175 0.473 0.355 0.93 0.531 0.234 0.09 0.418 0.172 0.551 0.246 0.129 0.07 0.226 0.141 0.285 0.207 0.055 0.066 0.086 0.148 0.086 0.25 0 0.312-0.262 0.473-0.781 0.473-0.403 0-0.84-0.11-1.305-0.325v0.731c0.32 0.16 0.746 0.242 1.273 0.242 0.528 0 0.934-0.105 1.219-0.312 0.281-0.207 0.422-0.504 0.422-0.895 0-0.191-0.035-0.355-0.109-0.492m1.855-2.352h-0.844v3.977h0.844zm-0.769-0.711c0.082 0.078 0.199 0.121 0.355 0.121 0.145 0 0.262-0.043 0.344-0.121 0.082-0.086 0.125-0.195 0.125-0.34 0-0.152-0.043-0.269-0.125-0.351-0.082-0.078-0.199-0.121-0.344-0.121-0.156 0-0.273 0.043-0.355 0.121-0.086 0.082-0.125 0.199-0.125 0.351 0 0.145 0.039 0.254 0.125 0.34m3.058 3.93c-0.101-0.098-0.152-0.246-0.152-0.449v-2.129h1.133v-0.641h-1.133v-0.883h-0.524l-0.285 0.84-0.586 0.309v0.375h0.547v2.141c0 0.843 0.399 1.269 1.199 1.269 0.157 0 0.313-0.016 0.457-0.043 0.149-0.027 0.27-0.062 0.364-0.101v-0.637c-0.207 0.062-0.414 0.097-0.621 0.097-0.164 0-0.297-0.05-0.399-0.148m3.063 0.758-0.149 0.375c-0.164 0.473-0.453 0.707-0.859 0.707-0.164 0-0.309-0.016-0.438-0.043v0.668c0.18 0.043 0.364 0.062 0.551 0.062 0.719 0 1.234-0.414 1.543-1.238l1.699-4.508h-0.91c-0.555 1.602-0.855 2.492-0.914 2.68-0.059 0.187-0.098 0.348-0.117 0.48h-0.031c-0.039-0.281-0.121-0.585-0.243-0.906l-0.808-2.254h-0.922zm7.699-3.492c-0.336-0.371-0.793-0.555-1.367-0.555-0.602 0-1.067 0.18-1.399 0.543-0.328 0.359-0.496 0.863-0.496 1.508 0 0.414 0.078 0.781 0.231 1.094 0.152 0.316 0.371 0.554 0.656 0.722s0.617 0.254 0.988 0.254c0.594 0 1.055-0.184 1.391-0.551 0.332-0.363 0.5-0.867 0.5-1.519 0-0.625-0.168-1.125-0.504-1.496m-2.153 0.488c0.161-0.234 0.415-0.356 0.774-0.356 0.672 0 1.012 0.458 1.012 1.364 0 0.918-0.336 1.379-1.008 1.379-0.676 0-1.016-0.461-1.016-1.379 0-0.438 0.078-0.774 0.238-1.008m5.59-0.973h-0.968v-0.258c0-0.238 0.043-0.417 0.128-0.535 0.09-0.117 0.231-0.175 0.418-0.175 0.192 0 0.391 0.031 0.602 0.101l0.219-0.641c-0.285-0.097-0.578-0.148-0.875-0.148-0.453 0-0.789 0.113-1.008 0.34-0.223 0.226-0.332 0.574-0.332 1.043v0.262l-0.656 0.257v0.395h0.656v3.336h0.848v-3.336h0.968zm6.66 3.977-1.964-5.278h-0.934l-1.969 5.278h0.907l0.515-1.457h2.008l0.523 1.457zm-3.191-2.199 0.473-1.371c0.125-0.348 0.218-0.672 0.281-0.965 0.023 0.093 0.07 0.246 0.133 0.453 0.062 0.207 0.113 0.355 0.148 0.453l0.492 1.43zm7.09 1.722c0.277-0.363 0.422-0.867 0.422-1.519 0-0.649-0.141-1.153-0.418-1.512s-0.664-0.539-1.16-0.539c-0.528 0-0.922 0.199-1.184 0.602h-0.043c-0.062-0.278-0.101-0.457-0.117-0.532h-0.688v5.746h0.848v-1.629c0-0.074-0.019-0.273-0.051-0.609h0.051c0.277 0.359 0.668 0.543 1.172 0.543 0.496 0 0.883-0.184 1.168-0.551m-0.684-2.539c0.161 0.231 0.239 0.567 0.239 1.012s-0.078 0.789-0.239 1.027c-0.156 0.239-0.382 0.36-0.675 0.36-0.348 0-0.598-0.11-0.75-0.328-0.157-0.215-0.231-0.567-0.231-1.051v-0.125c0-0.43 0.074-0.746 0.231-0.942 0.156-0.195 0.402-0.297 0.734-0.297 0.305 0 0.539 0.118 0.691 0.344m5.27 2.539c0.281-0.363 0.43-0.867 0.43-1.519 0-0.649-0.141-1.153-0.422-1.512-0.274-0.359-0.66-0.539-1.16-0.539-0.524 0-0.918 0.199-1.184 0.602h-0.043c-0.059-0.278-0.102-0.457-0.121-0.532h-0.676v5.746h0.84v-1.629c0-0.074-0.016-0.273-0.047-0.609h0.047c0.277 0.359 0.672 0.543 1.172 0.543s0.887-0.184 1.164-0.551m-0.676-2.539c0.156 0.231 0.238 0.567 0.238 1.012s-0.082 0.789-0.238 1.027c-0.16 0.239-0.383 0.36-0.676 0.36-0.347 0-0.601-0.11-0.754-0.328-0.152-0.215-0.23-0.567-0.23-1.051v-0.125c0-0.43 0.078-0.746 0.23-0.942 0.153-0.195 0.403-0.297 0.743-0.297 0.296 0 0.531 0.118 0.687 0.344m2.938-2.578h-0.848v5.594h0.848zm2.019 1.617h-0.848v3.977h0.848zm-0.773-0.711c0.086 0.078 0.199 0.121 0.351 0.121 0.156 0 0.27-0.043 0.348-0.121 0.09-0.086 0.129-0.195 0.129-0.34 0-0.152-0.039-0.269-0.129-0.351-0.078-0.078-0.192-0.121-0.348-0.121-0.152 0-0.265 0.043-0.351 0.121-0.078 0.082-0.121 0.199-0.121 0.351 0 0.145 0.043 0.254 0.121 0.34m4.422 4.7c0.211-0.043 0.418-0.11 0.625-0.211v-0.684c-0.231 0.102-0.454 0.176-0.653 0.219-0.199 0.047-0.422 0.066-0.652 0.066-0.363 0-0.633-0.101-0.836-0.308-0.191-0.207-0.297-0.504-0.313-0.891h2.653v-0.457c0-0.559-0.153-0.996-0.457-1.316-0.301-0.317-0.719-0.477-1.242-0.477-0.567 0-1.012 0.184-1.332 0.555-0.329 0.375-0.489 0.882-0.489 1.535 0 0.629 0.176 1.129 0.52 1.488 0.347 0.359 0.836 0.543 1.453 0.543 0.269 0 0.516-0.023 0.723-0.062m-0.25-3.168c0.156 0.171 0.234 0.418 0.242 0.746h-1.805c0.031-0.325 0.133-0.575 0.293-0.742 0.156-0.172 0.371-0.254 0.645-0.254 0.269 0 0.472 0.082 0.625 0.25m4.609 2.636h0.039l0.148 0.52h0.661v-5.594h-0.848v1.449c0 0.164 0.019 0.391 0.059 0.676h-0.04c-0.273-0.387-0.671-0.578-1.191-0.578-0.5 0-0.894 0.18-1.176 0.543-0.277 0.363-0.422 0.871-0.422 1.523 0 0.649 0.145 1.153 0.414 1.516 0.282 0.355 0.668 0.539 1.168 0.539 0.52 0 0.914-0.199 1.188-0.594m-1.668-0.437c-0.152-0.231-0.234-0.571-0.234-1.008 0-0.445 0.082-0.789 0.25-1.031 0.16-0.242 0.382-0.364 0.679-0.364 0.352 0 0.606 0.11 0.766 0.321 0.168 0.207 0.246 0.562 0.246 1.066v0.117c-4e-3 0.438-0.086 0.758-0.246 0.954-0.152 0.195-0.406 0.292-0.754 0.292-0.313 0-0.547-0.117-0.707-0.347m8.441-1.086c-0.086-0.176-0.214-0.332-0.394-0.473-0.18-0.14-0.465-0.289-0.852-0.449-0.34-0.145-0.582-0.254-0.707-0.344-0.133-0.086-0.226-0.176-0.285-0.273-0.062-0.098-0.09-0.215-0.09-0.352 0-0.199 0.074-0.359 0.215-0.48 0.145-0.121 0.359-0.18 0.633-0.18 0.367 0 0.789 0.098 1.254 0.297l0.273-0.703c-0.5-0.219-1-0.332-1.5-0.332-0.527 0-0.945 0.129-1.261 0.379-0.305 0.25-0.465 0.593-0.465 1.035 0 0.348 0.097 0.648 0.293 0.898 0.199 0.25 0.539 0.473 1.019 0.664 0.461 0.188 0.766 0.352 0.922 0.489 0.145 0.132 0.219 0.3 0.219 0.5 0 0.215-0.082 0.39-0.242 0.519-0.164 0.129-0.414 0.196-0.754 0.196-0.231 0-0.485-0.036-0.75-0.098-0.274-0.067-0.528-0.156-0.766-0.266v0.813c0.379 0.183 0.863 0.277 1.457 0.277s1.059-0.137 1.399-0.402c0.335-0.266 0.507-0.633 0.507-1.098 0-0.238-0.046-0.445-0.125-0.617m3.34 2.058c0.164-0.039 0.324-0.101 0.481-0.191v-0.738c-0.336 0.187-0.696 0.281-1.067 0.281-0.336 0-0.582-0.113-0.754-0.336-0.175-0.226-0.261-0.559-0.261-1.004 0-0.914 0.347-1.371 1.035-1.371 0.23 0 0.523 0.07 0.887 0.211l0.253-0.68c-0.335-0.156-0.714-0.234-1.136-0.234-0.614 0-1.086 0.18-1.41 0.539-0.336 0.359-0.497 0.875-0.497 1.543 0 0.656 0.157 1.16 0.469 1.512 0.313 0.351 0.774 0.527 1.371 0.527 0.246 0 0.453-0.019 0.629-0.059m2.219-3.992h-0.848v3.977h0.848zm-0.773-0.711c0.085 0.078 0.199 0.121 0.355 0.121 0.152 0 0.266-0.043 0.344-0.121 0.09-0.086 0.129-0.195 0.129-0.34 0-0.152-0.039-0.269-0.129-0.351-0.078-0.078-0.192-0.121-0.344-0.121-0.156 0-0.27 0.043-0.355 0.121-0.079 0.082-0.122 0.199-0.122 0.351 0 0.145 0.043 0.254 0.122 0.34m4.421 4.7c0.211-0.043 0.418-0.11 0.625-0.211v-0.684c-0.23 0.102-0.453 0.176-0.652 0.219-0.199 0.047-0.418 0.066-0.652 0.066-0.364 0-0.641-0.101-0.836-0.308-0.199-0.207-0.297-0.504-0.313-0.891h2.649v-0.457c0-0.559-0.149-0.996-0.453-1.316-0.309-0.317-0.723-0.477-1.25-0.477-0.559 0-1.004 0.184-1.332 0.555-0.321 0.375-0.477 0.882-0.477 1.535 0 0.629 0.172 1.129 0.516 1.488 0.347 0.359 0.836 0.543 1.453 0.543 0.269 0 0.508-0.023 0.722-0.062m-0.25-3.168c0.157 0.171 0.235 0.418 0.243 0.746h-1.805c0.031-0.325 0.125-0.575 0.293-0.742 0.16-0.172 0.371-0.254 0.637-0.254 0.277 0 0.484 0.082 0.632 0.25m5.543 0.566c0-0.973-0.472-1.457-1.425-1.457-0.278 0-0.516 0.051-0.735 0.152-0.222 0.106-0.394 0.25-0.515 0.442h-0.039l-0.122-0.524h-0.66v3.977h0.844v-1.981c0-0.496 0.086-0.851 0.254-1.058 0.16-0.211 0.426-0.321 0.777-0.321 0.266 0 0.469 0.079 0.586 0.231 0.129 0.148 0.188 0.379 0.188 0.684v2.445h0.847zm3.399 2.605c0.176-0.039 0.336-0.101 0.488-0.191v-0.738c-0.34 0.187-0.695 0.281-1.066 0.281-0.336 0-0.586-0.113-0.754-0.336-0.172-0.226-0.258-0.559-0.258-1.004 0-0.914 0.344-1.371 1.031-1.371 0.235 0 0.528 0.07 0.879 0.211l0.262-0.68c-0.34-0.156-0.715-0.234-1.133-0.234-0.621 0-1.094 0.18-1.422 0.539-0.324 0.359-0.488 0.875-0.488 1.543 0 0.656 0.156 1.16 0.469 1.512 0.312 0.351 0.765 0.527 1.371 0.527 0.242 0 0.449-0.019 0.621-0.059m3.828-3e-3c0.211-0.043 0.418-0.11 0.625-0.211v-0.684c-0.234 0.102-0.453 0.176-0.652 0.219-0.207 0.047-0.422 0.066-0.661 0.066-0.351 0-0.632-0.101-0.828-0.308-0.195-0.207-0.297-0.504-0.312-0.891h2.648v-0.457c0-0.559-0.148-0.996-0.453-1.316-0.308-0.317-0.723-0.477-1.246-0.477-0.57 0-1.008 0.184-1.332 0.555-0.324 0.375-0.488 0.882-0.488 1.535 0 0.629 0.179 1.129 0.527 1.488 0.344 0.359 0.832 0.543 1.449 0.543 0.27 0 0.512-0.023 0.723-0.062m-0.246-3.168c0.152 0.171 0.23 0.418 0.238 0.746h-1.805c0.032-0.325 0.125-0.575 0.293-0.742 0.161-0.172 0.372-0.254 0.641-0.254 0.27 0 0.477 0.082 0.633 0.25m4.625 1.531c-0.067-0.141-0.18-0.262-0.328-0.367-0.153-0.106-0.383-0.219-0.719-0.348-0.387-0.152-0.641-0.27-0.762-0.355-0.109-0.086-0.172-0.192-0.172-0.317 0-0.254 0.227-0.383 0.672-0.383 0.289 0 0.649 0.09 1.082 0.27l0.274-0.637c-0.418-0.191-0.86-0.285-1.328-0.285-0.473 0-0.844 0.094-1.118 0.281-0.273 0.188-0.414 0.453-0.414 0.793 0 0.281 0.078 0.512 0.246 0.692 0.161 0.175 0.465 0.355 0.926 0.531 0.235 0.09 0.422 0.172 0.551 0.246 0.129 0.07 0.223 0.141 0.281 0.207 0.063 0.066 0.09 0.148 0.09 0.25 0 0.312-0.262 0.473-0.781 0.473-0.399 0-0.84-0.11-1.309-0.325v0.731c0.321 0.16 0.75 0.242 1.282 0.242 0.527 0 0.925-0.105 1.214-0.312 0.282-0.207 0.426-0.504 0.426-0.895 0-0.191-0.039-0.355-0.113-0.492"/>
    </g>
   </g>
  </g>
 </g>
</svg>
