<?xml version="1.0"?>
<svg xmlns="http://www.w3.org/2000/svg" xmlns:xlink="http://www.w3.org/1999/xlink" version="1.1" x="0" y="0" viewBox="10 0 80 100" enable-background="new 0 0 90 90" xml:space="preserve" height="123.5904127452337" width="117.63823628471968" class="icon-symbol-0" id="symbol-0">
<style>
path { fill: #4a7db5; }
@media ( prefers-color-scheme: dark ) {	path {	fill: white;}}
</style>
<path d="M78.706 6.657c-3.289-0.95-6.656-0.215-9.208 1.68-1.148-2.963-3.605-5.382-6.895-6.33-5.588-1.612-11.429 1.607-13.041 7.198-1.614 5.588 1.606 11.432 7.197 13.044 0.248 0.072 0.502 0.115 0.747 0.168l-1.792 5.881c1.853 2.923 3.126 6.213 3.725 9.728 1.188 6.977-0.408 14-4.505 19.776-4.961 6.997-13.049 11.179-21.635 11.179-0.511 0-1.018-0.03-1.521-0.061-0.201 0.446-0.381 0.903-0.519 1.384-1.612 5.591 1.607 11.428 7.195 13.042 3.292 0.952 6.661 0.216 9.21-1.68 1.146 2.963 3.605 5.385 6.893 6.327 5.59 1.615 11.429-1.604 13.044-7.195 1.614-5.59-1.61-11.432-7.2-13.041-0.248-0.075-0.497-0.12-0.75-0.17l12.49-40.946c0.235 0.087 0.471 0.183 0.722 0.258 5.588 1.609 11.43-1.612 13.039-7.2C87.519 14.11 84.294 8.271 78.706 6.657z"/>
<path d="M23.457 63.677c2.855 1.231 5.917 1.929 9.078 1.929h0.002c7.494 0 14.554-3.65 18.883-9.755 3.572-5.039 4.969-11.173 3.931-17.26-1.037-6.089-4.385-11.412-9.426-14.981-3.931-2.788-8.549-4.262-13.355-4.262-7.496 0-14.556 3.648-18.885 9.757-3.572 5.039-4.969 11.166-3.931 17.26 0.84 4.923 3.211 9.325 6.744 12.725L5.327 71.907c-0.028 0.025-0.048 0.058-0.076 0.086l-0.496 0.571 0.018 0.01c-0.677 0.923-1.091 2.054-1.091 3.284 0 3.079 2.495 5.576 5.573 5.576 1.908 0 3.587-0.963 4.593-2.427l0.008 0.005L23.457 63.677zM14.893 45.485c-0.805-4.716 0.276-9.464 3.043-13.368 3.354-4.733 8.825-7.556 14.633-7.556 3.721 0 7.295 1.139 10.341 3.299 3.903 2.768 6.498 6.889 7.301 11.605 0.805 4.716-0.276 9.465-3.044 13.371-3.354 4.729-8.824 7.556-14.633 7.556-3.72 0-7.295-1.143-10.341-3.299C18.29 54.326 15.695 50.204 14.893 45.485z"/>
<path d="M32.931 58.151c5.082 0 9.867-2.472 12.803-6.613 2.419-3.414 3.367-7.57 2.662-11.694-0.704-4.129-2.971-7.731-6.388-10.153-2.665-1.888-5.793-2.888-9.048-2.888-0.762 0-1.512 0.075-2.254 0.181l-8.551 26.836c0.542 0.517 1.111 1.003 1.728 1.444C26.551 57.154 29.677 58.151 32.931 58.151zM41.091 41.87c0.867 0 1.574 0.707 1.574 1.574 0 0.87-0.707 1.574-1.574 1.574-0.87 0-1.575-0.704-1.575-1.574C39.517 42.577 40.221 41.87 41.091 41.87zM38.81 46.042c0 1.149-0.933 2.077-2.079 2.077-1.148 0-2.078-0.928-2.078-2.077 0-1.148 0.93-2.076 2.078-2.076C37.877 43.966 38.81 44.894 38.81 46.042zM34.653 32.434c0.945 0 1.71 0.765 1.71 1.71 0 0.942-0.765 1.707-1.71 1.707-0.943 0-1.708-0.765-1.708-1.707C32.946 33.198 33.71 32.434 34.653 32.434zM28.842 49.598c0.715 0 1.294 0.582 1.294 1.294 0 0.717-0.579 1.294-1.294 1.294-0.717 0-1.293-0.577-1.293-1.294C27.548 50.18 28.125 49.598 28.842 49.598z"/>
</svg>
