<?xml version="1.0" encoding="UTF-8" standalone="no"?>
<svg
   xmlns:dc="http://purl.org/dc/elements/1.1/"
   xmlns:cc="http://creativecommons.org/ns#"
   xmlns:rdf="http://www.w3.org/1999/02/22-rdf-syntax-ns#"
   xmlns:svg="http://www.w3.org/2000/svg"
   xmlns="http://www.w3.org/2000/svg"
   xmlns:sodipodi="http://sodipodi.sourceforge.net/DTD/sodipodi-0.dtd"
   xmlns:inkscape="http://www.inkscape.org/namespaces/inkscape"
   version="1.1"
   id="svg2"
   xml:space="preserve"
   width="278.9068"
   height="110.27587"
   viewBox="0 0 278.9068 110.27587"
   sodipodi:docname="medfak.pdf"
   inkscape:version="1.0.2 (e86c870879, 2021-01-15, custom)"><metadata
     id="metadata8"><rdf:RDF><cc:Work
         rdf:about=""><dc:format>image/svg+xml</dc:format><dc:type
           rdf:resource="http://purl.org/dc/dcmitype/StillImage" /><dc:title></dc:title></cc:Work></rdf:RDF></metadata><defs
     id="defs6"><clipPath
       clipPathUnits="userSpaceOnUse"
       id="clipPath22"><path
         d="M 0,0 H 210 V 83 H 0 Z"
         id="path20" /></clipPath></defs><sodipodi:namedview
     pagecolor="#ffffff"
     bordercolor="#666666"
     borderopacity="1"
     objecttolerance="10"
     gridtolerance="10"
     guidetolerance="10"
     inkscape:pageopacity="0"
     inkscape:pageshadow="2"
     inkscape:window-width="851"
     inkscape:window-height="480"
     id="namedview4"
     showgrid="false"
     inkscape:zoom="1.5449424"
     inkscape:cx="139.4534"
     inkscape:cy="55.137936"
     inkscape:window-x="0"
     inkscape:window-y="0"
     inkscape:window-maximized="0"
     inkscape:current-layer="g10" /><g
     id="g10"
     inkscape:groupmode="layer"
     inkscape:label="medfak"
     transform="matrix(1.3333333,0,0,1.3333333,0,3.4235634e-6)"><g
       id="g12"><g
         id="g14"><g
           id="g16"><g
             id="g18"
             clip-path="url(#clipPath22)"><g
               id="g24"><path
                 d="m 95.172,73.602 3.012,6.96 3.027,-6.96 1.684,8.765 h -0.95 l -1.066,-5.609 h -0.02 l -2.675,5.949 -2.661,-5.949 H 95.5 l -1.066,5.609 h -0.946 l 1.684,-8.765"
                 style="fill:#918f90;fill-opacity:1;fill-rule:nonzero;stroke:none"
                 id="path26" /><path
                 d="m 107.523,79.219 c -0.027,-0.18 -0.089,-0.356 -0.179,-0.52 -0.094,-0.168 -0.203,-0.312 -0.336,-0.433 -0.133,-0.125 -0.285,-0.223 -0.457,-0.293 -0.172,-0.071 -0.356,-0.106 -0.543,-0.106 -0.192,0 -0.375,0.035 -0.551,0.106 -0.176,0.07 -0.336,0.168 -0.48,0.293 -0.141,0.121 -0.262,0.265 -0.356,0.433 -0.098,0.164 -0.16,0.34 -0.187,0.52 z m -3.132,0.75 c 0,0.242 0.039,0.469 0.125,0.676 0.086,0.21 0.199,0.39 0.347,0.546 0.145,0.153 0.325,0.274 0.532,0.368 0.21,0.089 0.441,0.136 0.687,0.136 0.375,0 0.688,-0.101 0.941,-0.3 0.254,-0.204 0.465,-0.457 0.633,-0.766 l 0.746,0.43 c -0.246,0.461 -0.578,0.816 -0.98,1.07 -0.41,0.254 -0.875,0.379 -1.406,0.379 -0.387,0 -0.739,-0.067 -1.047,-0.207 -0.313,-0.141 -0.578,-0.328 -0.801,-0.567 -0.219,-0.238 -0.387,-0.519 -0.504,-0.839 -0.117,-0.325 -0.176,-0.672 -0.176,-1.047 0,-0.383 0.055,-0.743 0.164,-1.082 0.11,-0.344 0.27,-0.641 0.485,-0.891 0.211,-0.254 0.472,-0.453 0.785,-0.602 0.312,-0.144 0.672,-0.218 1.074,-0.218 0.418,0 0.785,0.078 1.098,0.234 0.316,0.16 0.578,0.375 0.789,0.645 0.207,0.273 0.359,0.582 0.457,0.933 0.094,0.352 0.129,0.719 0.109,1.102 h -4.058"
                 style="fill:#918f90;fill-opacity:1;fill-rule:nonzero;stroke:none"
                 id="path28" /><path
                 d="m 111.805,77.867 c -0.258,0 -0.489,0.051 -0.696,0.156 -0.203,0.102 -0.382,0.239 -0.527,0.411 -0.148,0.171 -0.262,0.371 -0.34,0.593 -0.082,0.227 -0.121,0.457 -0.121,0.7 0,0.257 0.035,0.503 0.109,0.738 0.075,0.234 0.18,0.441 0.325,0.625 0.144,0.183 0.32,0.332 0.527,0.441 0.211,0.11 0.453,0.164 0.73,0.164 0.29,0 0.536,-0.05 0.75,-0.16 0.211,-0.105 0.391,-0.25 0.54,-0.43 0.148,-0.179 0.253,-0.386 0.328,-0.621 0.074,-0.234 0.113,-0.484 0.113,-0.746 0,-0.258 -0.043,-0.5 -0.121,-0.726 -0.082,-0.227 -0.195,-0.426 -0.344,-0.594 -0.144,-0.168 -0.328,-0.305 -0.543,-0.402 -0.219,-0.098 -0.461,-0.149 -0.73,-0.149 z m 1.691,3.785 h -0.019 c -0.215,0.278 -0.477,0.493 -0.789,0.637 -0.309,0.149 -0.641,0.219 -0.997,0.219 -0.379,0 -0.722,-0.074 -1.027,-0.223 -0.305,-0.152 -0.566,-0.351 -0.781,-0.601 -0.215,-0.25 -0.379,-0.536 -0.496,-0.864 -0.114,-0.328 -0.168,-0.668 -0.168,-1.027 0,-0.367 0.054,-0.719 0.168,-1.051 0.117,-0.332 0.277,-0.625 0.492,-0.875 0.211,-0.25 0.473,-0.445 0.781,-0.594 0.309,-0.144 0.656,-0.218 1.043,-0.218 0.352,0 0.684,0.074 0.992,0.23 0.309,0.153 0.567,0.371 0.782,0.649 h 0.019 v -4.641 h 0.883 v 9.074 h -0.883 v -0.715"
                 style="fill:#918f90;fill-opacity:1;fill-rule:nonzero;stroke:none"
                 id="path30" /><path
                 d="m 117.051,82.367 h -0.879 v -5.172 h 0.879 z m -0.442,-7.746 c 0.168,0 0.317,0.063 0.442,0.188 0.125,0.125 0.187,0.273 0.187,0.441 0,0.176 -0.062,0.324 -0.187,0.445 -0.125,0.121 -0.274,0.18 -0.442,0.18 -0.168,0 -0.312,-0.059 -0.437,-0.18 -0.125,-0.121 -0.188,-0.269 -0.188,-0.445 0,-0.168 0.063,-0.316 0.188,-0.441 0.125,-0.125 0.269,-0.188 0.437,-0.188"
                 style="fill:#918f90;fill-opacity:1;fill-rule:nonzero;stroke:none"
                 id="path32" /><path
                 d="m 123.508,81.551 v 0.816 h -5.348 l 3.731,-4.355 h -3.039 v -0.817 h 4.808 l -3.719,4.356 h 3.567"
                 style="fill:#918f90;fill-opacity:1;fill-rule:nonzero;stroke:none"
                 id="path34" /><path
                 d="m 125.641,82.367 h -0.879 v -5.172 h 0.879 z m -0.442,-7.746 c 0.168,0 0.317,0.063 0.442,0.188 0.125,0.125 0.187,0.273 0.187,0.441 0,0.176 -0.062,0.324 -0.187,0.445 -0.125,0.121 -0.274,0.18 -0.442,0.18 -0.168,0 -0.312,-0.059 -0.437,-0.18 -0.125,-0.121 -0.188,-0.269 -0.188,-0.445 0,-0.168 0.063,-0.316 0.188,-0.441 0.125,-0.125 0.269,-0.188 0.437,-0.188"
                 style="fill:#918f90;fill-opacity:1;fill-rule:nonzero;stroke:none"
                 id="path36" /><path
                 d="m 128.355,77.824 h 0.024 c 0.183,-0.25 0.394,-0.441 0.633,-0.574 0.238,-0.129 0.519,-0.195 0.84,-0.195 0.363,0 0.656,0.058 0.882,0.179 0.227,0.121 0.407,0.286 0.539,0.493 0.129,0.203 0.219,0.441 0.27,0.714 0.047,0.27 0.07,0.555 0.07,0.856 v 3.07 h -0.879 v -2.914 c 0,-0.207 -0.011,-0.406 -0.027,-0.601 -0.019,-0.196 -0.062,-0.364 -0.133,-0.504 -0.07,-0.145 -0.179,-0.262 -0.324,-0.348 -0.148,-0.09 -0.348,-0.133 -0.605,-0.133 -0.301,0 -0.54,0.067 -0.711,0.192 -0.172,0.129 -0.297,0.293 -0.383,0.492 -0.086,0.195 -0.137,0.418 -0.16,0.66 -0.024,0.242 -0.036,0.477 -0.036,0.703 v 2.453 h -0.878 v -5.172 h 0.878 v 0.629"
                 style="fill:#918f90;fill-opacity:1;fill-rule:nonzero;stroke:none"
                 id="path38" /><path
                 d="m 134.332,82.367 h -0.883 v -5.172 h 0.883 z m -0.441,-7.746 c 0.168,0 0.316,0.063 0.441,0.188 0.125,0.125 0.184,0.273 0.184,0.441 0,0.176 -0.059,0.324 -0.184,0.445 -0.125,0.121 -0.273,0.18 -0.441,0.18 -0.168,0 -0.317,-0.059 -0.442,-0.18 -0.125,-0.121 -0.187,-0.269 -0.187,-0.445 0,-0.168 0.062,-0.316 0.187,-0.441 0.125,-0.125 0.274,-0.188 0.442,-0.188"
                 style="fill:#918f90;fill-opacity:1;fill-rule:nonzero;stroke:none"
                 id="path40" /><path
                 d="m 138.258,78.395 c -0.059,-0.137 -0.153,-0.262 -0.274,-0.368 -0.125,-0.105 -0.269,-0.16 -0.429,-0.16 -0.157,0 -0.301,0.055 -0.438,0.16 -0.133,0.106 -0.203,0.243 -0.203,0.414 0,0.118 0.035,0.215 0.106,0.301 0.07,0.086 0.16,0.16 0.269,0.231 0.109,0.07 0.238,0.132 0.379,0.187 0.144,0.055 0.293,0.117 0.445,0.18 0.157,0.066 0.305,0.14 0.446,0.222 0.14,0.079 0.269,0.176 0.382,0.29 0.11,0.117 0.2,0.25 0.27,0.41 0.066,0.156 0.101,0.343 0.101,0.562 0,0.246 -0.042,0.469 -0.136,0.68 -0.09,0.207 -0.219,0.387 -0.379,0.531 -0.16,0.149 -0.348,0.266 -0.555,0.348 -0.211,0.086 -0.437,0.125 -0.676,0.125 -0.441,0 -0.824,-0.113 -1.14,-0.344 -0.321,-0.23 -0.547,-0.551 -0.688,-0.965 l 0.782,-0.328 c 0.109,0.242 0.238,0.441 0.39,0.594 0.149,0.152 0.371,0.23 0.664,0.23 0.235,0 0.434,-0.074 0.594,-0.218 0.164,-0.149 0.242,-0.34 0.242,-0.575 0,-0.187 -0.055,-0.343 -0.168,-0.461 -0.113,-0.117 -0.258,-0.218 -0.437,-0.308 -0.176,-0.086 -0.36,-0.168 -0.563,-0.246 -0.195,-0.078 -0.383,-0.172 -0.558,-0.285 -0.176,-0.114 -0.321,-0.258 -0.434,-0.426 -0.113,-0.168 -0.172,-0.387 -0.172,-0.66 0,-0.219 0.039,-0.418 0.121,-0.598 0.082,-0.18 0.196,-0.336 0.336,-0.461 0.145,-0.129 0.309,-0.23 0.492,-0.301 0.18,-0.066 0.379,-0.101 0.59,-0.101 0.305,0 0.578,0.09 0.828,0.273 0.25,0.184 0.434,0.41 0.547,0.684 l -0.734,0.383"
                 style="fill:#918f90;fill-opacity:1;fill-rule:nonzero;stroke:none"
                 id="path42" /><path
                 d="m 144.395,78.738 h -0.02 c -0.207,-0.258 -0.437,-0.468 -0.695,-0.629 -0.258,-0.16 -0.563,-0.242 -0.914,-0.242 -0.262,0 -0.508,0.051 -0.731,0.156 -0.223,0.102 -0.418,0.243 -0.578,0.418 -0.16,0.176 -0.285,0.379 -0.379,0.61 -0.09,0.23 -0.137,0.472 -0.137,0.73 0,0.258 0.043,0.5 0.125,0.731 0.086,0.23 0.204,0.437 0.36,0.609 0.152,0.18 0.34,0.317 0.558,0.418 0.223,0.106 0.465,0.156 0.739,0.156 0.375,0 0.695,-0.078 0.965,-0.238 0.265,-0.156 0.507,-0.375 0.718,-0.652 h 0.024 v 1.175 c -0.258,0.172 -0.52,0.301 -0.782,0.391 -0.265,0.094 -0.55,0.137 -0.859,0.137 -0.387,0 -0.754,-0.067 -1.09,-0.207 -0.336,-0.141 -0.629,-0.332 -0.875,-0.571 -0.246,-0.242 -0.437,-0.531 -0.574,-0.867 -0.141,-0.332 -0.211,-0.691 -0.211,-1.082 0,-0.379 0.074,-0.738 0.219,-1.07 0.148,-0.336 0.347,-0.625 0.594,-0.871 0.25,-0.246 0.543,-0.438 0.875,-0.578 0.335,-0.137 0.691,-0.207 1.074,-0.207 0.277,0 0.554,0.043 0.828,0.133 0.277,0.085 0.531,0.214 0.766,0.382 v 1.168"
                 style="fill:#918f90;fill-opacity:1;fill-rule:nonzero;stroke:none"
                 id="path44" /><path
                 d="m 146.672,73.293 v 4.508 l 0.023,0.023 c 0.184,-0.25 0.395,-0.441 0.629,-0.574 0.242,-0.129 0.524,-0.195 0.844,-0.195 0.359,0 0.652,0.058 0.879,0.179 0.23,0.121 0.41,0.286 0.539,0.493 0.133,0.203 0.223,0.441 0.269,0.714 0.051,0.27 0.075,0.555 0.075,0.856 v 3.07 h -0.883 v -2.914 c 0,-0.207 -0.008,-0.406 -0.027,-0.601 -0.016,-0.196 -0.063,-0.364 -0.129,-0.504 -0.071,-0.145 -0.18,-0.262 -0.325,-0.348 -0.148,-0.09 -0.351,-0.133 -0.605,-0.133 -0.301,0 -0.539,0.067 -0.711,0.192 -0.176,0.129 -0.301,0.293 -0.387,0.492 -0.082,0.195 -0.136,0.418 -0.156,0.66 -0.023,0.242 -0.035,0.477 -0.035,0.703 v 2.453 h -0.879 v -9.074 h 0.879"
                 style="fill:#918f90;fill-opacity:1;fill-rule:nonzero;stroke:none"
                 id="path46" /><path
                 d="m 155.176,79.219 c -0.031,-0.18 -0.09,-0.356 -0.184,-0.52 -0.09,-0.168 -0.203,-0.312 -0.336,-0.433 -0.129,-0.125 -0.281,-0.223 -0.457,-0.293 -0.172,-0.071 -0.351,-0.106 -0.543,-0.106 -0.191,0 -0.375,0.035 -0.551,0.106 -0.175,0.07 -0.332,0.168 -0.476,0.293 -0.145,0.121 -0.262,0.265 -0.359,0.433 -0.094,0.164 -0.157,0.34 -0.184,0.52 z m -3.137,0.75 c 0,0.242 0.043,0.469 0.129,0.676 0.082,0.21 0.199,0.39 0.344,0.546 0.148,0.153 0.324,0.274 0.535,0.368 0.207,0.089 0.437,0.136 0.687,0.136 0.375,0 0.688,-0.101 0.942,-0.3 0.25,-0.204 0.461,-0.457 0.633,-0.766 l 0.746,0.43 c -0.25,0.461 -0.578,0.816 -0.985,1.07 -0.41,0.254 -0.875,0.379 -1.402,0.379 -0.387,0 -0.738,-0.067 -1.051,-0.207 -0.312,-0.141 -0.578,-0.328 -0.797,-0.567 -0.218,-0.238 -0.39,-0.519 -0.508,-0.839 -0.117,-0.325 -0.175,-0.672 -0.175,-1.047 0,-0.383 0.054,-0.743 0.168,-1.082 0.105,-0.344 0.269,-0.641 0.48,-0.891 0.215,-0.254 0.477,-0.453 0.789,-0.602 0.313,-0.144 0.668,-0.218 1.071,-0.218 0.417,0 0.785,0.078 1.101,0.234 0.316,0.16 0.578,0.375 0.785,0.645 0.211,0.273 0.364,0.582 0.457,0.933 0.098,0.352 0.133,0.719 0.11,1.102 h -4.059"
                 style="fill:#918f90;fill-opacity:1;fill-rule:nonzero;stroke:none"
                 id="path48" /><path
                 d="m 161.617,74.93 v 2.465 h 2.766 v 0.859 h -2.766 v 4.113 h -0.922 v -8.293 h 3.774 v 0.856 h -2.852"
                 style="fill:#918f90;fill-opacity:1;fill-rule:nonzero;stroke:none"
                 id="path50" /><path
                 d="m 168.102,77.867 c -0.258,0 -0.489,0.051 -0.696,0.156 -0.207,0.102 -0.383,0.239 -0.527,0.411 -0.149,0.171 -0.262,0.371 -0.344,0.593 -0.078,0.227 -0.117,0.457 -0.117,0.7 0,0.257 0.035,0.503 0.109,0.738 0.075,0.234 0.18,0.441 0.325,0.625 0.14,0.183 0.32,0.332 0.527,0.441 0.211,0.11 0.453,0.164 0.73,0.164 0.289,0 0.536,-0.05 0.75,-0.16 0.211,-0.105 0.391,-0.25 0.539,-0.43 0.145,-0.179 0.254,-0.386 0.329,-0.621 0.074,-0.234 0.109,-0.484 0.109,-0.746 0,-0.258 -0.039,-0.5 -0.121,-0.726 -0.078,-0.227 -0.192,-0.426 -0.34,-0.594 -0.145,-0.168 -0.328,-0.305 -0.543,-0.402 -0.219,-0.098 -0.465,-0.149 -0.73,-0.149 z m 2.57,4.5 h -0.879 v -0.715 h -0.02 c -0.457,0.571 -1.05,0.856 -1.785,0.856 -0.379,0 -0.722,-0.074 -1.027,-0.223 -0.305,-0.152 -0.566,-0.351 -0.781,-0.601 -0.215,-0.25 -0.383,-0.536 -0.496,-0.864 -0.114,-0.328 -0.168,-0.668 -0.168,-1.027 0,-0.367 0.054,-0.719 0.168,-1.051 0.113,-0.332 0.277,-0.625 0.492,-0.875 0.211,-0.25 0.472,-0.445 0.781,-0.594 0.305,-0.144 0.656,-0.218 1.043,-0.218 0.352,0 0.684,0.074 0.992,0.23 0.305,0.153 0.567,0.371 0.781,0.649 h 0.02 v -0.739 h 0.879 v 5.172"
                 style="fill:#918f90;fill-opacity:1;fill-rule:nonzero;stroke:none"
                 id="path52" /><path
                 d="m 173.137,79.109 1.883,-1.914 h 1.175 l -2.211,2.203 2.629,2.969 h -1.164 l -2.082,-2.355 -0.23,0.23 v 2.125 h -0.879 v -9.074 h 0.879 v 5.816"
                 style="fill:#918f90;fill-opacity:1;fill-rule:nonzero;stroke:none"
                 id="path54" /><path
                 d="m 178.285,80.078 c 0,0.219 0.012,0.43 0.031,0.621 0.024,0.196 0.075,0.367 0.149,0.512 0.078,0.148 0.195,0.266 0.355,0.351 0.157,0.09 0.368,0.133 0.629,0.133 0.266,0 0.477,-0.043 0.633,-0.133 0.16,-0.085 0.277,-0.203 0.356,-0.351 0.074,-0.145 0.124,-0.316 0.148,-0.512 0.019,-0.191 0.031,-0.402 0.031,-0.621 v -2.883 h 0.879 v 2.981 c 0,0.347 -0.035,0.66 -0.101,0.945 -0.071,0.289 -0.188,0.535 -0.348,0.738 -0.16,0.207 -0.371,0.368 -0.637,0.481 -0.258,0.113 -0.578,0.168 -0.961,0.168 -0.379,0 -0.699,-0.055 -0.961,-0.168 -0.261,-0.113 -0.472,-0.274 -0.633,-0.481 -0.16,-0.203 -0.277,-0.449 -0.347,-0.738 -0.067,-0.285 -0.102,-0.598 -0.102,-0.945 v -2.981 h 0.879 v 2.883"
                 style="fill:#918f90;fill-opacity:1;fill-rule:nonzero;stroke:none"
                 id="path56" /><path
                 d="m 183.082,73.293 h 0.879 v 9.074 h -0.879 z"
                 style="fill:#918f90;fill-opacity:1;fill-rule:nonzero;stroke:none"
                 id="path58" /><path
                 d="m 186.523,82.367 h -0.878 v -4.355 h -0.54 v -0.817 h 0.54 v -1.859 h 0.878 v 1.859 h 0.926 v 0.817 h -0.926 v 4.355"
                 style="fill:#918f90;fill-opacity:1;fill-rule:nonzero;stroke:none"
                 id="path60" /><path
                 d="m 191.66,74.613 c 0.168,0 0.309,0.055 0.426,0.168 0.113,0.114 0.168,0.254 0.168,0.426 0,0.168 -0.055,0.309 -0.168,0.422 -0.117,0.113 -0.258,0.172 -0.426,0.172 -0.168,0 -0.308,-0.059 -0.422,-0.172 -0.113,-0.113 -0.172,-0.254 -0.172,-0.422 0,-0.172 0.059,-0.312 0.172,-0.426 0.114,-0.113 0.254,-0.168 0.422,-0.168 z m -2.168,0 c 0.168,0 0.313,0.055 0.426,0.168 0.113,0.114 0.168,0.254 0.168,0.426 0,0.168 -0.055,0.309 -0.168,0.422 -0.113,0.113 -0.258,0.172 -0.426,0.172 -0.168,0 -0.308,-0.059 -0.422,-0.172 -0.113,-0.113 -0.172,-0.254 -0.172,-0.422 0,-0.172 0.059,-0.312 0.172,-0.426 0.114,-0.113 0.254,-0.168 0.422,-0.168 z m 0.895,3.254 c -0.258,0 -0.489,0.051 -0.696,0.156 -0.203,0.102 -0.382,0.239 -0.531,0.411 -0.144,0.171 -0.258,0.371 -0.336,0.593 -0.082,0.227 -0.125,0.457 -0.125,0.7 0,0.257 0.039,0.503 0.113,0.738 0.075,0.234 0.18,0.441 0.325,0.625 0.144,0.183 0.32,0.332 0.527,0.441 0.211,0.11 0.453,0.164 0.731,0.164 0.289,0 0.535,-0.05 0.75,-0.16 0.21,-0.105 0.39,-0.25 0.539,-0.43 0.144,-0.179 0.254,-0.386 0.328,-0.621 0.074,-0.234 0.109,-0.484 0.109,-0.746 0,-0.258 -0.039,-0.5 -0.121,-0.726 -0.078,-0.227 -0.191,-0.426 -0.34,-0.594 -0.144,-0.168 -0.328,-0.305 -0.543,-0.402 -0.219,-0.098 -0.461,-0.149 -0.73,-0.149 z m 2.57,4.5 h -0.879 v -0.715 h -0.019 c -0.457,0.571 -1.051,0.856 -1.786,0.856 -0.378,0 -0.722,-0.074 -1.027,-0.223 -0.305,-0.152 -0.566,-0.351 -0.781,-0.601 -0.215,-0.25 -0.383,-0.536 -0.496,-0.864 -0.114,-0.328 -0.168,-0.668 -0.168,-1.027 0,-0.367 0.054,-0.719 0.168,-1.051 0.113,-0.332 0.277,-0.625 0.492,-0.875 0.211,-0.25 0.473,-0.445 0.781,-0.594 0.305,-0.144 0.656,-0.218 1.043,-0.218 0.352,0 0.684,0.074 0.992,0.23 0.305,0.153 0.567,0.371 0.782,0.649 h 0.019 v -0.739 h 0.879 v 5.172"
                 style="fill:#918f90;fill-opacity:1;fill-rule:nonzero;stroke:none"
                 id="path62" /><path
                 d="m 195.512,82.367 h -0.883 v -4.355 h -0.539 v -0.817 h 0.539 v -1.859 h 0.883 v 1.859 h 0.922 v 0.817 h -0.922 v 4.355"
                 style="fill:#918f90;fill-opacity:1;fill-rule:nonzero;stroke:none"
                 id="path64" /><path
                 d="m 200.641,19.09 v 1.629 h 3.382 v 12.652 h 1.774 V 20.719 h 3.383 V 19.09 h -8.539"
                 style="fill:#231f20;fill-opacity:1;fill-rule:nonzero;stroke:none"
                 id="path66" /><path
                 d="m 188.727,19.09 h -8.539 v 1.629 h 3.382 v 12.652 h 1.774 V 20.719 h 3.383 V 19.09"
                 style="fill:#231f20;fill-opacity:1;fill-rule:nonzero;stroke:none"
                 id="path68" /><path
                 d="m 175.906,19.09 h 1.777 v 14.281 h -1.777 z"
                 style="fill:#231f20;fill-opacity:1;fill-rule:nonzero;stroke:none"
                 id="path70" /><path
                 d="m 169.125,24.926 -1.02,-0.399 c -0.89,-0.339 -1.988,-0.929 -1.988,-2.047 0,-1.25 1.25,-2.027 2.383,-2.027 1.078,0 1.758,0.453 2.285,1.344 l 1.418,-0.852 c -0.773,-1.383 -2.074,-2.16 -3.668,-2.16 -2.148,0 -4.191,1.383 -4.191,3.695 0,1.989 1.472,2.918 3.097,3.618 l 0.985,0.418 c 1.226,0.511 2.457,1.175 2.457,2.707 0,1.496 -1.098,2.785 -2.629,2.785 -1.527,0 -2.777,-1.137 -2.762,-2.707 l -1.793,0.379 c 0.305,2.293 2.102,3.996 4.406,3.996 2.551,0 4.551,-1.856 4.551,-4.453 0,-2.387 -1.511,-3.504 -3.531,-4.297"
                 style="fill:#231f20;fill-opacity:1;fill-rule:nonzero;stroke:none"
                 id="path72" /><path
                 d="m 149.641,31.742 h -5.879 v -5.398 h 5.707 v -1.629 h -5.707 v -3.996 h 5.879 V 19.09 h -7.657 v 14.281 h 7.657 v -1.629"
                 style="fill:#231f20;fill-opacity:1;fill-rule:nonzero;stroke:none"
                 id="path74" /><path
                 d="m 140.141,19.09 h -1.946 l -4.234,10.57 -4.25,-10.57 h -1.945 l 6.195,15.043 6.18,-15.043"
                 style="fill:#231f20;fill-opacity:1;fill-rule:nonzero;stroke:none"
                 id="path76" /><path
                 d="m 124.133,19.09 h 1.777 v 14.281 h -1.777 z"
                 style="fill:#231f20;fill-opacity:1;fill-rule:nonzero;stroke:none"
                 id="path78" /><path
                 d="M 109.555,22.727 120.25,33.961 V 19.09 h -1.777 V 29.641 L 107.777,18.406 v 14.965 h 1.778 V 22.727"
                 style="fill:#231f20;fill-opacity:1;fill-rule:nonzero;stroke:none"
                 id="path80" /><path
                 d="m 99.348,33.676 c 3.265,0 5.214,-2.406 5.214,-5.551 V 19.09 h -1.777 v 8.43 c 0,2.328 -0.699,4.488 -3.437,4.488 -2.743,0 -3.442,-2.16 -3.442,-4.488 v -8.43 h -1.773 v 9.035 c 0,3.145 1.945,5.551 5.215,5.551"
                 style="fill:#231f20;fill-opacity:1;fill-rule:nonzero;stroke:none"
                 id="path82" /><path
                 d="m 155.742,25.852 h -0.566 v -5.168 h 0.469 c 1.757,0 3.875,0.316 3.875,2.554 0,2.274 -1.965,2.614 -3.778,2.614 z m 5.442,-2.688 c 0,-1.367 -0.68,-2.711 -1.872,-3.41 -1.132,-0.645 -2.496,-0.664 -3.761,-0.664 h -2.153 v 14.281 h 1.778 v -6.043 h 0.734 l 4.195,6.043 h 2.157 l -4.5,-6.211 c 2.062,-0.246 3.422,-1.953 3.422,-3.996"
                 style="fill:#231f20;fill-opacity:1;fill-rule:nonzero;stroke:none"
                 id="path84" /><path
                 d="m 197.477,21.266 c 0.625,0 1.132,-0.512 1.132,-1.153 0,-0.629 -0.507,-1.136 -1.132,-1.136 -0.641,0 -1.153,0.507 -1.153,1.136 0,0.641 0.512,1.153 1.153,1.153"
                 style="fill:#231f20;fill-opacity:1;fill-rule:nonzero;stroke:none"
                 id="path86" /><path
                 d="m 192.141,28.164 2.535,-5.777 2.531,5.777 z m -4.27,5.207 h 1.91 l 1.625,-3.578 h 6.535 l 1.625,3.578 h 1.911 l -6.801,-14.887 -6.805,14.887"
                 style="fill:#231f20;fill-opacity:1;fill-rule:nonzero;stroke:none"
                 id="path88" /><path
                 d="m 191.871,21.266 c 0.645,0 1.156,-0.512 1.156,-1.153 0,-0.629 -0.511,-1.136 -1.156,-1.136 -0.621,0 -1.133,0.507 -1.133,1.136 0,0.641 0.512,1.153 1.133,1.153"
                 style="fill:#231f20;fill-opacity:1;fill-rule:nonzero;stroke:none"
                 id="path90" /><path
                 d="m 95.906,40.219 h -1.773 v 14.285 h 6.101 V 52.875 H 95.906 V 40.219"
                 style="fill:#231f20;fill-opacity:1;fill-rule:nonzero;stroke:none"
                 id="path92" /><path
                 d="m 152.094,48.934 h 3.683 c -0.078,2.328 -2.457,4.242 -4.668,4.242 -3.078,0 -5.535,-2.84 -5.535,-5.832 0,-3.203 2.492,-5.801 5.688,-5.801 1.738,0 3.457,0.93 4.476,2.332 l 1.25,-1.191 c -1.398,-1.762 -3.59,-2.77 -5.8,-2.77 -4.102,0 -7.391,3.371 -7.391,7.484 0,3.957 3.215,7.407 7.199,7.407 3.988,0 6.746,-3.012 6.746,-6.934 v -0.566 h -5.648 v 1.629"
                 style="fill:#231f20;fill-opacity:1;fill-rule:nonzero;stroke:none"
                 id="path94" /><path
                 d="m 139.523,40.219 h 1.777 v 14.285 h -1.777 z"
                 style="fill:#231f20;fill-opacity:1;fill-rule:nonzero;stroke:none"
                 id="path96" /><path
                 d="m 127.996,40.379 v 1.629 h 6.199 l -7.218,12.652 h 10.109 v -1.629 h -7.219 l 7.219,-12.652 h -9.09"
                 style="fill:#231f20;fill-opacity:1;fill-rule:nonzero;stroke:none"
                 id="path98" /><path
                 d="m 113.109,40.219 h 1.777 v 14.285 h -1.777 z"
                 style="fill:#231f20;fill-opacity:1;fill-rule:nonzero;stroke:none"
                 id="path100" /><path
                 d="m 102.008,54.504 h 7.652 v -1.629 h -5.879 v -5.398 h 5.707 v -1.633 h -5.707 v -3.996 h 5.879 v -1.629 h -7.652 v 14.285"
                 style="fill:#231f20;fill-opacity:1;fill-rule:nonzero;stroke:none"
                 id="path102" /><path
                 d="m 121.176,46.926 h -0.567 v -5.114 h 0.473 c 1.758,0 3.871,0.266 3.871,2.5 0,2.27 -1.965,2.614 -3.777,2.614 z m -0.301,-6.707 h -2.043 v 14.285 h 1.777 v -5.988 h 1.02 c 2.703,0 4.988,-1.157 4.988,-4.168 0,-2.614 -1.359,-4.129 -5.742,-4.129"
                 style="fill:#231f20;fill-opacity:1;fill-rule:nonzero;stroke:none"
                 id="path104" /><path
                 d="m 83.465,0 h 0.418 v 73.211 h -0.418 z"
                 style="fill:#231f20;fill-opacity:1;fill-rule:nonzero;stroke:none"
                 id="path106" /><path
                 d="m 36.605,72.789 c -19.949,0 -36.183,-16.23 -36.183,-36.184 0,-19.953 16.234,-36.183 36.183,-36.183 19.954,0 36.184,16.23 36.184,36.183 0,19.954 -16.23,36.184 -36.184,36.184 z M 36.605,0 C 16.422,0 0,16.422 0,36.605 c 0,20.184 16.422,36.606 36.605,36.606 20.184,0 36.61,-16.422 36.61,-36.606 C 73.215,16.422 56.789,0 36.605,0"
                 style="fill:#231f20;fill-opacity:1;fill-rule:nonzero;stroke:none"
                 id="path108" /><path
                 d="m 27.621,25.793 c 0.008,0.004 0.149,0.062 0.152,0.062 0.008,0 0.082,0.036 0.09,0.036 0.071,-0.02 0.098,-0.082 0.133,-0.153 0.004,-0.004 0.192,-0.328 0.336,-0.582 0.078,-0.144 0.195,-0.293 0.453,-0.222 0.082,0.019 0.235,0.07 0.344,0.117 0.008,-0.016 0.016,-0.031 0.023,-0.043 0.016,-0.02 0.036,-0.043 0.047,-0.07 0,0 0.016,-0.032 0.02,-0.036 0.011,-0.039 0.023,-0.074 0.035,-0.113 -0.016,-0.023 -0.027,-0.051 -0.035,-0.078 -0.028,-0.012 -0.051,-0.035 -0.071,-0.063 -0.046,-0.015 -0.093,-0.031 -0.136,-0.05 -0.391,-0.16 -0.789,-0.028 -1,0.351 -0.106,0.196 -0.321,0.469 -0.387,0.606 -0.039,0.078 -0.07,0.179 -0.004,0.238"
                 style="fill:#231f20;fill-opacity:1;fill-rule:nonzero;stroke:none"
                 id="path110" /><path
                 d="m 27.402,24.902 c 0.11,0.024 0.215,-0.07 0.239,-0.117 0.019,-0.051 -0.032,-0.16 -0.055,-0.207 -0.02,-0.043 -0.066,-0.078 -0.148,-0.105 -0.086,-0.032 -0.168,0 -0.168,0 0,0 -0.133,0.05 -0.165,0.105 -0.035,0.063 0.012,0.152 0.055,0.207 0.047,0.059 0.133,0.09 0.242,0.117"
                 style="fill:#231f20;fill-opacity:1;fill-rule:nonzero;stroke:none"
                 id="path112" /><path
                 d="m 27.34,26.129 c -0.09,-0.067 -0.188,0.023 -0.188,0.023 0,0 -0.047,0.067 -0.047,0.16 0,0.094 -0.003,0.266 0.407,0.36 0.152,0.039 0.238,0 0.289,-0.125 0.109,-0.274 -0.258,-0.27 -0.461,-0.418"
                 style="fill:#231f20;fill-opacity:1;fill-rule:nonzero;stroke:none"
                 id="path114" /><path
                 d="m 45.867,25.164 c 0.137,0.016 0.25,-0.117 0.27,-0.176 0.019,-0.062 -0.059,-0.195 -0.09,-0.246 -0.031,-0.047 -0.094,-0.086 -0.203,-0.109 -0.106,-0.024 -0.203,0.023 -0.203,0.023 0,0 -0.157,0.078 -0.188,0.156 -0.035,0.075 0.031,0.184 0.098,0.247 0.066,0.062 0.176,0.089 0.316,0.105"
                 style="fill:#231f20;fill-opacity:1;fill-rule:nonzero;stroke:none"
                 id="path116" /><path
                 d="m 49.684,34.512 c 0.101,0.008 0.183,-0.086 0.199,-0.129 0.015,-0.043 -0.043,-0.141 -0.067,-0.176 -0.023,-0.035 -0.066,-0.062 -0.144,-0.082 -0.078,-0.016 -0.149,0.02 -0.149,0.02 0,0 -0.113,0.058 -0.136,0.113 -0.024,0.054 0.027,0.133 0.074,0.176 0.043,0.046 0.125,0.066 0.223,0.078"
                 style="fill:#231f20;fill-opacity:1;fill-rule:nonzero;stroke:none"
                 id="path118" /><path
                 d="m 43.855,24.645 c -0.046,-0.036 -0.121,-0.047 -0.226,-0.032 -0.109,0.012 -0.184,0.09 -0.184,0.09 0,0 -0.121,0.129 -0.125,0.215 -0.004,0.082 0.098,0.16 0.18,0.195 0.082,0.035 0.195,0.02 0.332,-0.011 0.137,-0.032 0.195,-0.196 0.195,-0.258 -0.004,-0.067 -0.121,-0.164 -0.172,-0.199"
                 style="fill:#231f20;fill-opacity:1;fill-rule:nonzero;stroke:none"
                 id="path120" /><path
                 d="m 29.008,25.379 c -0.086,-0.024 -0.164,0.019 -0.164,0.019 0,0 -0.125,0.063 -0.153,0.125 -0.027,0.063 0.028,0.145 0.082,0.196 0.051,0.054 0.141,0.074 0.254,0.086 0.11,0.015 0.2,-0.094 0.219,-0.141 0.016,-0.051 -0.047,-0.16 -0.074,-0.199 -0.027,-0.039 -0.078,-0.07 -0.164,-0.086"
                 style="fill:#231f20;fill-opacity:1;fill-rule:nonzero;stroke:none"
                 id="path122" /><path
                 d="m 9.922,55.844 0.992,-1.606 0.856,1.196 z m 3.637,-0.801 -1.309,0.289 -1.078,-1.512 0.707,-1.132 -0.313,-0.438 -2.57,4.238 4.871,-1.015 -0.308,-0.43"
                 style="fill:#231f20;fill-opacity:1;fill-rule:nonzero;stroke:none"
                 id="path124" /><path
                 d="m 10.152,49.57 -0.398,0.211 0.558,1.059 -3.449,1.816 0.227,0.43 3.848,-2.027 -0.786,-1.489"
                 style="fill:#231f20;fill-opacity:1;fill-rule:nonzero;stroke:none"
                 id="path126" /><path
                 d="M 9.695,48.777 9.531,48.312 6.57,48.746 6.566,48.734 9.055,46.395 5.648,46.098 v -0.016 l 2.594,-1.488 -0.164,-0.469 -4.051,2.34 3.965,0.301 -2.926,2.687 4.629,-0.676"
                 style="fill:#231f20;fill-opacity:1;fill-rule:nonzero;stroke:none"
                 id="path128" /><path
                 d="m 4.199,41.695 1.613,-0.976 0.219,1.453 z M 7.805,42.633 6.508,42.301 6.23,40.465 7.371,39.773 7.293,39.242 3.082,41.855 7.887,43.156 7.805,42.633"
                 style="fill:#231f20;fill-opacity:1;fill-rule:nonzero;stroke:none"
                 id="path130" /><path
                 d="M 7.152,37.008 7.191,36.516 4.301,35.738 V 35.727 L 7.516,34.57 4.512,32.938 v -0.012 l 2.972,-0.336 0.039,-0.492 -4.648,0.531 3.52,1.855 -3.758,1.301 4.515,1.223"
                 style="fill:#231f20;fill-opacity:1;fill-rule:nonzero;stroke:none"
                 id="path132" /><path
                 d="M 6.293,30.07 4.781,28.93 6.648,28.641 Z m 1.465,1.102 -1.074,-0.805 0.445,-1.805 1.32,-0.203 0.129,-0.519 -4.89,0.808 3.941,3.04 0.129,-0.516"
                 style="fill:#231f20;fill-opacity:1;fill-rule:nonzero;stroke:none"
                 id="path134" /><path
                 d="M 5.527,24.973 9.156,26.387 9.332,25.934 5.699,24.52 6.086,23.531 5.668,23.367 4.727,25.785 5.145,25.949 5.527,24.973"
                 style="fill:#231f20;fill-opacity:1;fill-rule:nonzero;stroke:none"
                 id="path136" /><path
                 d="M 11.391,21.727 10.996,21.512 10.148,23.066 8.652,22.246 9.477,20.738 9.082,20.523 8.258,22.031 7.125,21.41 7.973,19.855 7.578,19.641 l -1.082,1.98 3.813,2.082 1.082,-1.976"
                 style="fill:#231f20;fill-opacity:1;fill-rule:nonzero;stroke:none"
                 id="path138" /><path
                 d="m 10.863,18.34 c -0.004,0 -0.004,0 -0.011,0.004 L 10.766,18.465 9.5,17.551 9.582,17.434 c 0.172,-0.239 0.356,-0.422 0.555,-0.555 0.199,-0.133 0.441,-0.094 0.73,0.117 0.274,0.199 0.383,0.414 0.324,0.652 -0.058,0.239 -0.164,0.469 -0.324,0.684 0,0.004 -0.004,0.008 -0.004,0.008 z m 1.793,1.492 -1.547,-1.117 0.075,-0.098 2.316,0.051 0.344,-0.48 -2.383,-0.016 c 0.172,-0.289 0.227,-0.578 0.164,-0.863 -0.063,-0.286 -0.227,-0.528 -0.5,-0.723 -0.398,-0.289 -0.754,-0.344 -1.07,-0.172 -0.313,0.172 -0.594,0.426 -0.836,0.758 l -0.367,0.508 3.523,2.543 0.281,-0.391"
                 style="fill:#231f20;fill-opacity:1;fill-rule:nonzero;stroke:none"
                 id="path140" /><path
                 d="m 61.02,20.445 0.363,-0.261 -0.703,-0.973 3.156,-2.285 -0.281,-0.391 -3.524,2.547 0.989,1.363"
                 style="fill:#231f20;fill-opacity:1;fill-rule:nonzero;stroke:none"
                 id="path142" /><path
                 d="m 62.188,22.383 3.769,-2.168 -0.242,-0.418 -3.77,2.164 0.243,0.422"
                 style="fill:#231f20;fill-opacity:1;fill-rule:nonzero;stroke:none"
                 id="path144" /><path
                 d="m 67.066,23.438 0.071,0.164 c 0,0.003 0.004,0.007 0.004,0.007 0,0.004 0,0.004 0.004,0.008 0.105,0.258 0.167,0.512 0.187,0.758 0.016,0.246 -0.137,0.434 -0.461,0.57 -0.289,0.121 -0.519,0.11 -0.691,-0.027 -0.176,-0.145 -0.313,-0.336 -0.414,-0.586 l -0.121,-0.297 z m -3.593,1.503 1.754,-0.73 0.136,0.32 c 0.012,0.024 0.02,0.043 0.028,0.067 0.007,0.019 0.019,0.043 0.027,0.062 0.066,0.145 0.148,0.278 0.246,0.406 0.094,0.129 0.215,0.235 0.363,0.309 0.149,0.078 0.313,0.121 0.481,0.121 0.172,0.004 0.336,-0.023 0.496,-0.082 0.008,-0.004 0.016,-0.004 0.023,-0.012 0.004,0 0.012,-0.004 0.02,-0.007 0.176,-0.071 0.332,-0.184 0.465,-0.325 0.133,-0.148 0.218,-0.316 0.258,-0.508 0.035,-0.16 0.031,-0.32 0,-0.472 -0.036,-0.156 -0.082,-0.313 -0.141,-0.461 -0.012,-0.027 -0.024,-0.051 -0.031,-0.074 -0.012,-0.028 -0.02,-0.051 -0.028,-0.078 l -0.277,-0.657 -4.008,1.676 0.188,0.445"
                 style="fill:#231f20;fill-opacity:1;fill-rule:nonzero;stroke:none"
                 id="path146" /><path
                 d="m 67.32,27.902 c -0.105,0.223 -0.179,0.469 -0.226,0.743 l -0.051,0.285 c 0,0.011 0,0.015 -0.004,0.023 0,0.008 0,0.016 0,0.024 -0.035,0.211 -0.09,0.406 -0.164,0.585 -0.07,0.18 -0.227,0.301 -0.465,0.36 -0.238,0.062 -0.457,0.027 -0.656,-0.106 -0.199,-0.136 -0.328,-0.316 -0.391,-0.543 -0.058,-0.226 -0.031,-0.437 0.082,-0.628 0.114,-0.192 0.274,-0.333 0.489,-0.418 L 65.68,27.801 c -0.309,0.152 -0.532,0.375 -0.668,0.66 -0.137,0.285 -0.16,0.594 -0.074,0.934 0.093,0.367 0.3,0.644 0.613,0.839 0.316,0.196 0.656,0.243 1.027,0.149 0.332,-0.086 0.559,-0.254 0.672,-0.492 0.117,-0.246 0.199,-0.52 0.254,-0.829 l 0.043,-0.308 c 0.004,-0.031 0.008,-0.059 0.015,-0.094 0.004,-0.031 0.012,-0.066 0.016,-0.098 0.031,-0.136 0.078,-0.265 0.141,-0.394 0.066,-0.125 0.172,-0.207 0.316,-0.246 0.192,-0.047 0.367,-0.02 0.524,0.09 0.16,0.105 0.261,0.254 0.308,0.441 0.047,0.18 0.043,0.332 -0.008,0.469 -0.05,0.129 -0.136,0.254 -0.254,0.371 l 0.333,0.312 c 0.179,-0.167 0.3,-0.359 0.363,-0.574 0.062,-0.219 0.066,-0.445 0.004,-0.679 -0.082,-0.313 -0.246,-0.563 -0.504,-0.75 -0.254,-0.184 -0.543,-0.235 -0.871,-0.149 -0.301,0.078 -0.504,0.227 -0.61,0.449"
                 style="fill:#231f20;fill-opacity:1;fill-rule:nonzero;stroke:none"
                 id="path148" /><path
                 d="m 68.941,29.605 h -0.003 c 0,0 0,0 0,0.004 l 0.003,-0.004"
                 style="fill:#231f20;fill-opacity:1;fill-rule:nonzero;stroke:none"
                 id="path150" /><path
                 d="m 65.75,33.258 4.309,-0.563 -0.063,-0.476 -4.308,0.558 0.062,0.481"
                 style="fill:#231f20;fill-opacity:1;fill-rule:nonzero;stroke:none"
                 id="path152" /><path
                 d="m 65.973,37.77 0.449,-0.004 -0.012,-1.77 1.707,-0.012 0.012,1.715 h 0.449 l -0.012,-1.719 1.289,-0.007 0.012,1.765 h 0.453 l -0.019,-2.254 -4.344,0.032 0.016,2.254"
                 style="fill:#231f20;fill-opacity:1;fill-rule:nonzero;stroke:none"
                 id="path154" /><path
                 d="m 65.824,40.289 -0.09,0.477 3.293,0.613 -4.105,2.683 4.465,0.833 0.09,-0.477 -3.309,-0.617 4.109,-2.68 -4.453,-0.832"
                 style="fill:#231f20;fill-opacity:1;fill-rule:nonzero;stroke:none"
                 id="path156" /><path
                 d="m 67.562,47.316 c -0.292,-0.109 -0.542,-0.105 -0.757,0.016 -0.215,0.121 -0.418,0.277 -0.614,0.477 l -0.207,0.203 c -0.007,0.008 -0.011,0.011 -0.015,0.015 -0.004,0.004 -0.008,0.012 -0.016,0.016 -0.152,0.152 -0.308,0.281 -0.473,0.383 -0.164,0.105 -0.359,0.117 -0.589,0.027 -0.231,-0.086 -0.387,-0.242 -0.473,-0.469 -0.082,-0.226 -0.086,-0.449 0,-0.664 0.082,-0.222 0.227,-0.375 0.43,-0.468 0.203,-0.09 0.414,-0.11 0.636,-0.059 l 0.039,-0.492 c -0.339,-0.051 -0.648,-0.004 -0.925,0.148 -0.278,0.153 -0.477,0.395 -0.598,0.723 -0.137,0.348 -0.133,0.699 0.012,1.039 0.144,0.34 0.394,0.578 0.75,0.715 0.324,0.121 0.601,0.117 0.836,-0.016 0.234,-0.129 0.464,-0.305 0.683,-0.523 l 0.215,-0.227 c 0.02,-0.023 0.043,-0.047 0.066,-0.07 0.024,-0.024 0.047,-0.047 0.075,-0.07 0.101,-0.094 0.211,-0.172 0.34,-0.239 0.125,-0.062 0.257,-0.07 0.398,-0.015 0.184,0.07 0.313,0.195 0.379,0.375 0.062,0.175 0.062,0.355 -0.004,0.539 -0.066,0.172 -0.16,0.297 -0.277,0.375 -0.118,0.078 -0.262,0.129 -0.43,0.156 l 0.098,0.445 c 0.238,-0.031 0.445,-0.117 0.625,-0.258 0.179,-0.14 0.312,-0.324 0.398,-0.55 0.113,-0.301 0.121,-0.602 0.024,-0.899 -0.102,-0.301 -0.309,-0.511 -0.626,-0.633"
                 style="fill:#231f20;fill-opacity:1;fill-rule:nonzero;stroke:none"
                 id="path158" /><path
                 d="m 67.141,49.66 v -0.004 c -0.004,0 -0.004,0 -0.008,0 l 0.008,0.004"
                 style="fill:#231f20;fill-opacity:1;fill-rule:nonzero;stroke:none"
                 id="path160" /><path
                 d="m 62.582,50.492 3.856,2 0.222,-0.43 -3.855,-2 -0.223,0.43"
                 style="fill:#231f20;fill-opacity:1;fill-rule:nonzero;stroke:none"
                 id="path162" /><path
                 d="m 64.375,54.043 c -0.258,-0.176 -0.504,-0.227 -0.742,-0.16 -0.235,0.07 -0.469,0.176 -0.703,0.324 l -0.246,0.152 c -0.008,0.004 -0.016,0.012 -0.02,0.016 -0.008,0 -0.012,0.008 -0.019,0.008 -0.184,0.113 -0.364,0.203 -0.547,0.269 -0.184,0.067 -0.379,0.028 -0.582,-0.109 -0.204,-0.137 -0.321,-0.324 -0.352,-0.563 -0.031,-0.238 0.016,-0.457 0.148,-0.652 0.129,-0.191 0.305,-0.312 0.524,-0.355 0.219,-0.043 0.43,-0.012 0.637,0.086 l 0.148,-0.469 c -0.32,-0.129 -0.633,-0.152 -0.933,-0.067 -0.305,0.09 -0.555,0.278 -0.75,0.567 -0.211,0.312 -0.286,0.652 -0.223,1.015 0.066,0.368 0.254,0.653 0.57,0.868 0.285,0.191 0.559,0.25 0.817,0.175 0.257,-0.074 0.519,-0.191 0.785,-0.359 l 0.261,-0.172 c 0.024,-0.015 0.051,-0.031 0.079,-0.051 0.027,-0.015 0.058,-0.035 0.085,-0.05 0.122,-0.071 0.25,-0.121 0.387,-0.157 0.137,-0.035 0.266,-0.011 0.391,0.075 0.168,0.109 0.262,0.261 0.285,0.453 0.023,0.187 -0.02,0.363 -0.125,0.523 -0.105,0.152 -0.223,0.254 -0.355,0.301 -0.133,0.051 -0.282,0.07 -0.454,0.059 l -0.007,0.457 c 0.242,0.023 0.464,-0.016 0.668,-0.11 0.207,-0.097 0.378,-0.25 0.511,-0.449 0.184,-0.27 0.258,-0.559 0.227,-0.871 -0.028,-0.317 -0.184,-0.567 -0.465,-0.754"
                 style="fill:#231f20;fill-opacity:1;fill-rule:nonzero;stroke:none"
                 id="path164" /><path
                 d="m 14.09,14.73 c 0.195,0 0.351,-0.16 0.351,-0.355 0,-0.195 -0.156,-0.352 -0.351,-0.352 -0.195,0 -0.352,0.157 -0.352,0.352 0,0.195 0.157,0.355 0.352,0.355"
                 style="fill:#231f20;fill-opacity:1;fill-rule:nonzero;stroke:none"
                 id="path166" /><path
                 d="m 58.875,14.027 c -0.195,0 -0.355,0.157 -0.355,0.352 0,0.195 0.16,0.355 0.355,0.355 0.191,0 0.352,-0.16 0.352,-0.355 0,-0.195 -0.161,-0.352 -0.352,-0.352"
                 style="fill:#231f20;fill-opacity:1;fill-rule:nonzero;stroke:none"
                 id="path168" /><path
                 d="m 14.199,58.57 c -0.195,0 -0.351,0.16 -0.351,0.356 0,0.195 0.156,0.351 0.351,0.351 0.196,0 0.352,-0.156 0.352,-0.351 0,-0.196 -0.156,-0.356 -0.352,-0.356"
                 style="fill:#231f20;fill-opacity:1;fill-rule:nonzero;stroke:none"
                 id="path170" /><path
                 d="m 59.227,58.449 c -0.196,0 -0.352,0.16 -0.352,0.352 0,0.195 0.156,0.351 0.352,0.351 0.195,0 0.351,-0.156 0.351,-0.351 0,-0.192 -0.156,-0.352 -0.351,-0.352"
                 style="fill:#231f20;fill-opacity:1;fill-rule:nonzero;stroke:none"
                 id="path172" /><path
                 d="m 55.441,65.797 0.004,-1.692 -1.582,-0.003 v -4.239 c 7.235,-5.398 11.551,-14 11.551,-23.019 0,-9.024 -4.32,-17.625 -11.559,-23.024 v -2.957 h 1.079 V 10.441 H 53.855 V 7.699 H 53.418 V 9.434 L 48.152,6.559 v -2.45 h -0.343 v 2.469 l -5.493,2.5 V 6.051 h 0.5 V 4.496 h -0.839 c -0.582,-1.25 -1.915,-2.187 -3.582,-2.601 18.339,0.929 32.972,16.144 32.972,34.71 0,12.227 -6.351,22.993 -15.926,29.192 z m -0.418,-0.024 h -3.675 v -1.246 h 3.675 z m -7.394,3.789 c 0.48,-0.535 1.535,-1.707 1.637,-1.847 0.261,-0.371 0.359,-0.965 -0.172,-1.52 h 5.722 c -2.238,1.383 -4.648,2.516 -7.187,3.367 z M 47.297,67.84 c -0.203,-0.164 -0.445,-0.254 -0.695,-0.27 l 1.304,-1.375 h 0.422 c 0.141,0.039 0.297,0.125 0.457,0.293 0.418,0.43 0.266,0.801 0.133,0.981 -0.055,0.082 -0.594,0.687 -1.141,1.297 -0.019,-0.356 -0.191,-0.696 -0.48,-0.926 z m -0.242,1.695 c -0.262,0.27 -0.649,0.445 -0.985,0.445 -0.465,0 -1.164,-0.257 -1.836,-0.503 -0.187,-0.067 -0.367,-0.133 -0.546,-0.196 l 1.179,-1.277 c 0.051,-0.051 0.477,-0.527 0.457,-0.992 -0.008,-0.176 -0.082,-0.336 -0.211,-0.453 -0.144,-0.133 -0.301,-0.258 -0.449,-0.364 h 2.68 l -1.477,1.575 c -0.144,0.109 -0.262,0.253 -0.328,0.425 -0.035,0.09 -0.051,0.184 -0.059,0.274 0.145,-0.012 0.286,-0.008 0.426,-0.004 0.004,-0.039 0.012,-0.082 0.028,-0.121 0.066,-0.176 0.23,-0.305 0.429,-0.344 0.246,-0.039 0.481,0.02 0.672,0.172 0.192,0.156 0.313,0.39 0.324,0.633 0.012,0.332 -0.16,0.582 -0.304,0.73 z m -10.262,1.824 c 0.488,-0.746 1.133,-1.714 1.305,-1.968 0.511,-0.192 2.011,-0.262 2.281,-0.266 1.289,-0.027 2.133,0.199 2.902,0.465 l 0.16,0.055 c 0.207,0.07 0.426,0.148 0.649,0.23 0.398,0.145 0.805,0.293 1.18,0.398 -2.715,0.696 -5.555,1.071 -8.477,1.086 z M 36.488,71.051 C 35.297,68.938 35.289,68.93 35.125,68.926 34.891,68.891 34.66,68.863 34.438,68.84 v -0.738 h 1 l 0.007,-0.403 h -1.007 v -1.504 h 4.539 c -0.282,0.262 -0.618,0.575 -0.684,0.645 -0.359,0.398 -0.367,0.84 -0.027,1.183 0.226,0.227 0.578,0.567 0.824,0.809 -0.336,0.039 -0.707,0.086 -1.11,0.152 -0.128,0 -0.136,0.004 -1.492,2.067 z m -8.476,-0.766 c 0.39,-0.101 0.812,-0.258 1.23,-0.41 0.219,-0.082 0.438,-0.16 0.649,-0.23 l 0.16,-0.055 c 0.769,-0.262 1.375,-0.465 2.656,-0.438 0.551,0.012 1.391,0.055 2.316,0.188 0.165,0.273 0.731,1.273 1.149,2.012 -2.813,-0.036 -5.543,-0.399 -8.16,-1.067 z m -1.735,-0.75 c -0.148,-0.148 -0.316,-0.398 -0.304,-0.73 0.007,-0.243 0.129,-0.477 0.324,-0.633 0.191,-0.156 0.43,-0.211 0.668,-0.172 0.203,0.039 0.363,0.168 0.43,0.344 0.015,0.035 0.023,0.07 0.027,0.109 0.144,0.008 0.285,0.012 0.426,0.024 -0.004,-0.094 -0.024,-0.192 -0.059,-0.282 -0.062,-0.172 -0.18,-0.316 -0.328,-0.425 l -1.457,-1.575 h 3.574 l -0.894,0.832 0.285,0.313 1.23,-1.145 h 0.031 v 2.887 c -0.101,0.035 -0.207,0.07 -0.316,0.106 l -0.16,0.054 c -0.211,0.07 -0.434,0.153 -0.66,0.235 -0.672,0.246 -1.367,0.503 -1.836,0.503 -0.336,0 -0.723,-0.175 -0.981,-0.445 z m -0.726,-0.769 c -0.547,-0.61 -1.086,-1.219 -1.141,-1.297 -0.129,-0.18 -0.285,-0.551 0.133,-0.981 0.16,-0.172 0.32,-0.254 0.461,-0.293 h 0.418 l 1.305,1.375 c -0.25,0.02 -0.489,0.106 -0.696,0.274 -0.285,0.226 -0.457,0.566 -0.48,0.922 z m -7.145,-2.571 h 5.828 c -0.527,0.555 -0.433,1.149 -0.168,1.52 0.102,0.14 1.227,1.398 1.68,1.898 -2.594,-0.855 -5.055,-2.004 -7.34,-3.418 z m -0.246,-1.675 3.684,0.007 -0.004,1.246 h -3.672 z m -4.027,-29.379 -0.004,5.297 h -2.488 v -5.29 z m 3.48,-10.106 c 0.489,-0.664 0.989,-1.211 1.461,-1.605 v 4.468 C 18.66,26.797 18.113,25.863 17.613,25.035 Z m -0.039,6.926 c 0,0 0.008,-0.047 0.012,-0.125 0.051,-0.805 0.648,-2.043 1.488,-3.227 V 45.93 h -1.5 z M 15.922,28.07 c 0.406,-0.976 0.883,-1.843 1.375,-2.582 0.519,0.856 1.039,1.754 1.406,2.848 -0.578,0.82 -1.062,1.656 -1.32,2.387 -0.281,-0.84 -0.778,-1.801 -1.461,-2.653 z m 1.23,3.895 V 45.93 H 14.57 l 0.008,-11.235 c 0,-2.32 0.406,-4.289 1.145,-6.125 0.851,1.118 1.394,2.41 1.425,3.25 -0.003,0.047 0.004,0.145 0.004,0.145 z M 19.074,19.48 v 3.313 c -1.504,1.094 -3.578,4 -4.504,7.902 v -4.992 c 0.047,0.09 0.133,0.149 0.239,0.149 0.156,0 0.281,-0.125 0.281,-0.282 0,-0.152 -0.125,-0.277 -0.281,-0.277 -0.106,0 -0.192,0.062 -0.239,0.145 v -0.672 c 0.047,0.082 0.133,0.144 0.239,0.144 0.156,0 0.281,-0.125 0.281,-0.277 0,-0.156 -0.125,-0.281 -0.281,-0.281 -0.106,0 -0.192,0.058 -0.239,0.148 v -0.68 c 0.047,0.09 0.133,0.149 0.239,0.149 0.156,0 0.281,-0.125 0.281,-0.278 0,-0.156 -0.125,-0.281 -0.281,-0.281 -0.106,0 -0.192,0.063 -0.239,0.149 v -0.286 h -0.105 c 0.09,-0.046 0.152,-0.14 0.152,-0.246 0,-0.152 -0.125,-0.277 -0.277,-0.277 -0.156,0 -0.281,0.125 -0.281,0.277 0,0.106 0.062,0.2 0.152,0.246 h -0.102 v 0.309 c -0.043,-0.098 -0.14,-0.172 -0.257,-0.172 -0.157,0 -0.282,0.125 -0.282,0.281 0,0.153 0.125,0.278 0.282,0.278 0.117,0 0.214,-0.074 0.257,-0.172 v 0.73 c -0.043,-0.101 -0.14,-0.175 -0.257,-0.175 -0.157,0 -0.282,0.125 -0.282,0.281 0,0.152 0.125,0.277 0.282,0.277 0.117,0 0.214,-0.07 0.257,-0.176 v 0.735 c -0.043,-0.106 -0.14,-0.176 -0.257,-0.176 -0.157,0 -0.282,0.125 -0.282,0.277 0,0.157 0.125,0.282 0.282,0.282 0.117,0 0.214,-0.075 0.257,-0.172 0,0 0.004,8.429 0.004,9.023 l -2.457,-0.008 v -2.73 c 0.047,0.086 0.137,0.144 0.242,0.144 0.153,0 0.278,-0.121 0.278,-0.277 0,-0.152 -0.125,-0.281 -0.278,-0.281 -0.105,0 -0.195,0.062 -0.242,0.148 v -0.676 c 0.047,0.086 0.137,0.145 0.242,0.145 0.153,0 0.278,-0.125 0.278,-0.277 0,-0.157 -0.125,-0.282 -0.278,-0.282 -0.105,0 -0.195,0.063 -0.242,0.149 v -0.676 c 0.047,0.086 0.137,0.145 0.242,0.145 0.153,0 0.278,-0.122 0.278,-0.278 0,-0.152 -0.125,-0.281 -0.278,-0.281 -0.105,0 -0.195,0.062 -0.242,0.148 v -0.285 h -0.101 c 0.09,-0.047 0.152,-0.136 0.152,-0.246 0,-0.152 -0.125,-0.277 -0.281,-0.277 -0.153,0 -0.278,0.125 -0.278,0.277 0,0.11 0.063,0.199 0.153,0.246 h -0.106 v 0.313 c -0.039,-0.102 -0.14,-0.176 -0.254,-0.176 -0.156,0 -0.281,0.129 -0.281,0.281 0,0.156 0.125,0.278 0.281,0.278 0.114,0 0.215,-0.071 0.254,-0.172 v 0.73 c -0.039,-0.101 -0.14,-0.176 -0.254,-0.176 -0.156,0 -0.281,0.125 -0.281,0.282 0,0.152 0.125,0.277 0.281,0.277 0.114,0 0.215,-0.07 0.254,-0.172 v 0.731 c -0.039,-0.102 -0.14,-0.176 -0.254,-0.176 -0.156,0 -0.281,0.129 -0.281,0.281 0,0.156 0.125,0.277 0.281,0.277 0.114,0 0.215,-0.07 0.254,-0.171 v 2.867 l -1.949,1.812 0.313,0.336 1.652,-1.578 v 5.063 H 8.652 c -0.148,-1.184 -0.23,-2.379 -0.23,-3.594 0,-8.668 3.879,-16.703 10.652,-22.11 v 4.321 H 17.898 V 19.48 Z M 17.93,53.074 c 0.187,-0.324 0.183,-0.758 -0.016,-1.101 -0.215,-0.375 -0.613,-0.594 -1.098,-0.594 -0.324,0 -0.605,0.066 -0.843,0.18 0.144,-0.875 -0.059,-1.938 -0.653,-2.364 -0.34,-0.238 -0.734,-0.332 -1.086,-0.242 -0.304,0.074 -0.543,0.27 -0.695,0.567 -0.16,0.316 -0.152,0.675 0.027,0.964 0.168,0.274 0.465,0.434 0.801,0.434 h 0.012 l -0.004,-0.422 c -0.18,-0.019 -0.355,-0.082 -0.449,-0.234 -0.102,-0.16 -0.106,-0.367 -0.012,-0.551 0.098,-0.188 0.238,-0.305 0.418,-0.348 0.23,-0.054 0.508,0.012 0.742,0.18 0.555,0.391 0.703,1.848 0.266,2.594 0,0 -0.238,0.414 -0.238,1.054 0,0.379 0.375,1.793 2.023,1.809 h 0.023 c 0.618,0 1.176,-0.234 1.614,-0.668 0.121,-0.117 0.222,-0.246 0.312,-0.379 v 5 C 13.32,54.359 9.676,48.023 8.703,40.859 h 0.102 c 0.027,0.024 2.843,2.379 3.074,2.586 0.195,0.176 0.414,0.375 0.422,1.008 0,0.297 -0.145,0.508 -0.27,0.633 -0.238,0.242 -0.562,0.301 -0.781,0.301 -0.215,0 -0.816,-0.082 -0.84,-0.672 -0.004,-0.211 0.086,-0.387 0.188,-0.488 0.078,-0.079 0.191,-0.11 0.332,-0.11 0.265,0.016 0.34,0.305 0.34,0.363 l 0.421,0.012 c 0.004,-0.308 -0.23,-0.773 -0.742,-0.793 -0.261,-0.008 -0.488,0.067 -0.648,0.227 -0.188,0.187 -0.321,0.469 -0.309,0.804 0.028,0.821 0.801,1.082 1.258,1.082 0.371,0 0.797,-0.144 1.082,-0.429 0.258,-0.258 0.395,-0.582 0.391,-0.934 -0.004,-0.754 -0.282,-1.066 -0.559,-1.316 -0.18,-0.164 -1.84,-1.582 -2.648,-2.274 h 4.613 l -0.004,5.071 h -1.254 v 0.422 h 6.203 v 5.128 l -3.515,-3.847 h -2.688 v 0.422 h 2.5 l 3.703,4.05 v 0.336 c 0.039,0.727 -0.246,1.231 -0.609,1.594 -0.25,0.246 -0.684,0.539 -1.317,0.539 -0.003,0 -0.011,0 -0.019,0 -1.484,-0.012 -1.606,-1.379 -1.606,-1.39 -0.003,-0.258 0.036,-0.739 0.344,-1.051 0.215,-0.219 0.535,-0.332 0.949,-0.332 0.45,0 0.653,0.238 0.735,0.383 0.121,0.214 0.129,0.484 0.015,0.675 -0.105,0.172 -0.312,0.266 -0.539,0.262 l -0.007,0.426 c 0.414,0.004 0.73,-0.164 0.91,-0.473 z M 1.855,36.605 C 1.855,18.172 16.277,3.055 34.43,1.926 32.816,2.352 31.527,3.277 30.961,4.496 H 30.09 v 1.555 h 0.527 V 9.086 L 25.125,6.578 V 4.109 h -0.34 V 6.555 L 19.484,9.453 V 7.699 h -0.422 l 0.012,2.742 h -1.039 v 0.422 h 1.039 v 3.325 C 12.035,19.676 7.996,27.93 7.996,36.844 c 0,8.914 4.035,17.168 11.078,22.656 v 4.598 h -1.336 l 0.008,1.675 C 8.191,59.57 1.855,48.816 1.855,36.605 Z M 36.227,3.156 h -0.723 v 0.422 h 0.723 V 4.496 H 31.43 C 32.188,3.113 34.086,2.16 36.227,2.094 Z m 10.878,10.711 c -0.644,-0.851 -1.714,-1.668 -2.058,-1.918 v -1.683 h -0.442 v 1.703 c -0.355,0.254 -1.425,1.039 -2.289,1.859 v -2.965 h 1.086 V 10.441 H 42.316 V 9.543 l 4.789,-2.18 z m 3.536,10.453 c 0,1.035 -0.313,2.028 -0.891,2.879 -0.195,0.063 -0.488,0.125 -0.719,0.047 -1.312,-0.437 -0.996,-2.027 -0.843,-2.789 l 0.027,-0.152 c 0.121,-0.629 -0.106,-1.446 -0.559,-2.028 -0.308,-0.394 -0.683,-0.621 -1.066,-0.644 -0.942,-0.059 -1.324,0.312 -1.637,0.609 l -0.039,0.035 c -0.258,-0.316 -0.812,-0.902 -1.937,-0.441 -1.051,0.437 -1.161,2.019 -1.118,2.543 0.016,0.211 -0.074,0.355 -0.203,0.559 -0.14,0.226 -0.316,0.503 -0.332,0.933 -0.015,0.406 0.199,0.77 0.395,1.09 0.187,0.309 0.301,0.523 0.222,0.641 -0.144,0.207 -0.296,0.222 -0.55,0.179 -0.629,-0.785 -0.989,-2.043 -0.989,-3.461 0,-2.824 2.297,-5.121 5.118,-5.121 2.824,0 5.121,2.297 5.121,5.121 z M 48.297,19.055 H 47.562 V 7.156 L 48,6.953 48.297,7.117 Z m 5.137,0.425 V 20 c -0.707,0.391 -1.899,0.75 -3.45,1.051 -0.468,-0.641 -1.074,-1.18 -1.773,-1.571 z m 0,-9.039 h -0.985 v 0.422 h 0.985 v 2.617 c -0.817,-0.738 -1.735,-1.277 -2.063,-1.511 v -1.703 h -0.437 v 1.683 c -0.368,0.266 -1.559,1.172 -2.18,2.082 V 7.367 l 4.68,2.551 z m 0,8.614 h -4.672 v -4.032 c 0,-0.812 1.617,-2.175 2.375,-2.73 0.355,0.254 1.453,0.922 2.297,1.734 z m 1.004,18.543 c -0.008,0.543 -0.11,1.011 -0.227,1.414 -0.613,-0.309 -1.445,-0.77 -1.602,-0.973 -0.062,-0.086 0.032,-0.437 0.094,-0.672 0.121,-0.453 0.246,-0.922 -0.012,-1.23 -0.425,-0.508 -0.855,-0.637 -1.226,-0.653 0.199,-0.347 0.308,-0.746 0.308,-1.152 0,-1.289 -1.05,-2.344 -2.339,-2.344 -1.289,0 -2.34,1.055 -2.34,2.344 0,0.754 0.371,1.461 0.976,1.898 -0.121,0.2 -0.226,0.407 -0.246,0.575 -0.066,0.449 -0.172,1.207 -0.492,1.488 -0.121,0.105 -0.262,0.191 -0.398,0.281 -0.055,0.035 -0.2,0.09 -0.235,0.149 -0.035,0.058 0.008,0.105 0.043,0.132 0.008,0.008 0.012,0.012 0.012,0.012 0.027,0.024 0.078,0.063 0.16,0.102 0.488,0.273 1.598,0.57 2.566,0.613 -0.058,0.266 -0.164,0.684 -0.378,1.348 -0.52,1.601 -1.43,3.168 -2.11,4.093 -0.683,0.938 -1.168,1.36 -1.68,1.805 L 45.117,47 c -0.605,0.531 -1.015,0.934 -1.762,1.719 -0.312,0.332 -0.55,0.738 -0.785,1.129 -0.312,0.531 -0.609,1.031 -1.054,1.297 -1.414,0.843 -1.809,2.027 -1.918,2.558 -0.282,-0.297 -0.688,-0.742 -0.953,-1.101 -0.387,-0.524 -0.375,-2.067 -0.168,-3.317 0.105,-0.613 0.175,-1.281 0.246,-2.031 0.718,-0.371 1.172,-1.629 1.488,-2.715 0.215,-0.738 0.848,-1.66 1.215,-1.898 0.457,-0.297 1.547,-1.555 2.179,-2.438 0.563,-0.785 0.965,-2.062 1.083,-2.453 0.617,0.035 1.343,-0.066 1.902,-0.602 0.394,-0.375 0.543,-0.699 0.461,-0.996 -0.106,-0.363 -0.547,-0.613 -1.387,-0.789 -0.219,-0.043 -0.387,-0.086 -0.523,-0.129 0.097,-0.039 0.199,-0.078 0.312,-0.125 0.438,-0.191 0.621,-0.214 0.887,-0.203 l 0.019,-0.426 c -0.371,-0.015 -0.621,0.043 -1.07,0.243 -0.531,0.203 -0.918,0.382 -0.969,0.406 -0.07,0.019 -0.144,0.047 -0.234,0.086 -0.336,0.144 -0.922,0.39 -2.07,0.203 0.449,-0.527 1.187,-1.371 1.48,-1.563 0.32,-0.207 1.453,-0.55 2.133,-0.761 0.246,-0.074 0.453,-0.137 0.586,-0.184 0.562,-0.187 1.414,-0.863 1.754,-1.39 0.254,-0.395 1.289,-0.989 2.039,-1.075 0.496,-0.054 0.765,0.039 0.871,0.09 0.387,1.469 1.359,2.567 1.805,3.07 0.086,0.098 0.183,0.207 0.203,0.243 l 0.062,0.101 c 1.239,2.067 1.492,3.125 1.489,3.649 z m 0.914,-5.899 h 0.003 v 10.969 c -0.046,-0.066 -0.097,-0.137 -0.148,-0.203 -0.406,-0.563 -0.914,-1.266 -0.918,-2.238 0,-0.102 0.07,-0.309 0.152,-0.547 0.164,-0.477 0.411,-1.203 0.414,-2.082 0.008,-0.668 -0.332,-1.649 -1,-2.899 V 28.27 c 0.868,1.207 1.497,2.578 1.497,3.429 z m 0.023,-6.918 c -0.523,0.867 -1.102,1.844 -1.52,3.02 v -4.676 c 0.493,0.402 1.012,0.961 1.52,1.656 z m 3.52,10.098 h 2.468 v 5.559 h -2.461 z m -1.629,-6.563 c 0.691,1.809 1.191,3.942 1.172,6.274 l 0.011,11.34 h -2.672 c 0,0 0,-13.368 0,-14.227 0,-0.867 0.637,-2.269 1.489,-3.387 z m -1.7,2.145 c -0.257,-0.731 -0.703,-1.559 -1.285,-2.383 0.371,-1.094 0.891,-1.988 1.41,-2.844 0.497,0.739 0.969,1.606 1.375,2.582 -0.687,0.852 -1.218,1.805 -1.5,2.645 z m -1.703,23.461 c 0.094,0.144 0.203,0.281 0.336,0.41 0.438,0.434 0.996,0.668 1.61,0.668 h 0.023 c 1.652,-0.016 2.016,-1.43 2.023,-1.809 0.004,-0.207 -0.015,-0.461 -0.089,-0.714 0,0 -0.145,-0.34 -0.149,-0.34 -0.433,-0.746 -0.285,-2.203 0.27,-2.594 0.234,-0.168 0.508,-0.234 0.738,-0.18 0.184,0.043 0.324,0.16 0.418,0.348 0.094,0.184 0.09,0.391 -0.008,0.551 -0.094,0.152 -0.262,0.261 -0.449,0.234 l -0.008,0.422 h 0.012 c 0.336,0 0.633,-0.16 0.805,-0.434 0.175,-0.289 0.187,-0.648 0.023,-0.961 -0.148,-0.3 -0.391,-0.496 -0.691,-0.57 -0.352,-0.09 -0.75,0.004 -1.086,0.242 -0.594,0.426 -0.801,1.489 -0.657,2.364 -0.238,-0.114 -0.515,-0.18 -0.843,-0.18 -0.481,0 -0.883,0.219 -1.098,0.594 -0.199,0.343 -0.203,0.777 -0.016,1.101 0.18,0.305 0.496,0.473 0.895,0.473 h 0.016 l -0.004,-0.426 c -0.27,0.004 -0.438,-0.09 -0.539,-0.262 -0.114,-0.191 -0.11,-0.461 0.015,-0.675 0.082,-0.145 0.285,-0.383 0.731,-0.383 0.418,0 0.738,0.113 0.953,0.332 0.308,0.312 0.344,0.793 0.34,1.051 0,0.011 -0.122,1.378 -1.606,1.39 -0.004,0 -0.012,0 -0.019,0 -0.633,0 -1.063,-0.293 -1.317,-0.539 -0.43,-0.43 -0.629,-0.879 -0.629,-1.465 v -0.465 l 3.699,-4.05 h 2.504 v -0.422 h -2.691 l -3.512,3.847 v -5.128 h 6.203 V 45.93 h -1.16 l -0.004,-5.071 4.856,-0.007 c -0.903,0.679 -2.781,2.117 -2.961,2.281 -0.281,0.25 -0.555,0.562 -0.559,1.316 -0.004,0.352 0.129,0.676 0.387,0.934 0.289,0.285 0.711,0.476 1.082,0.476 0.461,0 1.242,-0.308 1.27,-1.129 0.011,-0.335 -0.133,-0.617 -0.321,-0.804 -0.16,-0.16 -0.379,-0.235 -0.644,-0.227 -0.512,0.02 -0.731,0.485 -0.727,0.793 l 0.426,-0.012 c 0,-0.058 0.055,-0.347 0.316,-0.363 0.141,0 0.254,0.031 0.332,0.11 0.102,0.101 0.203,0.277 0.196,0.488 -0.02,0.59 -0.629,0.719 -0.848,0.719 -0.215,0 -0.543,-0.106 -0.781,-0.348 -0.121,-0.125 -0.27,-0.336 -0.266,-0.633 0.004,-0.633 0.227,-0.832 0.422,-1.008 0.203,-0.187 3.434,-2.586 3.434,-2.586 h 0.187 c -1.055,7.27 -4.937,13.961 -10.84,18.473 z m 1.492,-9.469 v 1.477 h -1.492 v -1.051 c 0.356,-0.012 1.047,-0.094 1.492,-0.426 z M 51.586,39.23 c 0.609,-0.222 1.051,-0.476 1.172,-0.546 0.43,0.281 1.012,0.582 1.324,0.734 -0.012,0.039 -0.027,0.086 -0.043,0.125 -0.098,0.297 -0.172,0.512 -0.172,0.684 0.004,1.113 0.555,1.871 1,2.484 0.262,0.363 0.488,0.672 0.488,0.926 0,0.168 -0.058,0.308 -0.175,0.422 -0.305,0.293 -0.934,0.382 -1.317,0.398 V 44.371 C 53.809,43.27 53.477,41.535 51.586,39.23 Z m -2.059,26.129 c 0.137,-0.257 0.137,-0.547 0.004,-0.863 -0.176,-0.414 -0.363,-0.734 -0.527,-1.016 -0.047,-0.082 -0.09,-0.156 -0.133,-0.23 h 3.031 l 0.004,0.848 h -0.98 v 1.675 h -1.809 c 0.16,-0.101 0.317,-0.234 0.41,-0.414 z m -9.172,0.414 c 0.356,-0.214 0.79,-0.48 1.083,-0.656 0.457,-0.269 0.824,-0.429 1.097,-0.48 0.055,-0.012 1.352,-0.25 1.442,-1.008 0.015,-0.117 0.007,-0.238 -0.008,-0.352 h 2.871 c 0,0.071 0.004,0.145 0.004,0.211 0,0.289 0,0.539 0.015,0.707 0.012,0.117 0.008,0.293 -0.004,0.477 -0.015,0.422 -0.035,0.855 0.145,1.101 z m 0.547,2.309 c 0.485,-0.551 0.297,-0.973 0.055,-1.234 -0.191,-0.203 -0.512,-0.45 -0.793,-0.653 h 3.266 l -0.438,0.422 c -0.027,0.028 -0.265,0.285 -0.238,0.606 0.008,0.121 0.062,0.3 0.262,0.453 0.402,0.312 0.531,0.418 0.535,0.418 l 0.265,-0.324 c 0,0 -0.128,-0.11 -0.543,-0.43 -0.082,-0.063 -0.097,-0.113 -0.097,-0.149 -0.012,-0.113 0.09,-0.25 0.113,-0.277 l 0.695,-0.664 c 0.188,0.113 0.547,0.348 0.844,0.617 0.039,0.035 0.152,0.141 -0.008,0.469 -0.105,0.207 -0.261,0.379 -0.261,0.383 l -1.309,1.414 c -0.734,-0.25 -1.379,-0.438 -2.641,-0.403 -0.132,0 -0.289,0.008 -0.461,0.016 0.305,-0.254 0.657,-0.551 0.754,-0.664 z M 39.523,66.27 c 0.266,0.175 0.856,0.582 1.125,0.871 0.192,0.203 0.176,0.39 -0.062,0.664 -0.098,0.113 -0.637,0.562 -1.035,0.886 -0.231,-0.222 -0.703,-0.683 -0.989,-0.968 -0.07,-0.071 -0.257,-0.262 0.043,-0.598 0.067,-0.07 0.555,-0.527 0.918,-0.855 z m -17.164,-16.29 0.782,5.633 -1.219,0.625 -1.285,-5.636 z m -1.875,-9.632 c -0.007,-0.2 0.102,-0.672 0.192,-1.09 0.105,-0.457 0.203,-0.891 0.211,-1.156 0,-0.129 0.019,-0.278 0.039,-0.442 0.062,-0.484 0.136,-1.086 -0.059,-1.746 -0.137,-0.469 -0.398,-1.742 -0.383,-2.559 0.012,-0.601 0.168,-1.851 0.168,-1.851 0.305,0.019 1.18,0.109 1.539,0.281 0.383,0.184 0.856,0.758 1.297,1.586 0.43,0.793 0.059,2.246 -0.062,2.676 -0.246,0.851 0.101,1.683 0.386,2.23 0.067,0.137 0.145,0.262 0.223,0.383 0.246,0.399 0.461,0.742 0.367,1.391 -0.109,0.75 -0.05,1.097 0.098,1.933 0.043,0.246 0.094,0.532 0.152,0.891 0.235,1.5 -0.23,2.422 -0.57,3.094 -0.008,0.011 -0.012,0.023 -0.02,0.035 -0.042,-0.484 -0.222,-0.93 -0.574,-1.145 -0.523,-0.242 -1.011,-0.226 -1.351,0.024 -0.117,-0.383 -0.024,-0.785 0.062,-1.176 0.113,-0.484 0.231,-0.988 -0.125,-1.371 -0.105,-0.113 -0.242,-0.203 -0.383,-0.293 -0.144,-0.094 -0.89,-0.555 -1.023,-0.953 -0.102,-0.223 -0.176,-0.481 -0.184,-0.742 z m 2.172,-18.856 c -0.32,0.543 -0.558,1.141 -0.683,1.785 -1.387,-0.273 -2.047,-0.582 -2.465,-0.824 v -1.914 c 0.726,0.359 1.785,0.676 3.148,0.953 z m 2.715,-2.437 H 24.637 V 7.117 l 0.297,-0.164 0.437,0.203 z m 2.043,0.144 c 2.824,0 5.121,2.297 5.121,5.121 0,1.594 -0.758,3.102 -2.023,4.071 l -1.653,-0.899 c 0.11,-0.097 0.301,-0.242 0.301,-0.242 0.016,0.004 0.039,0.016 0.074,0.023 0.332,0.106 1.211,0.387 1.735,-0.156 0.437,-0.445 0.371,-0.953 0.32,-1.324 -0.023,-0.219 -0.051,-0.406 0.02,-0.527 0.175,-0.293 0.281,-0.801 0.144,-1.2 -0.074,-0.226 -0.226,-0.386 -0.43,-0.468 -0.222,-0.086 -0.281,-0.157 -0.363,-0.254 -0.047,-0.063 -0.101,-0.125 -0.18,-0.192 -0.046,-0.035 -0.121,-0.222 -0.171,-0.347 -0.118,-0.293 -0.25,-0.625 -0.512,-0.758 -0.285,-0.141 -0.57,-0.024 -0.777,0.066 -0.071,0.028 -0.184,0.075 -0.192,0.078 -0.019,-0.015 -0.058,-0.07 -0.086,-0.109 -0.121,-0.18 -0.332,-0.5 -0.828,-0.461 -0.316,0.012 -0.508,0.168 -0.676,0.301 -0.082,0.066 -0.156,0.125 -0.242,0.168 -0.09,0.047 -0.355,0.062 -0.566,0.078 -0.387,0.023 -0.75,0.047 -0.946,0.215 -0.261,0.226 -0.363,0.601 -0.449,0.902 -0.027,0.106 -0.055,0.203 -0.082,0.266 -0.051,0.109 -0.164,0.176 -0.289,0.25 -0.176,0.105 -0.414,0.246 -0.43,0.554 -0.019,0.356 0.364,0.59 0.735,0.817 0.179,0.113 0.515,0.379 0.515,0.379 0.309,0.304 0.45,0.445 0.356,1.008 -0.059,0.351 -0.297,0.39 -0.66,0.41 -0.102,0.008 -1.207,0.125 -1.703,0.441 -0.028,0.02 -0.063,0.043 -0.094,0.063 -0.711,-0.911 -1.086,-2 -1.086,-3.153 0,-2.824 2.297,-5.121 5.117,-5.121 z m 0.734,-6.906 c 0.379,0.269 2.43,1.805 2.469,2.562 v 4.2 h -1.476 c -0.543,-0.176 -1.121,-0.278 -1.727,-0.278 -0.551,0 -1.082,0.086 -1.586,0.235 v -4 c 0.106,-0.86 1.645,-2.223 2.32,-2.719 z m 2.469,-1.852 h -1.086 v 0.422 h 1.086 v 3.016 c -0.82,-0.965 -1.722,-1.629 -2.23,-1.91 v -1.703 h -0.442 v 1.683 c -0.355,0.258 -1.48,1.113 -2.117,1.996 V 7.363 l 4.789,2.188 z m 5.071,9.039 c -0.032,0.047 -0.059,0.094 -0.079,0.145 -0.047,0.113 -0.074,0.238 -0.074,0.363 0,0.129 0.027,0.25 0.074,0.364 0.039,0.089 0.094,0.168 0.157,0.246 0,0 0.199,0.195 0.328,0.246 -0.895,0.437 -2.219,0.801 -3.719,1.015 -0.504,-1.004 -1.293,-1.836 -2.27,-2.379 z m 0.781,0 c 0.281,0 0.508,0.227 0.508,0.508 0,0.282 -0.227,0.508 -0.508,0.512 -0.281,-0.004 -0.512,-0.23 -0.512,-0.512 0,-0.281 0.231,-0.508 0.512,-0.508 z m 0.777,-1.8 c 0,0.015 0,0.023 0,0.039 0.035,0.492 0.399,0.847 0.953,0.847 h 0.012 c 0.301,0 0.578,-0.125 0.785,-0.347 0.211,-0.227 0.316,-0.535 0.297,-0.848 -0.047,-0.601 -0.492,-1.07 -1.094,-1.207 h 0.012 c 0,-0.805 -0.606,-1.453 -1.344,-1.453 v 0.422 c 0.496,0 0.895,0.437 0.914,0.988 -0.582,0.02 -1.054,0.32 -1.312,0.781 -0.258,-0.464 -0.731,-0.765 -1.317,-0.785 0.02,-0.551 0.422,-0.988 0.914,-0.988 v -0.422 c -0.738,0 -1.339,0.652 -1.339,1.453 h 0.015 c -0.601,0.137 -1.054,0.606 -1.097,1.207 -0.024,0.313 0.085,0.621 0.296,0.848 0.204,0.223 0.481,0.347 0.782,0.351 h 0.011 c 0.555,0 0.93,-0.359 0.969,-0.851 0,-0.012 0,-0.024 0,-0.035 h -0.422 v 0.004 c -0.023,0.304 -0.293,0.453 -0.554,0.457 -0.184,0 -0.352,-0.079 -0.477,-0.211 -0.133,-0.141 -0.199,-0.336 -0.184,-0.532 0.036,-0.5 0.469,-0.863 1.032,-0.863 h 0.011 c 0.676,0.008 1.149,0.496 1.149,1.195 v 1.325 h -4.004 c 0.297,-2.285 3.394,-7.145 4.187,-8.36 0.801,1.239 3.973,6.266 4.282,8.36 H 36.68 V 17.73 c 0,-0.695 0.472,-1.183 1.144,-1.191 h 0.012 c 0.555,0 1,0.371 1.035,0.863 0.016,0.196 -0.055,0.391 -0.187,0.532 -0.125,0.136 -0.293,0.211 -0.477,0.211 h -0.004 c -0.281,0 -0.515,-0.157 -0.535,-0.457 0,-0.004 0,-0.004 0,-0.004 z m 2.734,6.566 C 38.711,24.008 37.562,23.664 36.5,23.188 l -0.004,-0.004 c -0.012,0.004 -0.023,0.004 -0.039,0.004 -0.012,0 -0.023,0 -0.031,-0.004 l -0.004,0.004 c -0.922,0.414 -2.113,0.769 -3.473,1.027 -0.011,-0.692 -0.152,-1.352 -0.394,-1.957 1.621,-0.238 2.98,-0.641 3.914,-1.145 0.929,0.504 2.293,0.907 3.914,1.145 -0.25,0.617 -0.391,1.285 -0.403,1.988 z m 0.602,3.524 c -0.457,0.207 -0.348,0.835 -0.266,1.132 -0.39,0.297 -1.546,1.258 -1.636,2.235 -0.207,2.191 -1.336,3.652 -1.903,4.121 -0.484,0.398 -0.879,1.332 -0.808,1.922 0.031,0.281 0.117,0.554 0.238,0.812 l -0.039,-0.031 c -0.086,0.113 -0.176,0.312 -0.254,0.551 C 35.793,38.34 35.629,38.148 35.434,38 L 34.273,33.062 33.789,33.18 C 33.484,32.785 32.355,31.324 32.145,30.988 32.051,30.844 32.02,30.641 31.992,30.445 31.953,30.16 31.91,29.863 31.672,29.684 31.477,29.535 31.133,28.93 30.957,28.566 c 1.172,-0.976 1.887,-2.398 1.981,-3.918 1.363,-0.253 2.574,-0.605 3.527,-1.019 1.082,0.469 2.238,0.816 3.527,1.047 0.047,1.191 0.344,2.262 0.832,3.039 -0.082,0.004 -0.164,0.015 -0.242,0.055 z m 5.281,-4.75 c 0.274,0.171 0.477,0.566 0.594,0.925 -0.621,-0.105 -1.262,0.114 -1.398,0.18 l 0.183,0.379 c 0.098,-0.047 0.754,-0.27 1.297,-0.109 0,0 0.031,0.023 0.035,0.058 0.043,0.485 0.125,1.684 -0.035,2.289 -0.035,0.125 -0.047,0.254 -0.047,0.383 -0.308,-0.023 -0.547,-0.16 -0.797,-0.313 -0.277,-0.167 -0.558,-0.343 -0.922,-0.3 -0.3,0.035 -0.507,0.183 -0.687,0.32 -0.195,0.137 -0.352,0.238 -0.598,0.227 -0.011,-0.036 -0.023,-0.079 -0.031,-0.106 -0.004,-0.004 -0.004,-0.008 -0.004,-0.012 -0.004,-0.007 -0.008,-0.015 -0.012,-0.023 -0.007,-0.023 -0.015,-0.055 -0.027,-0.07 -0.086,-0.168 -0.277,-0.664 -0.309,-1.114 -0.015,-0.234 0.036,-0.879 0.079,-1.339 l 0.004,0.007 c 0,-0.004 0.117,-0.074 0.421,-0.074 0.25,0 0.524,-0.008 0.637,0.145 0.035,0.047 0.098,0.207 0.066,0.359 -0.113,0.574 -0.273,1.152 -0.351,1.297 0,0 0.367,0.012 0.449,0.016 0.035,-0.118 0.305,-1.18 0.309,-1.188 0.093,-0.309 0.027,-0.586 -0.067,-0.707 -0.222,-0.301 -0.711,-0.344 -1.043,-0.344 -0.152,0 -0.273,0.016 -0.367,0.035 0,-0.003 0,-0.007 0,-0.011 0.059,-0.285 0.16,-0.621 0.617,-0.985 0.418,-0.328 1.407,-0.293 2.004,0.075 z m -2.285,4.46 c 0.336,-0.011 0.563,-0.175 0.754,-0.312 0.16,-0.117 0.297,-0.215 0.492,-0.242 0.215,-0.024 0.41,0.094 0.653,0.242 0.273,0.168 0.609,0.371 1.058,0.383 0.02,0.082 0.043,0.164 0.074,0.238 0,0 0.004,0 0.004,0 0.039,0.145 0.094,0.395 0.121,0.641 0.028,0.265 -0.129,0.847 -0.281,1.406 -0.051,0.199 -0.105,0.394 -0.156,0.59 -0.176,0.703 -0.703,1.289 -1.129,1.504 -0.367,0.183 -1.047,0.226 -1.652,0.101 -0.325,-0.066 -0.368,-0.308 -0.387,-0.625 0,-0.043 -0.004,-0.082 -0.008,-0.113 -0.016,-0.121 0.121,-0.481 0.203,-0.699 0.028,-0.078 0.059,-0.156 0.082,-0.223 0.117,-0.344 0.211,-1.191 0.223,-1.348 0.016,-0.199 0,-1.093 -0.051,-1.543 z m -2.191,7.809 c -0.778,-0.211 -3.871,1.645 -4.895,2.281 -0.051,-0.144 -0.086,-0.293 -0.105,-0.437 -0.051,-0.449 0.289,-1.246 0.66,-1.551 0.07,-0.059 1.781,-1.492 2.055,-4.402 0.078,-0.832 1.191,-1.727 1.503,-1.965 0.207,0.062 0.512,0.144 0.891,0.215 0.121,0.023 0.234,0.031 0.34,0.035 0,-0.004 0,-0.008 0,-0.012 0.07,0.004 0.144,0.008 0.223,0.008 0.031,0 0.058,0 0.086,-0.004 0.382,-0.004 0.773,-0.09 1.035,-0.16 -0.039,0.312 -0.106,0.746 -0.172,0.937 -0.02,0.067 -0.047,0.137 -0.078,0.215 -0.149,0.395 -0.25,0.692 -0.223,0.895 0,0.023 0.004,0.054 0.004,0.09 0.016,0.261 0.055,0.871 0.723,1.007 0.226,0.047 0.511,0.079 0.804,0.079 0.391,0 0.797,-0.055 1.117,-0.215 0.497,-0.25 1.133,-0.914 1.348,-1.778 0.051,-0.191 0.102,-0.386 0.152,-0.582 0.106,-0.383 0.258,-1.007 0.258,-1.007 0.184,-0.075 0.649,-0.266 1.071,-0.266 0.441,0 0.882,0.187 1.218,0.371 0.5,0.371 0.946,0.664 1.317,0.68 0.011,0.054 0.027,0.105 0.035,0.16 0.008,0.062 0.023,0.117 0.031,0.176 -0.191,-0.043 -0.461,-0.075 -0.824,-0.032 -0.836,0.094 -2.004,0.715 -2.348,1.266 -0.652,1.039 -2.136,1.406 -2.136,1.406 -0.391,0.121 -2.067,0.711 -2.211,0.801 -0.418,0.273 -1.407,1.445 -1.719,1.824 -0.055,-0.015 -0.102,-0.019 -0.16,-0.035 z m 2.379,1.891 c -1.274,-0.285 -2.325,0.285 -3.141,0.722 -0.078,0.043 -0.18,0.094 -0.297,0.153 -0.613,0.312 -1.601,0.812 -2.266,1.48 -0.328,-0.258 -1.007,-0.851 -1.398,-1.578 1.688,-1.043 4.137,-2.375 4.617,-2.258 1.719,0.446 2.563,0.078 2.973,-0.097 0.074,-0.032 0.148,-0.063 0.184,-0.067 0.14,-0.027 0.242,0.004 0.472,0.07 0.164,0.051 0.371,0.114 0.668,0.172 0.887,0.184 1.039,0.407 1.067,0.493 0.035,0.125 -0.086,0.328 -0.344,0.57 -0.774,0.738 -1.965,0.469 -2.535,0.34 z M 30.758,62.875 c 0.562,-0.066 0.914,0.32 1.148,0.574 0.086,0.09 0.156,0.164 0.223,0.207 0.094,0.059 0.234,0.117 0.383,0.184 0.492,0.203 0.863,0.39 0.781,0.734 -0.051,0.219 -0.895,0.192 -1.215,0.176 -0.113,-0.004 -0.215,-0.008 -0.301,-0.008 -0.207,0 -0.449,-0.297 -0.66,-0.554 -0.176,-0.215 -0.344,-0.422 -0.531,-0.536 -0.121,-0.07 -0.262,-0.265 -0.422,-0.578 0.086,-0.07 0.254,-0.16 0.594,-0.199 z m -2.485,-0.23 c 0.004,-0.024 0.368,-2.274 0.524,-4.012 0.121,-1.356 0.008,-2.121 -0.16,-3.281 -0.055,-0.375 -0.117,-0.793 -0.18,-1.29 -0.281,-2.222 0.801,-4.402 1.023,-4.816 0.372,-0.707 0.954,-2.035 1.145,-2.48 0.004,0 0.004,0 0.004,0 0.004,-0.008 0.004,-0.016 0.004,-0.02 0.031,-0.074 0.051,-0.121 0.058,-0.133 h -0.003 c 0.312,-0.461 0.539,-1.07 0.722,-1.664 0.11,-0.367 0.238,-0.734 0.395,-1.082 -0.133,0.676 -0.278,1.66 -0.317,2.871 -0.05,1.512 0.16,1.918 0.313,2.219 0.082,0.16 0.133,0.258 0.117,0.535 -0.02,0.348 -0.258,0.692 -0.488,1.028 -0.305,0.437 -0.618,0.886 -0.504,1.402 0.051,0.23 0.152,0.516 0.265,0.848 0.282,0.816 0.668,1.929 0.457,2.703 -0.3,1.109 -0.597,2.652 -0.308,3.722 0.203,0.754 0.344,2.719 0.39,3.528 -0.257,-0.18 -0.593,-0.321 -1.023,-0.266 -0.367,0.039 -0.605,0.141 -0.758,0.25 -0.101,0.035 -0.156,0.105 -0.179,0.184 -0.704,0.675 -0.809,0.636 -1.184,0.488 l -0.051,-0.02 c -0.308,-0.121 -0.262,-0.714 -0.262,-0.714 z m 1.485,-29.618 c -0.84,1.035 -0.918,1.633 -0.981,2.11 -0.035,0.269 -0.062,0.484 -0.218,0.742 -0.094,0.156 -0.164,0.289 -0.227,0.41 -0.074,-0.238 -0.16,-0.516 -0.25,-0.891 -0.137,-0.566 -0.066,-0.679 0.035,-0.855 0.074,-0.129 0.168,-0.285 0.211,-0.578 0.094,-0.621 -0.359,-2.039 -0.512,-2.5 2.204,-0.156 3.391,-0.828 3.743,-1.063 0.007,0.036 0.011,0.067 0.015,0.102 0.028,0.187 0.059,0.387 0.145,0.578 -0.231,0.152 -0.907,0.652 -1.961,1.945 z m 0.625,0.985 1.762,7.121 1.238,-0.317 c 0.101,0.106 0.211,0.204 0.328,0.293 -0.266,0.219 -1.367,1.137 -1.758,1.653 -0.461,0.621 -0.73,1.347 -0.91,2.078 -0.133,0.551 -0.414,1.074 -0.621,1.414 -0.313,-0.688 -1.031,-2.246 -1.172,-2.43 -0.309,-0.41 -0.734,-0.972 -0.734,-1.359 0,-0.277 0.046,-0.406 0.097,-0.547 0.071,-0.188 0.141,-0.383 0.078,-0.816 -0.066,-0.442 -0.179,-0.731 -0.3,-1.036 -0.079,-0.199 -0.161,-0.406 -0.235,-0.675 -0.097,-0.34 0.047,-0.727 0.188,-1.094 0.105,-0.293 0.218,-0.59 0.218,-0.875 0,-0.16 -0.019,-0.301 -0.042,-0.438 h 0.003 c 0,0 0,-0.226 0.399,-0.886 0.199,-0.336 0.238,-0.625 0.277,-0.907 0.055,-0.445 0.121,-0.957 0.887,-1.894 1.016,-1.25 1.664,-1.727 1.855,-1.856 0.348,0.485 1.059,1.407 1.399,1.848 z m 3.812,3.965 c -0.136,0.105 -0.367,0.351 -0.609,0.621 l -1.145,-4.653 1.52,-0.371 0.984,4.203 c -0.257,-0.047 -0.515,0.02 -0.75,0.2 z m -1.531,1.906 c 0.02,0.023 0.168,0.281 0.406,0.578 l -0.617,0.156 -1.558,-6.293 1.136,-0.277 1.215,4.933 c -0.277,0.317 -0.508,0.598 -0.558,0.661 l -0.094,0.113 z m 3.043,0.555 c -0.211,0.21 -0.664,0.609 -0.969,0.644 -0.629,0.066 -1.324,-0.812 -1.629,-1.289 0.36,-0.434 1.094,-1.285 1.348,-1.481 0.145,-0.113 0.285,-0.152 0.438,-0.117 0.39,0.09 0.75,0.649 0.875,0.887 -0.09,0.465 -0.129,0.973 -0.063,1.356 z m -0.191,8.835 0.05,0.313 c 0.176,1.047 0.274,1.777 0.016,2.363 -0.172,0.387 -0.398,0.676 -0.633,0.977 -0.371,0.472 -0.754,0.961 -0.961,1.867 -0.32,1.402 -0.371,3.484 -0.101,4.203 0.082,0.215 0.218,0.473 0.367,0.75 0.008,0.012 0.012,0.024 0.019,0.035 0.008,0 0.012,0 0.02,0 0.027,0.051 0.059,0.106 0.102,0.176 0.179,0.289 0.476,0.773 0.363,1.141 -0.059,0.172 -0.207,0.308 -0.457,0.414 -0.211,0.09 -1.395,0.426 -2.196,0.48 -0.066,-0.949 -0.191,-2.285 -0.359,-2.906 -0.277,-1.031 0.074,-2.637 0.309,-3.504 0.246,-0.898 -0.164,-2.082 -0.465,-2.945 0.808,-0.75 2.617,-3.008 2.82,-3.524 0.094,-0.246 0.133,-0.508 0.18,-0.871 0.051,-0.375 0.121,-0.894 0.301,-1.637 0.218,-0.945 0.754,-1.39 1.05,-1.574 0.028,0.797 -0.187,1.227 -0.336,1.512 -0.058,0.117 -0.105,0.215 -0.136,0.301 -0.239,0.789 -0.114,1.511 0.047,2.429 z m 0.254,-5.398 c 0.062,0.258 0.101,0.484 0.128,0.695 -0.281,0.141 -1.117,0.645 -1.421,1.938 -0.18,0.762 -0.254,1.293 -0.305,1.68 -0.047,0.343 -0.078,0.574 -0.156,0.773 -0.153,0.394 -1.731,2.391 -2.575,3.23 -0.043,-0.136 -0.078,-0.257 -0.101,-0.359 -0.074,-0.336 0.176,-0.691 0.433,-1.07 0.266,-0.383 0.543,-0.782 0.567,-1.246 0.023,-0.391 -0.067,-0.567 -0.164,-0.754 -0.129,-0.254 -0.313,-0.606 -0.266,-2.012 0.063,-2.051 0.426,-3.562 0.508,-3.883 0.453,-0.512 1.437,-1.324 1.668,-1.512 0.184,0.094 0.383,0.153 0.582,0.153 0.039,0 0.078,-0.004 0.117,-0.008 0.371,-0.043 0.777,-0.355 1.039,-0.594 0.106,0.489 0.035,0.891 -0.043,1.309 -0.086,0.492 -0.176,0.996 -0.011,1.66 z M 24.371,29.43 c 0.324,0.168 0.59,0.175 0.922,0.187 0.227,0.008 0.484,0.016 0.836,0.071 0.383,0.058 0.629,0.234 0.867,0.394 0.258,0.18 0.524,0.367 0.914,0.367 0.035,0 0.07,-0.004 0.11,-0.008 0.75,-0.058 1.191,-0.605 1.546,-1.043 l 0.094,-0.113 c 0.297,-0.359 0.891,-0.433 0.899,-0.433 l 0.054,-0.008 0.008,-0.008 c 0.137,0.269 0.484,0.93 0.774,1.164 -0.157,0.117 -1.555,1.078 -4.528,1.078 -0.023,0 -0.047,0 -0.07,0 -3.613,-0.016 -5.074,-1.289 -5.289,-1.5 0.59,-0.672 1.222,-1.16 1.707,-1.492 l 0.16,0.348 c 0.016,0.031 0.465,0.73 0.996,0.996 z m 2.563,-1.692 c 0.203,0.129 0.523,0.223 0.855,0.223 0.149,0 0.301,-0.02 0.441,-0.059 0.082,-0.023 0.168,-0.07 0.262,-0.132 l 1.481,0.804 c -0.219,0.09 -0.461,0.227 -0.637,0.442 l -0.098,0.117 c -0.32,0.394 -0.683,0.844 -1.254,0.89 -0.304,0.024 -0.496,-0.109 -0.746,-0.285 -0.265,-0.183 -0.562,-0.394 -1.043,-0.468 -0.379,-0.059 -0.66,-0.071 -0.886,-0.075 -0.317,-0.011 -0.504,-0.019 -0.75,-0.144 -0.414,-0.207 -0.813,-0.817 -0.813,-0.817 l -0.172,-0.382 c 0.035,-0.028 0.078,-0.055 0.11,-0.075 0.8,-0.457 1.789,-0.3 2.378,-0.707 0.282,0.227 0.723,0.571 0.872,0.668 z m -0.485,-3.383 c 0.219,-0.359 0.258,-0.511 0.281,-0.613 0.016,-0.054 0.016,-0.066 0.059,-0.121 0.008,-0.004 0.461,-0.562 0.973,-0.383 0.367,0.125 0.609,0.117 0.773,0.114 0.078,0 0.133,0 0.168,0.011 0.145,0.055 0.18,0.141 0.238,0.305 0.055,0.144 0.118,0.324 0.301,0.457 0.172,0.129 0.356,0.164 0.504,0.195 0.195,0.039 0.262,0.055 0.305,0.184 0.203,0.562 -0.449,1.562 -0.715,1.894 -0.352,0.411 -0.965,1.024 -1.223,1.098 -0.363,0.106 -0.777,0 -0.953,-0.113 -0.137,-0.09 -0.613,-0.465 -0.918,-0.707 0.004,-0.016 0.012,-0.031 0.016,-0.051 0.129,-0.777 -0.137,-1.039 -0.477,-1.375 0,0 -0.078,-0.066 -0.093,-0.082 0.21,-0.148 0.523,-0.418 0.761,-0.813 z m 4.422,1.493 c 0.047,0.347 0.09,0.675 -0.203,0.976 -0.313,0.317 -0.906,0.168 -1.215,0.078 0.098,-0.105 0.172,-0.191 0.207,-0.234 0.117,-0.145 1.106,-1.426 0.789,-2.305 C 30.32,24.004 30.035,23.949 29.828,23.906 29.707,23.879 29.59,23.855 29.492,23.785 29.414,23.73 29.387,23.656 29.34,23.527 29.273,23.344 29.184,23.098 28.855,22.969 28.742,22.926 28.637,22.93 28.527,22.93 c -0.144,0.004 -0.332,0.008 -0.629,-0.094 -0.628,-0.215 -1.199,0.226 -1.437,0.519 -0.094,0.118 -0.117,0.192 -0.141,0.286 -0.019,0.074 -0.047,0.187 -0.234,0.496 -0.258,0.429 -0.629,0.683 -0.762,0.765 -0.043,-0.031 -0.09,-0.058 -0.133,-0.09 C 25,24.699 24.652,24.48 24.656,24.379 c 0.004,-0.074 0.055,-0.113 0.223,-0.215 0.156,-0.094 0.348,-0.207 0.453,-0.43 0.039,-0.086 0.074,-0.203 0.113,-0.336 0.067,-0.246 0.149,-0.554 0.317,-0.695 0.086,-0.074 0.453,-0.098 0.695,-0.113 0.301,-0.02 0.559,-0.035 0.731,-0.121 0.124,-0.063 0.222,-0.145 0.312,-0.215 0.145,-0.117 0.254,-0.203 0.434,-0.211 0.254,-0.02 0.347,0.113 0.461,0.277 0.078,0.118 0.175,0.262 0.359,0.282 0.144,0.019 0.289,-0.043 0.43,-0.098 0.187,-0.082 0.32,-0.129 0.425,-0.078 0.114,0.058 0.227,0.336 0.309,0.539 0.086,0.219 0.164,0.41 0.293,0.515 0.055,0.047 0.09,0.09 0.125,0.133 0.098,0.117 0.207,0.25 0.535,0.379 0.086,0.031 0.149,0.102 0.184,0.215 0.09,0.258 0.015,0.641 -0.106,0.844 -0.148,0.242 -0.109,0.523 -0.078,0.797 z M 25.066,42.809 C 24.992,42.453 24.961,42.156 24.914,41.91 24.773,41.102 24.719,40.797 24.82,40.113 24.938,39.312 24.66,38.867 24.395,38.438 24.32,38.324 24.25,38.207 24.188,38.082 23.914,37.559 23.629,36.863 23.832,36.16 c 0.172,-0.594 0.52,-2.078 0.027,-2.988 -0.347,-0.652 -0.886,-1.484 -1.484,-1.766 -0.477,-0.23 -1.52,-0.312 -1.676,-0.324 0.071,-0.371 0.16,-0.672 0.262,-0.809 0.09,-0.128 0.184,-0.25 0.273,-0.367 0.34,0.324 1.891,1.574 5.559,1.598 h 0.078 c 0.172,0 0.34,-0.008 0.508,-0.012 0.176,0.512 0.609,1.906 0.531,2.414 -0.031,0.207 -0.094,0.313 -0.156,0.422 -0.156,0.266 -0.246,0.488 -0.082,1.172 0.098,0.406 0.191,0.707 0.273,0.961 0.117,0.375 0.196,0.625 0.196,0.961 0,0.211 -0.094,0.461 -0.196,0.723 -0.156,0.417 -0.332,0.886 -0.195,1.359 0.082,0.293 0.168,0.516 0.25,0.715 0.113,0.297 0.215,0.551 0.273,0.945 0.047,0.324 0.004,0.445 -0.054,0.609 -0.059,0.153 -0.125,0.34 -0.125,0.692 0,0.527 0.453,1.129 0.82,1.613 0.113,0.149 0.219,0.289 0.289,0.399 0.027,0.027 0.805,1.793 0.973,2.16 h -0.004 c 0,0 0.008,0.011 0.019,0.031 0.004,0.012 0.008,0.016 0.008,0.023 -0.219,0.512 -0.75,1.719 -1.09,2.356 -0.207,0.391 -0.703,1.418 -0.957,2.703 -0.453,-0.395 -1.324,-1.172 -1.672,-1.633 -0.261,-0.344 -0.339,-0.59 -0.449,-0.929 -0.082,-0.25 -0.183,-0.571 -0.39,-0.997 -0.375,-0.769 -0.989,-1.324 -1.274,-1.554 -0.019,-0.078 -0.043,-0.141 -0.07,-0.172 0.055,-0.106 0.109,-0.211 0.16,-0.309 0.09,-0.176 0.981,-1.625 0.609,-3.347 z m 2.93,18.882 c -1.027,-0.117 -1.973,-0.593 -2.344,-0.804 -0.316,-0.176 -0.488,-0.496 -0.539,-0.602 -0.07,-0.418 -0.14,-1.004 -0.109,-1.707 0.016,-0.367 0.031,-0.633 0.043,-0.859 0.023,-0.426 0.043,-0.731 0.043,-1.301 0,-0.398 -0.059,-0.578 -0.149,-0.852 -0.117,-0.371 -0.3,-0.937 -0.515,-2.613 -0.262,-2.066 -0.137,-3.777 -0.043,-5.027 0.012,-0.18 0.023,-0.344 0.035,-0.5 0.008,0.015 0.016,0.031 0.02,0.047 l -0.004,0.004 c 0.007,0.007 0.011,0.023 0.019,0.035 0.004,0.008 0.004,-0.094 -0.008,-0.239 0.27,0.262 0.594,0.645 0.817,1.102 0.195,0.398 0.289,0.687 0.371,0.941 0.109,0.352 0.207,0.653 0.515,1.055 0.434,0.578 1.582,1.57 1.922,1.859 -0.086,0.598 -0.113,1.235 -0.031,1.883 0.066,0.5 0.125,0.922 0.184,1.297 0.172,1.172 0.273,1.879 0.156,3.184 -0.094,1.047 -0.262,2.281 -0.383,3.097 z m -1.808,1.043 c 0.066,-0.011 0.128,-0.019 0.183,-0.019 0.082,0 0.203,0.168 0.223,0.23 0.164,0.485 0.117,1.383 0.019,1.539 -0.097,0.145 -0.91,0.457 -1.25,0.274 -0.429,-0.231 -0.437,-0.434 -0.386,-0.602 0.105,-0.344 0.742,-1.312 1.211,-1.422 z m -1.235,-0.988 0.254,1.137 h -1.68 z m 1.645,0.586 c -0.043,-0.016 -0.082,-0.027 -0.121,-0.035 -0.477,-0.082 -0.797,0.18 -0.844,0.199 -0.008,0.012 -0.024,0.02 -0.035,0.027 l -0.305,-1.371 c 0.051,0.036 0.098,0.071 0.152,0.102 0.243,0.137 0.719,0.379 1.305,0.578 z m -1.836,-1.453 0.082,0.367 -0.41,0.328 -0.789,-5.699 0.785,-0.402 c 0.027,0.089 0.05,0.168 0.074,0.238 0.086,0.254 0.125,0.379 0.125,0.707 0,0.559 -0.016,0.84 -0.039,1.273 -0.016,0.231 -0.031,0.497 -0.047,0.868 -0.047,1.121 0.141,1.961 0.219,2.32 z m -0.93,-11.43 c -0.043,1.02 -0.031,2.215 0.137,3.563 0.125,0.98 0.242,1.59 0.34,2.008 l -0.731,0.375 -0.777,-5.575 z m 0.102,-2.586 c 0.015,0.032 0.035,0.059 0.05,0.086 -0.011,0.27 -0.035,0.586 -0.058,0.942 -0.024,0.324 -0.051,0.679 -0.074,1.058 l -1.114,0.406 -0.172,-1.23 c 0.442,-0.371 1,-0.859 1.368,-1.262 z m -1.985,0.153 0.133,0.968 c -0.07,0.055 -0.141,0.114 -0.207,0.168 l -0.121,-0.359 c -0.004,-0.004 -0.172,-0.445 -0.113,-0.945 0.023,-0.211 0.14,-0.391 0.281,-0.598 0.168,-0.254 0.359,-0.543 0.394,-0.938 l -0.015,-0.003 c 0.297,-0.332 0.797,-0.164 0.988,-0.079 0.266,0.165 0.399,0.661 0.359,1.165 0.008,0.011 0.016,0.015 0.024,0.027 0.012,0.023 0.023,0.043 0.035,0.066 -0.262,0.305 -0.727,0.735 -1.207,1.145 l -0.094,-0.684 z m -0.14,-1.813 c 0.035,0.078 0.054,0.149 0.062,0.211 -0.051,0.223 -0.168,0.41 -0.297,0.602 -0.156,0.234 -0.316,0.472 -0.351,0.789 -0.067,0.593 0.129,1.117 0.136,1.133 l 0.219,0.632 0.328,0.094 c 0.035,-0.027 0.125,-0.102 0.242,-0.199 l 0.149,1.051 -1.293,0.464 v -7.914 l 0.012,-0.011 c 0.14,0.144 0.304,0.254 0.445,0.343 0.121,0.079 0.234,0.149 0.301,0.223 0.195,0.211 0.136,0.512 0.027,0.992 -0.109,0.485 -0.238,1.035 0.02,1.59 z m 1.16,17.68 h -1.965 v -8.606 z m -0.918,-6.172 1.16,-0.613 0.793,5.742 -0.652,0.609 z m 5.804,6.144 h -0.847 c -0.004,-0.011 -0.039,-0.144 -0.059,-0.238 l 0.199,-0.664 c 0.25,0.067 0.516,0.121 0.786,0.152 -0.043,0.293 -0.075,0.477 -0.079,0.485 0,0.012 -0.007,0.121 0,0.265 z M 42.73,52.484 c 0.633,-0.183 1.176,-0.453 1.668,-0.765 -0.101,0.48 -0.175,1.199 0.047,1.906 0.543,1.727 0.293,4.121 0.176,4.645 -0.094,0.402 -0.414,1.082 -0.523,1.308 -0.028,0.008 -0.055,0.024 -0.086,0.051 -0.321,-0.09 -0.68,-0.152 -1.074,-0.152 -0.051,0 -0.102,0 -0.157,0.003 -0.5,0.02 -0.965,0.106 -1.375,0.188 -0.472,0.09 -0.879,0.164 -1.226,0.125 -0.395,-0.051 -0.805,-0.125 -1.059,-0.484 -0.305,-0.426 -0.344,-1.172 -0.121,-2.227 0.559,-2.644 1.199,-3.867 3.73,-4.598 z m 2.118,1.016 c -0.293,-0.93 0.011,-1.93 0.09,-2.16 0.261,-0.199 0.511,-0.406 0.753,-0.617 -0.097,0.504 -0.144,1.179 0.125,1.691 0.86,1.621 1.2,3.43 0.985,5.231 -0.071,0.574 -0.332,2.503 -0.403,3.023 -0.308,-0.051 -0.66,-0.242 -0.964,-0.41 L 45.316,60.195 C 45.082,60.07 44.797,59.918 44.469,59.785 44.57,59.57 44.926,58.824 45.031,58.363 45.18,57.727 45.41,55.289 44.848,53.5 Z m -1.317,8.715 c -0.07,-0.145 -0.238,-0.91 0.344,-1.731 0.125,-0.172 0.211,-0.285 0.27,-0.367 0.386,0.137 0.71,0.309 0.968,0.449 l 0.117,0.063 c 0.372,0.203 0.832,0.453 1.266,0.476 0.086,0.184 0.219,0.52 0.281,0.961 0.035,0.246 0.071,0.594 0.078,0.864 H 43.91 C 43.832,62.723 43.668,62.461 43.598,62.336 43.57,62.289 43.547,62.25 43.531,62.215 Z m -1.488,-0.633 c -0.008,-0.094 -0.012,-0.199 -0.012,-0.309 0,-0.398 -0.148,-0.933 -0.25,-1.242 0.324,-0.062 0.657,-0.113 1.02,-0.129 0.328,-0.007 0.629,0.032 0.906,0.094 -0.051,0.07 -0.109,0.152 -0.176,0.242 -0.699,0.981 -0.5,1.918 -0.375,2.168 0.016,0.035 0.043,0.082 0.074,0.137 0.141,0.246 0.372,0.66 0.329,1.035 -0.039,0.32 -0.735,0.578 -1.102,0.641 -0.324,0.062 -0.727,0.234 -1.234,0.535 -0.399,0.238 -1.059,0.641 -1.418,0.863 -0.035,-0.172 -0.075,-0.398 -0.106,-0.625 -0.047,-0.336 0.344,-0.797 0.739,-1.015 0.304,-0.165 0.55,-0.403 0.816,-0.7 h 0.023 V 63.25 c 0.082,-0.09 0.164,-0.184 0.25,-0.285 l 0.153,-0.176 c 0.41,-0.465 0.386,-0.828 0.363,-1.207 z m 9.844,-1.48 0.015,2.824 h -3.195 c -0.066,-0.153 -0.109,-0.297 -0.113,-0.453 -0.016,-0.453 0.554,-1.868 0.824,-2.493 0.156,0.004 0.32,0.004 0.516,-0.019 0.398,-0.051 0.726,-0.184 0.984,-0.402 0.187,0.191 0.555,0.496 0.969,0.543 z M 50.48,53.898 c 0.254,1.2 0.602,3.832 0.606,3.864 0.004,0.008 0.121,0.773 -0.27,1.293 -0.207,0.273 -0.519,0.433 -0.933,0.484 -0.379,0.047 -0.641,0.012 -0.918,-0.027 -0.289,-0.039 -0.59,-0.082 -1.059,-0.004 -0.398,0.148 -0.527,0.379 -0.652,0.601 -0.086,0.153 -0.168,0.297 -0.356,0.457 -0.019,0.016 -0.043,0.024 -0.062,0.036 0.086,-0.653 0.32,-2.372 0.383,-2.907 0.226,-1.883 -0.129,-3.781 -1.028,-5.48 -0.351,-0.668 -0.007,-1.781 0.071,-2.012 0.015,-0.015 0.031,-0.031 0.047,-0.043 1.367,-1.265 2.554,-2.367 4.785,-1.832 -0.039,0.192 -0.082,0.375 -0.125,0.543 -0.383,1.527 -0.785,3.645 -0.489,5.027 z M 49.91,39.582 c 0.219,-0.008 0.438,-0.035 0.649,-0.07 0.222,0.519 0.886,2.152 0.941,3.281 0.055,1.137 -0.031,3.266 -0.309,4.973 -0.007,0.05 -0.015,0.097 -0.023,0.148 -2.434,-0.574 -3.75,0.645 -5.148,1.934 -0.961,0.89 -1.958,1.812 -3.407,2.23 -1.14,0.328 -1.925,0.762 -2.5,1.356 0.184,-0.532 0.614,-1.325 1.621,-1.926 0.536,-0.32 0.875,-0.891 1.204,-1.446 0.218,-0.371 0.445,-0.753 0.726,-1.054 0.734,-0.774 1.141,-1.172 1.731,-1.688 l 0.195,-0.172 c 0.531,-0.46 1.031,-0.898 1.746,-1.871 0.695,-0.957 1.633,-2.566 2.168,-4.218 0.234,-0.731 0.351,-1.188 0.406,-1.477 z m -0.988,-1.809 c -0.094,0.219 -0.172,0.426 -0.067,0.582 0.032,0.047 0.106,0.125 0.25,0.125 h 0.012 l 0.098,-0.003 c 0.371,-0.004 0.875,-0.012 1.16,-0.422 0.207,-0.297 0.363,-0.43 0.453,-0.485 v 0.02 c -0.004,0.207 -0.008,0.562 0.317,0.711 0.164,0.078 0.277,0.226 0.492,0.457 -0.52,0.203 -1.196,0.402 -1.887,0.41 -0.953,0.012 -1.84,-0.242 -2.328,-0.414 0.066,-0.047 0.129,-0.094 0.187,-0.145 0.168,-0.148 0.286,-0.355 0.375,-0.586 0.305,-0.054 0.653,-0.132 0.938,-0.25 z m -0.68,-0.91 c 0.035,-0.254 0.465,-0.84 0.621,-0.992 0.219,-0.211 0.332,-0.625 0.262,-0.965 -0.051,-0.258 -0.316,-0.344 -0.527,-0.414 -0.071,-0.023 -0.192,-0.058 -0.2,-0.039 0.012,-0.094 0.309,-0.383 0.758,-0.582 0.449,-0.199 0.957,-0.246 1.094,-0.109 0.242,0.25 0.145,0.562 -0.031,1.008 -0.125,0.308 -0.239,0.601 -0.114,0.859 0.071,0.144 0.207,0.25 0.407,0.309 0.152,0.046 0.328,0.023 0.508,0 0.406,-0.055 0.859,-0.114 1.347,0.472 0.117,0.137 0.012,0.535 -0.074,0.848 -0.105,0.402 -0.211,0.785 -0.02,1.035 0.028,0.035 0.067,0.074 0.11,0.113 -0.094,0.055 -0.223,0.121 -0.379,0.192 -0.316,-0.383 -0.359,-0.532 -0.684,-0.68 -0.066,-0.035 -0.074,-0.164 -0.07,-0.324 0,-0.164 0.004,-0.383 -0.199,-0.453 -0.207,-0.075 -0.543,-0.012 -1.024,0.675 -0.148,0.219 -0.457,0.235 -0.761,0.239 0.019,-0.055 0.043,-0.114 0.062,-0.157 0.102,-0.23 0.195,-0.453 0.039,-0.597 -0.156,-0.145 -0.371,-0.031 -0.461,0.015 -0.207,0.11 -0.504,0.192 -0.789,0.25 0.059,-0.25 0.094,-0.496 0.125,-0.703 z m 2.309,-3.394 c -0.36,-0.375 -1.153,-0.168 -1.563,0.011 -0.375,0.168 -1.066,0.594 -1.011,1.02 0.035,0.246 0.289,0.332 0.492,0.395 0.074,0.023 0.219,0.074 0.242,0.093 0.043,0.2 -0.023,0.465 -0.137,0.574 -0.054,0.055 -0.156,0.172 -0.265,0.317 -0.493,-0.356 -0.793,-0.934 -0.793,-1.547 0,-1.059 0.859,-1.918 1.918,-1.918 1.058,0 1.918,0.859 1.918,1.918 0,0.434 -0.153,0.852 -0.422,1.191 -0.121,0.016 -0.235,0.028 -0.297,0.012 -0.047,-0.015 -0.125,-0.047 -0.149,-0.09 -0.043,-0.09 0.047,-0.32 0.125,-0.523 C 50.777,34.508 51,33.934 50.551,33.469 Z M 38.305,52.852 c 0.371,0.503 0.976,1.132 1.211,1.371 -0.422,0.726 -0.688,1.629 -0.93,2.769 -0.25,1.192 -0.188,2.031 0.191,2.563 0.383,0.539 0.993,0.613 1.352,0.656 0.375,0.047 0.793,-0.023 1.234,-0.109 0.09,0.273 0.242,0.804 0.242,1.171 0,0.122 0.008,0.231 0.016,0.336 0.024,0.352 0.035,0.567 -0.258,0.903 l -0.156,0.179 c -0.051,0.059 -0.098,0.11 -0.145,0.164 H 34.73 c -0.082,0.043 -0.554,0 -0.613,0 -0.043,0 -0.406,-0.031 -0.558,-0.023 -0.016,0.008 -0.032,0.016 -0.047,0.02 v 0.003 h -1.348 c -0.008,-0.109 -0.016,-0.265 -0.027,-0.445 0.859,-0.062 2.093,-0.418 2.324,-0.512 0.367,-0.156 0.598,-0.382 0.695,-0.675 0.172,-0.547 -0.187,-1.137 -0.406,-1.489 -0.047,-0.078 -0.09,-0.14 -0.102,-0.175 l -0.011,0.003 c -0.004,-0.007 -0.008,-0.011 -0.012,-0.015 -0.137,-0.262 -0.27,-0.512 -0.344,-0.699 -0.215,-0.578 -0.203,-2.559 0.121,-3.961 0.188,-0.813 0.524,-1.242 0.879,-1.699 0.242,-0.309 0.496,-0.633 0.688,-1.071 0.304,-0.687 0.199,-1.515 0.015,-2.601 L 35.93,49.199 c -0.153,-0.894 -0.266,-1.539 -0.055,-2.23 0.02,-0.071 0.063,-0.141 0.105,-0.231 0.235,-0.453 0.629,-1.211 0.2,-2.965 -0.145,-0.578 -0.067,-1.015 0.019,-1.48 0.094,-0.527 0.196,-1.066 -0.043,-1.789 -0.176,-0.527 0.051,-1.668 0.262,-2.133 0.426,0.684 1.035,1.223 1.363,1.481 -0.359,0.472 -0.539,1.011 -0.347,1.617 0.203,0.644 0.437,1.066 0.644,1.441 0.34,0.621 0.563,1.028 0.453,2.028 -0.07,0.624 -0.125,1.207 -0.179,1.761 -0.09,0.953 -0.168,1.778 -0.29,2.516 -0.167,1 -0.304,2.89 0.243,3.637 z M 38.449,42.707 C 38.25,42.348 38.031,41.941 37.836,41.34 37.41,40.004 39.59,38.906 40.52,38.434 c 0.121,-0.059 0.226,-0.114 0.347,-0.18 0.754,-0.41 1.688,-0.914 2.805,-0.66 0.152,0.031 0.351,0.078 0.586,0.113 -0.137,0.441 -0.512,1.57 -0.996,2.25 -0.657,0.914 -1.7,2.09 -2.067,2.328 -0.488,0.317 -1.164,1.356 -1.39,2.137 -0.137,0.465 -0.508,1.726 -1.028,2.266 0.051,-0.532 0.106,-1.098 0.172,-1.704 0.125,-1.132 -0.152,-1.636 -0.5,-2.277 z m 12.52,-19.379 c -0.121,-0.66 -0.356,-1.273 -0.688,-1.832 1.364,-0.273 2.422,-0.59 3.153,-0.941 v 1.91 c -0.52,0.305 -1.192,0.613 -2.465,0.863 z m 0.066,0.453 c 1.176,-0.226 1.871,-0.508 2.399,-0.789 v 10.953 c -0.043,-0.07 -0.079,-0.136 -0.122,-0.211 L 53.254,33.633 C 53.211,33.566 53.133,33.473 53,33.324 52.516,32.777 51.379,31.496 51.172,29.828 51.031,28.68 50.359,27.793 50.078,27.473 c 0.645,-0.93 0.984,-2.016 0.984,-3.153 0,-0.183 -0.011,-0.359 -0.027,-0.539 z m -2.137,3.867 c 0.122,0.04 0.25,0.055 0.375,0.055 0.145,0 0.282,-0.019 0.403,-0.047 0.082,0.086 0.652,0.723 0.937,1.625 -0.238,-0.066 -0.832,-0.496 -0.832,-0.496 -0.035,-0.027 -0.758,-0.512 -1.597,-0.531 -0.336,-0.008 -0.786,0.137 -1.036,0.226 0,-0.031 0.004,-0.066 0,-0.089 -0.019,-0.223 -0.066,-0.438 -0.101,-0.594 0.012,0 -0.024,-0.117 -0.047,-0.18 -0.008,-0.039 -0.016,-0.062 -0.02,-0.07 l -0.003,0.004 c -0.071,-0.227 -0.09,-0.477 -0.032,-0.699 0.172,-0.649 0.106,-1.805 0.047,-2.438 -0.035,-0.394 -0.312,-1.387 -0.906,-1.754 -0.199,-0.121 -0.43,-0.211 -0.664,-0.269 0.242,-0.207 0.539,-0.368 1.14,-0.336 0.262,0.011 0.528,0.187 0.762,0.484 0.375,0.481 0.574,1.18 0.477,1.691 l -0.028,0.141 c -0.16,0.817 -0.539,2.719 1.125,3.277 z m -6.82,-0.906 c -0.168,-0.281 -0.344,-0.574 -0.332,-0.855 0.012,-0.313 0.137,-0.512 0.27,-0.723 0.144,-0.23 0.293,-0.469 0.265,-0.82 -0.047,-0.535 0.106,-1.805 0.86,-2.114 0.632,-0.265 0.996,-0.117 1.238,0.094 -0.309,0.039 -0.586,0.137 -0.781,0.293 -0.543,0.43 -0.692,0.844 -0.77,1.227 -0.043,0.207 -0.172,1.523 -0.144,1.922 0.035,0.507 0.226,1 0.328,1.214 h -0.004 c 0,0.004 0.105,0.165 0.152,0.512 0.043,0.324 0.059,1.035 0.055,1.36 -0.219,0.066 -0.664,0.179 -1.078,0.187 -0.16,0.004 -0.325,-0.004 -0.41,-0.008 -0.051,-0.004 -0.094,-0.008 -0.153,-0.015 -0.355,-0.071 -0.644,-0.145 -0.844,-0.204 -0.066,-0.238 -0.113,-0.593 0.028,-0.66 0.101,-0.043 0.258,-0.011 0.422,0.02 0.328,0.062 0.777,0.152 1.109,-0.332 0.242,-0.348 0.012,-0.731 -0.211,-1.098 z m 0.238,-7.687 v -4.356 c 0,-0.64 2.149,-2.137 2.524,-2.406 0.64,0.469 2.133,1.738 2.265,2.598 v 4.121 c -0.503,-0.149 -1.035,-0.235 -1.585,-0.235 -0.602,0 -1.18,0.102 -1.727,0.278 z m 0.512,0.425 c -0.976,0.543 -1.766,1.375 -2.266,2.379 -1.503,-0.214 -2.8,-0.582 -3.699,-1.019 0.145,-0.07 0.305,-0.242 0.305,-0.242 0.144,-0.168 0.23,-0.375 0.23,-0.61 0,-0.187 -0.054,-0.363 -0.152,-0.508 z M 31.113,10.441 v -4.39 h 10.711 v 4.39 h -0.906 v 0.422 h 0.906 v 8.192 h -0.66 c -0.316,-2.356 -3.957,-7.989 -4.48,-8.789 V 8.129 h -0.493 v 2.148 c -0.554,0.836 -4.078,6.219 -4.379,8.778 h -0.699 v -8.192 h 0.903 v -0.422 z m -6.39,9.039 c -0.696,0.387 -1.297,0.926 -1.77,1.567 -1.547,-0.301 -2.734,-0.664 -3.437,-1.055 l -0.008,0.012 V 19.48 Z m -2.868,-7.05 c 0.68,0.504 2.286,1.84 2.329,2.718 v 3.907 h -4.676 v -4.707 c 0.851,-0.825 1.984,-1.657 2.347,-1.918 z M 19.508,10.441 V 9.922 l 4.676,-2.555 v 6.727 c -0.637,-0.883 -1.766,-1.746 -2.125,-2.008 v -1.68 h -0.442 v 1.703 c -0.332,0.239 -1.281,0.934 -2.109,1.692 V 10.863 H 20.52 V 10.441 Z M 20.57,52.379 V 64.102 H 19.508 V 22.977 c 0.457,0.234 1.156,0.511 2.398,0.753 -0.019,0.196 -0.031,0.391 -0.031,0.59 0,1.239 0.398,2.41 1.156,3.383 -0.676,0.457 -1.648,1.199 -2.414,2.324 -0.5,0.668 -0.555,3.293 -0.555,3.321 -0.015,0.871 0.254,2.179 0.403,2.683 0.168,0.578 0.097,1.133 0.043,1.578 -0.02,0.176 -0.039,0.34 -0.043,0.481 -0.008,0.222 -0.106,0.66 -0.199,1.078 -0.11,0.484 -0.211,0.941 -0.204,1.191 0.016,0.575 0.282,1.086 0.508,1.422 v 8.36 l -0.472,0.168 z m 1.696,13.394 V 64.105 L 21.004,64.102 V 63.25 h 2.047 l 0.004,0.012 0.015,-0.012 h 1.934 c -0.223,0.316 -0.383,0.629 -0.434,0.785 -0.09,0.305 -0.062,0.742 0.594,1.094 0.133,0.07 0.301,0.101 0.481,0.101 0.531,0 1.171,-0.265 1.328,-0.523 0.156,-0.25 0.183,-0.906 0.121,-1.43 h 0.851 c 0.075,0.196 0.203,0.383 0.438,0.473 l 0.051,0.016 c 0.183,0.074 0.336,0.125 0.488,0.125 0.258,0 0.516,-0.133 0.93,-0.508 0.179,0.324 0.343,0.527 0.515,0.633 0.125,0.074 0.278,0.261 0.422,0.437 0.273,0.332 0.582,0.711 0.988,0.711 0.078,0 0.18,0.004 0.285,0.008 0.137,0.004 0.286,0.012 0.438,0.012 0.543,0 1.102,-0.075 1.203,-0.512 0.172,-0.723 -0.578,-1.035 -1.027,-1.223 -0.125,-0.054 -0.242,-0.101 -0.321,-0.152 -0.003,0 -0.015,-0.012 -0.023,-0.02 h 8.332 c -0.141,0.133 -0.277,0.246 -0.43,0.328 -0.519,0.29 -1.027,0.891 -0.953,1.446 0.035,0.273 0.086,0.543 0.125,0.722 z m 11.75,2.317 v 0.711 c -0.512,-0.043 -0.957,-0.063 -1.297,-0.071 -0.93,-0.031 -1.52,0.067 -2.063,0.223 v -2.758 h 2.625 l -1.265,1.891 z m -1.231,-0.391 1.008,-1.504 h 0.223 v 1.504 z m 14.477,-4.773 c 0,0 -0.028,-0.633 -0.067,-0.922 -0.058,-0.414 -0.172,-0.746 -0.269,-0.969 0.086,-0.035 0.168,-0.082 0.246,-0.144 0.242,-0.207 0.359,-0.414 0.449,-0.575 0.109,-0.199 0.18,-0.32 0.395,-0.402 0.359,-0.059 0.621,-0.023 0.894,0.016 0.024,0.004 0.047,0.008 0.067,0.011 -0.247,0.579 -0.821,1.993 -0.805,2.547 0.008,0.153 0.043,0.297 0.09,0.438 0,0 0,0 0,0.004 0.043,0.105 0.289,0.613 0.379,0.765 0.156,0.27 0.336,0.575 0.504,0.965 0.082,0.195 0.085,0.36 0.011,0.496 -0.152,0.285 -0.605,0.43 -0.75,0.461 -0.41,0.035 -0.933,0.008 -1.058,-0.086 -0.102,-0.078 -0.078,-0.593 -0.067,-0.843 0.008,-0.2 -0.023,-1.653 -0.019,-1.762 z m 6.164,-3.281 v 4.457 l -1.039,-0.004 -0.02,-4.032 c 0.449,-0.078 0.805,-0.222 1.059,-0.421 z m -0.004,-0.559 c -0.024,0.031 -0.055,0.059 -0.086,0.086 -0.055,0.062 -0.121,0.121 -0.203,0.16 -0.309,0.23 -0.77,0.32 -1.094,0.356 -0.297,0.039 -0.656,-0.258 -0.84,-0.45 0.442,-0.66 0.313,-1.508 0.305,-1.539 -0.012,-0.105 -0.352,-2.676 -0.609,-3.89 -0.219,-1.016 -0.047,-2.731 0.488,-4.836 0.082,-0.332 0.16,-0.715 0.226,-1.141 0.278,-1.734 0.368,-3.898 0.313,-5.055 -0.055,-1.16 -0.684,-2.75 -0.945,-3.359 0.062,-0.016 0.121,-0.031 0.179,-0.047 2.215,2.641 2.246,4.496 2.262,5.504 l 0.008,14.215 c 0,-0.004 -0.004,-0.004 -0.004,-0.004 z m 0.433,-40.031 v -4.703 c 6.981,5.332 11.137,13.71 11.137,22.492 0,1.207 -0.082,2.406 -0.234,3.594 H 61.84 c 0,0 -0.02,-3.051 -0.028,-5.243 l 1.618,1.504 0.312,-0.336 -1.949,-1.804 c 0,-0.911 -0.004,-2.875 -0.004,-2.875 0.043,0.097 0.145,0.171 0.258,0.171 0.156,0 0.281,-0.125 0.281,-0.277 0,-0.156 -0.125,-0.281 -0.281,-0.281 -0.113,0 -0.215,0.074 -0.258,0.176 v -0.731 c 0.043,0.102 0.145,0.172 0.258,0.172 0.156,0 0.281,-0.125 0.281,-0.277 0,-0.157 -0.125,-0.278 -0.281,-0.278 -0.113,0 -0.215,0.071 -0.258,0.172 v -0.73 c 0.043,0.101 0.145,0.172 0.258,0.172 0.156,0 0.281,-0.125 0.281,-0.282 0,-0.152 -0.125,-0.277 -0.281,-0.277 -0.113,0 -0.215,0.074 -0.258,0.176 v -0.317 h -0.101 c 0.089,-0.043 0.152,-0.136 0.152,-0.242 0,-0.156 -0.125,-0.277 -0.278,-0.277 -0.156,0 -0.281,0.121 -0.281,0.277 0,0.106 0.063,0.199 0.153,0.242 h -0.102 v 0.289 c -0.051,-0.085 -0.137,-0.148 -0.242,-0.148 -0.152,0 -0.278,0.125 -0.278,0.277 0,0.157 0.126,0.282 0.278,0.282 0.105,0 0.191,-0.059 0.242,-0.145 v 0.676 c -0.051,-0.086 -0.137,-0.145 -0.242,-0.145 -0.152,0 -0.278,0.121 -0.278,0.278 0,0.152 0.126,0.277 0.278,0.277 0.105,0 0.191,-0.062 0.242,-0.144 v 0.675 c -0.051,-0.086 -0.137,-0.148 -0.242,-0.148 -0.152,0 -0.278,0.125 -0.278,0.281 0,0.152 0.126,0.277 0.278,0.277 0.105,0 0.191,-0.058 0.242,-0.144 v 2.723 l -2.422,0.004 c 0,-0.059 -0.031,-9.016 -0.031,-9.016 0.043,0.101 0.141,0.176 0.258,0.176 0.156,0 0.281,-0.125 0.281,-0.282 0,-0.152 -0.125,-0.277 -0.281,-0.277 -0.117,0 -0.215,0.07 -0.258,0.172 V 24.48 c 0.043,0.102 0.141,0.176 0.258,0.176 0.156,0 0.281,-0.125 0.281,-0.281 0,-0.152 -0.125,-0.277 -0.281,-0.277 -0.117,0 -0.215,0.074 -0.258,0.172 v -0.727 c 0.043,0.098 0.141,0.172 0.258,0.172 0.156,0 0.281,-0.125 0.281,-0.281 0,-0.153 -0.125,-0.278 -0.281,-0.278 -0.117,0 -0.215,0.071 -0.258,0.172 v -0.312 h -0.102 c 0.09,-0.043 0.153,-0.137 0.153,-0.243 0,-0.152 -0.125,-0.277 -0.282,-0.277 -0.152,0 -0.277,0.125 -0.277,0.277 0,0.106 0.063,0.2 0.152,0.243 h -0.105 v 0.285 c -0.047,-0.082 -0.133,-0.145 -0.238,-0.145 -0.157,0 -0.282,0.125 -0.282,0.278 0,0.156 0.125,0.281 0.282,0.281 0.105,0 0.191,-0.063 0.238,-0.149 v 0.676 c -0.047,-0.086 -0.133,-0.144 -0.238,-0.144 -0.157,0 -0.282,0.125 -0.282,0.277 0,0.156 0.125,0.281 0.282,0.281 0.105,0 0.191,-0.062 0.238,-0.148 v 0.676 c -0.047,-0.082 -0.133,-0.145 -0.238,-0.145 -0.157,0 -0.282,0.125 -0.282,0.277 0,0.157 0.125,0.282 0.282,0.282 0.105,0 0.191,-0.063 0.238,-0.149 v 4.996 c -0.863,-3.937 -3.055,-6.89 -4.563,-7.949 V 19.48 h 1.18 V 19.055 Z M 42.395,4.918 V 5.625 H 30.512 V 4.918 Z m -5.747,-1.34 h 0.786 V 3.156 H 36.648 V 2.094 c 2.164,0.051 4.094,1.008 4.86,2.402 h -4.86 z M 36.613,1.426 c -19.398,0 -35.179,15.781 -35.179,35.179 0,12.329 6.378,23.192 16.007,29.477 l 0.184,0.113 c 5.48,3.532 11.996,5.59 18.988,5.59 19.399,0 35.18,-15.781 35.18,-35.18 0,-19.398 -15.781,-35.179 -35.18,-35.179"
                 style="fill:#231f20;fill-opacity:1;fill-rule:nonzero;stroke:none"
                 id="path174" /></g></g></g></g></g></g></svg>
