<?xml version="1.0" encoding="UTF-8"?>
<!-- Created with Inkscape (http://www.inkscape.org/) -->
<svg width="181" height="279" version="1.1" viewBox="0 0 181 279" xmlns="http://www.w3.org/2000/svg">
 <g transform="matrix(1.33 0 0 -1.33 0 279)">
  <g transform="scale(.1)">
   <g fill="#00a658">
    <path d="m1222 376c-162 0-152 189-152 189l274-0.391c-9.33-66.6-27.6-129-55.9-188 0 0-21.9-0.625-65.6-0.625"/>
    <path d="m1135 175c-120-108-282-175-459-175-245 0-460 127-579 315l897 1.04 141-142"/>
    <path d="m616 694 311-316-864 0.375c-40.4 83.9-63 177-63 276l-0.258 39.4 616 0.418"/>
    <path d="m0.258 755-0.258 320h235l322-320h-557"/>
    <path d="m0 1310 173-173-173 0.31z"/>
    <path d="m1350 1700h-1350s-0.922-190 139-190c139 0.2 1211 0 1211 0l0.25 190"/>
    <path d="m1350 1325h-998s-20-190 140-190 858-0.43 858-0.43l-0.25 190"/>
    <path d="m868 760c-162 0-155 190-155 190h638l0.83-190h-485"/>
   </g>
   <g fill="#231f20">
    <path d="m119 2042c-11.4 18-21.1 24.1-38.6 24.1-20.8 0-36.9-14.7-36.9-34.4 0-9.68 4.7-17.7 14.1-24 5.36-3.34 11.1-6.68 17.4-9.35l7.04-3.34 14.1-6.02c35.8-15.7 50.5-33.4 50.5-61.1 0-38.4-30.7-68.6-70.3-68.6-35.9 0-60.5 20.5-69.2 57.2l24 6.68c6-26.7 21.4-40.8 44.9-40.8 25.8 0 45.6 19 45.6 43.8 0 13.7-6.04 24.1-18.4 31.7-5.7 3.68-12.1 7.02-19.4 10l-6.71 3.34-13.4 6.01c-32.1 14.4-45.1 30.1-45.1 55.1 0 32.4 27 56.9 62.6 56.9 25.1 0 44.2-11.6 57.6-34.5l-19.7-12.7"/>
    <path d="m301 1949h-75.1l38 89.2zm9.68-23 26.4-63.1h27.4l-100 233-102-233h27l26.7 63.1h95.1"/>
    <path d="m557 2036c-21.7 20.7-42.1 29.4-67.8 29.4-48.4 0-89.5-42.1-89.5-91.9 0-50.8 40.4-91.9 90.2-91.9 24.7 0 45.8 9.02 67.1 29.1v-30.7c-21.7-14.5-42.8-21.5-66.5-21.5-63.8 0-116 51.5-116 114 0 63.5 52.4 116 116 116 25.1 0 43.4-5.95 66.1-21.8v-30.7"/>
    <path d="m745 1994v90.6h25v-222h-25v109h-113v-109h-25v222h25v-90.6h113"/>
    <path d="m927 2042c-11.4 18-21.1 24.1-38.6 24.1-20.8 0-36.9-14.7-36.9-34.4 0-9.68 4.7-17.7 14.1-24 5.36-3.34 11.1-6.68 17.4-9.35l7.04-3.34 14.1-6.02c35.8-15.7 50.5-33.4 50.5-61.1 0-38.4-30.7-68.6-70.3-68.6-35.9 0-60.5 20.5-69.2 57.2l24 6.68c6-26.7 21.4-40.8 44.9-40.8 25.8 0 45.6 19 45.6 43.8 0 13.7-6.04 24.1-18.4 31.7-5.7 3.68-12.1 7.02-19.4 10l-6.71 3.34-13.4 6.01c-32.1 14.4-45.1 30.1-45.1 55.1 0 32.4 27 56.9 62.6 56.9 25.1 0 44.2-11.6 57.6-34.5l-19.7-12.7"/>
    <path d="m1026 2062v-66.3h87.8v-23h-87.8v-87h90.2v-23h-115v222h115v-23h-90.2"/>
    <path d="m1162 2095 173-182v173h25v-233l-173 182v-172h-25v232"/>
   </g>
  </g>
 </g>
</svg>
